  0
SECTION
  2
HEADER
  9
$ACADVER
 1
AC1009
  9
$INSBASE
 10
0
 20
0
 30
0
  9
$LIMMIN
 10
0
 20
0
  9
$LIMMAX
 10
9.7
 20
7.2
  0
ENDSEC
  0
SECTION
  2
TABLES
  0
TABLE
  2
LTYPE
 70
 25
  0
LTYPE
  2
SOLIDLINE
 70
64
  3
Solid line
 72
65
 73
 0
 40
0.0
  0
LTYPE
  2
DASHEDLINE
 70
64
  3
Dashed line
 72
65
 73
2
 40
0.05
 49
0.035
 49
5g
  0
LTYPE
  2
DOTTEDLINE
 70
64
  3
Dotted line
 72
65
 73
2
 40
-0.015
 49
0.02
 49
0.01
  0
ENDTAB
  0
TABLE
  2
LAYER
 70
1
  0
LAYER
  2
0
  6
SOLIDLINE
 62
7
 70
0
  0
ENDTAB
  0
TABLE
  2
STYLE
 70
1
  0
STYLE
  2
STANDARD
 70
0
 40
0.0
 41
1.0
 50
0.0
 71
0
 42
0.2
  3
TXT
  0
ENDTAB
  0
ENDSEC
  0
SECTION
  2
BLOCKS
  0
ENDSEC
  0
SECTION
  2
ENTITIES
  0
LINE
  8
0
  6
SOLIDLINE
 62
7
 10
7.25
 20
2.83
 11
7.35
 21
2.83
  0
LINE
  8
0
  6
SOLIDLINE
 62
7
 10
7.25
 20
2.87
 11
7.35
 21
2.87
  0
LINE
  8
0
  6
SOLIDLINE
 62
7
 10
7.3
 20
2.87
 11
7.3
 21
2.9
  0
LINE
  8
0
  6
SOLIDLINE
 62
7
 10
7.3
 20
2.8
 11
7.3
 21
2.83
  0
LINE
  8
0
  6
SOLIDLINE
 62
5
 10
7.3
 20
2.7
 11
7.3
 21
2.8
  0
LINE
  8
0
  6
SOLIDLINE
 62
5
 10
7.3
 20
3
 11
7.3
 21
2.9
  0
TEXT
  8
0
 62
249
 10
7.33
 20
2.84059
 30
0.0
 40
0.04704
  1
15u
 50
0
 41
1.098
 72
0
 11
7.33
 21
2.84059
 31
0
 73
0
  0
TEXT
  8
0
 62
249
 10
7.13
 20
2.84059
 30
0.0
 40
0.04704
  1
C
 50
0
 41
1.098
 72
0
 11
7.13
 21
2.84059
 31
0
 73
0
  0
ARC
  8
0
  6
SOLIDLINE
 62
249
 10
7.66
 20
4.2
 40
0.1
 50
330.945
 51
95.7106
  0
LINE
  8
0
  6
SOLIDLINE
 62
249
 10
7.6
 20
4.2
 11
7.8
 21
4.3
  0
LINE
  8
0
  6
SOLIDLINE
 62
249
 10
7.75
 20
4.16
 11
7.78
 21
4.18
  0
LINE
  8
0
  6
SOLIDLINE
 62
249
 10
7.75
 20
4.16
 11
7.73
 21
4.19
  0
LINE
  8
0
  6
SOLIDLINE
 62
5
 10
7.5
 20
4.2
 11
7.6
 21
4.2
  0
TEXT
  8
0
 62
5
 10
7.5794
 20
4.21059
 30
0.0
 40
0.04704
  1
1
 50
0
 41
1.098
 72
2
 11
7.55
 21
4.21059
 31
0
 73
0
  0
LINE
  8
0
  6
SOLIDLINE
 62
5
 10
7.9
 20
4.2
 11
7.8
 21
4.2
  0
TEXT
  8
0
 62
5
 10
7.85
 20
4.21059
 30
0.0
 40
0.04704
  1
2
 50
0
 41
1.098
 72
0
 11
7.85
 21
4.21059
 31
0
 73
0
  0
TEXT
  8
0
 62
249
 10
7.48
 20
4.33059
 30
0.0
 40
0.04704
  1
tClose=0.1
 50
0
 41
1.098
 72
0
 11
7.48
 21
4.33059
 31
0
 73
0
  0
TEXT
  8
0
 62
249
 10
7.5
 20
4.09059
 30
0.0
 40
0.04704
  1
b
 50
0
 41
1.098
 72
0
 11
7.5
 21
4.09059
 31
0
 73
0
  0
SOLID
  8
0
  6
SOLIDLINE
 62
1
 10
7.33
 20
4.06
 30
0.0
 11
7.33
 21
4.02
 31
0.0
 12
7.72
 22
4.06
 32
0.0
 13
7.72
 23
4.02
 33
0.0
  0
SOLID
  8
0
  6
SOLIDLINE
 62
1
 10
7.36
 20
4.09
 30
0.0
 11
7.36
 21
3.99
 31
0.0
 12
7.69
 22
4.09
 32
0.0
 13
7.69
 23
3.99
 33
0.0
  0
POLYLINE
  8
0
  6
SOLIDLINE
 62
1
 66
  1
 10
0.0
 20
0.0
 30
0.0
 40
0.03
 41
0.03
 70
1
  0
VERTEX
  8
0
 10
7.35
 20
4.06
 30
0.0
 42
1
  0
VERTEX
  8
0
 10
7.37
 20
4.06
 30
0.0
 42
1
  0
SEQEND
  0
POLYLINE
  8
0
  6
SOLIDLINE
 62
1
 66
  1
 10
0.0
 20
0.0
 30
0.0
 40
0.03
 41
0.03
 70
1
  0
VERTEX
  8
0
 10
7.35
 20
4.02
 30
0.0
 42
1
  0
VERTEX
  8
0
 10
7.37
 20
4.02
 30
0.0
 42
1
  0
SEQEND
  0
POLYLINE
  8
0
  6
SOLIDLINE
 62
1
 66
  1
 10
0.0
 20
0.0
 30
0.0
 40
0.03
 41
0.03
 70
1
  0
VERTEX
  8
0
 10
7.68
 20
4.06
 30
0.0
 42
1
  0
VERTEX
  8
0
 10
7.7
 20
4.06
 30
0.0
 42
1
  0
SEQEND
  0
POLYLINE
  8
0
  6
SOLIDLINE
 62
1
 66
  1
 10
0.0
 20
0.0
 30
0.0
 40
0.03
 41
0.03
 70
1
  0
VERTEX
  8
0
 10
7.68
 20
4.02
 30
0.0
 42
1
  0
VERTEX
  8
0
 10
7.7
 20
4.02
 30
0.0
 42
1
  0
SEQEND
  0
ARC
  8
0
  6
SOLIDLINE
 62
249
 10
7.37
 20
4.06
 40
0.03
 50
108.435
 51
180
  0
LINE
  8
0
  6
SOLIDLINE
 62
249
 10
7.36
 20
4.09
 11
7.69
 21
4.09
  0
ARC
  8
0
  6
SOLIDLINE
 62
249
 10
7.69
 20
4.06
 40
0.03
 50
2.92403e-010
 51
90
  0
LINE
  8
0
  6
SOLIDLINE
 62
249
 10
7.72
 20
4.06
 11
7.72
 21
4.02
  0
ARC
  8
0
  6
SOLIDLINE
 62
249
 10
7.37
 20
4.03
 40
0.04
 50
194.036
 51
255.964
  0
LINE
  8
0
  6
SOLIDLINE
 62
249
 10
7.69
 20
3.99
 11
7.36
 21
3.99
  0
ARC
  8
0
  6
SOLIDLINE
 62
249
 10
7.69
 20
4.03
 40
0.04
 50
270
 51
341.565
  0
LINE
  8
0
  6
SOLIDLINE
 62
249
 10
7.33
 20
4.02
 11
7.33
 21
4.06
  0
TEXT
  8
0
 62
7
 10
7.9058
 20
3.99059
 30
0.0
 40
0.04704
  1
1.680uA
 50
0
 41
1.098
 72
2
 11
7.7
 21
3.99059
 31
0
 73
0
  0
SOLID
  8
0
  6
SOLIDLINE
 62
1
 10
7.93
 20
4.31
 30
0.0
 11
7.93
 21
4.27
 31
0.0
 12
8.37
 22
4.31
 32
0.0
 13
8.37
 23
4.27
 33
0.0
  0
SOLID
  8
0
  6
SOLIDLINE
 62
1
 10
7.96
 20
4.34
 30
0.0
 11
7.96
 21
4.24
 31
0.0
 12
8.34
 22
4.34
 32
0.0
 13
8.34
 23
4.24
 33
0.0
  0
POLYLINE
  8
0
  6
SOLIDLINE
 62
1
 66
  1
 10
0.0
 20
0.0
 30
0.0
 40
0.03
 41
0.03
 70
1
  0
VERTEX
  8
0
 10
7.95
 20
4.31
 30
0.0
 42
1
  0
VERTEX
  8
0
 10
7.97
 20
4.31
 30
0.0
 42
1
  0
SEQEND
  0
POLYLINE
  8
0
  6
SOLIDLINE
 62
1
 66
  1
 10
0.0
 20
0.0
 30
0.0
 40
0.03
 41
0.03
 70
1
  0
VERTEX
  8
0
 10
7.95
 20
4.27
 30
0.0
 42
1
  0
VERTEX
  8
0
 10
7.97
 20
4.27
 30
0.0
 42
1
  0
SEQEND
  0
POLYLINE
  8
0
  6
SOLIDLINE
 62
1
 66
  1
 10
0.0
 20
0.0
 30
0.0
 40
0.03
 41
0.03
 70
1
  0
VERTEX
  8
0
 10
8.33
 20
4.31
 30
0.0
 42
1
  0
VERTEX
  8
0
 10
8.35
 20
4.31
 30
0.0
 42
1
  0
SEQEND
  0
POLYLINE
  8
0
  6
SOLIDLINE
 62
1
 66
  1
 10
0.0
 20
0.0
 30
0.0
 40
0.03
 41
0.03
 70
1
  0
VERTEX
  8
0
 10
8.33
 20
4.27
 30
0.0
 42
1
  0
VERTEX
  8
0
 10
8.35
 20
4.27
 30
0.0
 42
1
  0
SEQEND
  0
ARC
  8
0
  6
SOLIDLINE
 62
249
 10
7.97
 20
4.31
 40
0.03
 50
108.435
 51
180
  0
LINE
  8
0
  6
SOLIDLINE
 62
249
 10
7.96
 20
4.34
 11
8.34
 21
4.34
  0
ARC
  8
0
  6
SOLIDLINE
 62
249
 10
8.34
 20
4.31
 40
0.03
 50
2.92403e-010
 51
90
  0
LINE
  8
0
  6
SOLIDLINE
 62
249
 10
8.37
 20
4.31
 11
8.37
 21
4.27
  0
ARC
  8
0
  6
SOLIDLINE
 62
249
 10
7.97
 20
4.28
 40
0.04
 50
194.036
 51
255.964
  0
LINE
  8
0
  6
SOLIDLINE
 62
249
 10
8.34
 20
4.24
 11
7.96
 21
4.24
  0
ARC
  8
0
  6
SOLIDLINE
 62
249
 10
8.34
 20
4.28
 40
0.04
 50
270
 51
341.565
  0
LINE
  8
0
  6
SOLIDLINE
 62
249
 10
7.93
 20
4.27
 11
7.93
 21
4.31
  0
TEXT
  8
0
 62
7
 10
7.95
 20
4.24059
 30
0.0
 40
0.04704
  1
-1.680uA
 50
0
 41
1.098
 72
0
 11
7.95
 21
4.24059
 31
0
 73
0
  0
ARC
  8
0
  6
SOLIDLINE
 62
249
 10
6.86
 20
4.2
 40
0.1
 50
330.945
 51
95.7106
  0
LINE
  8
0
  6
SOLIDLINE
 62
249
 10
6.8
 20
4.2
 11
7
 21
4.3
  0
LINE
  8
0
  6
SOLIDLINE
 62
249
 10
6.87
 20
4.3
 11
6.89
 21
4.27
  0
LINE
  8
0
  6
SOLIDLINE
 62
249
 10
6.87
 20
4.3
 11
6.9
 21
4.32
  0
LINE
  8
0
  6
SOLIDLINE
 62
5
 10
6.7
 20
4.2
 11
6.8
 21
4.2
  0
TEXT
  8
0
 62
5
 10
6.7794
 20
4.21059
 30
0.0
 40
0.04704
  1
1
 50
0
 41
1.098
 72
2
 11
6.75
 21
4.21059
 31
0
 73
0
  0
LINE
  8
0
  6
SOLIDLINE
 62
5
 10
7.1
 20
4.2
 11
7
 21
4.2
  0
TEXT
  8
0
 62
5
 10
7.05
 20
4.21059
 30
0.0
 40
0.04704
  1
2
 50
0
 41
1.098
 72
0
 11
7.05
 21
4.21059
 31
0
 73
0
  0
TEXT
  8
0
 62
249
 10
6.7
 20
4.33059
 30
0.0
 40
0.04704
  1
tOpen=0.1
 50
0
 41
1.098
 72
0
 11
6.7
 21
4.33059
 31
0
 73
0
  0
TEXT
  8
0
 62
249
 10
6.7
 20
4.09059
 30
0.0
 40
0.04704
  1
a
 50
0
 41
1.098
 72
0
 11
6.7
 21
4.09059
 31
0
 73
0
  0
SOLID
  8
0
  6
SOLIDLINE
 62
1
 10
6.48
 20
4.06
 30
0.0
 11
6.48
 21
4.02
 31
0.0
 12
6.87
 22
4.06
 32
0.0
 13
6.87
 23
4.02
 33
0.0
  0
SOLID
  8
0
  6
SOLIDLINE
 62
1
 10
6.51
 20
4.09
 30
0.0
 11
6.51
 21
3.99
 31
0.0
 12
6.84
 22
4.09
 32
0.0
 13
6.84
 23
3.99
 33
0.0
  0
POLYLINE
  8
0
  6
SOLIDLINE
 62
1
 66
  1
 10
0.0
 20
0.0
 30
0.0
 40
0.03
 41
0.03
 70
1
  0
VERTEX
  8
0
 10
6.5
 20
4.06
 30
0.0
 42
1
  0
VERTEX
  8
0
 10
6.52
 20
4.06
 30
0.0
 42
1
  0
SEQEND
  0
POLYLINE
  8
0
  6
SOLIDLINE
 62
1
 66
  1
 10
0.0
 20
0.0
 30
0.0
 40
0.03
 41
0.03
 70
1
  0
VERTEX
  8
0
 10
6.5
 20
4.02
 30
0.0
 42
1
  0
VERTEX
  8
0
 10
6.52
 20
4.02
 30
0.0
 42
1
  0
SEQEND
  0
POLYLINE
  8
0
  6
SOLIDLINE
 62
1
 66
  1
 10
0.0
 20
0.0
 30
0.0
 40
0.03
 41
0.03
 70
1
  0
VERTEX
  8
0
 10
6.83
 20
4.06
 30
0.0
 42
1
  0
VERTEX
  8
0
 10
6.85
 20
4.06
 30
0.0
 42
1
  0
SEQEND
  0
POLYLINE
  8
0
  6
SOLIDLINE
 62
1
 66
  1
 10
0.0
 20
0.0
 30
0.0
 40
0.03
 41
0.03
 70
1
  0
VERTEX
  8
0
 10
6.83
 20
4.02
 30
0.0
 42
1
  0
VERTEX
  8
0
 10
6.85
 20
4.02
 30
0.0
 42
1
  0
SEQEND
  0
ARC
  8
0
  6
SOLIDLINE
 62
249
 10
6.52
 20
4.06
 40
0.03
 50
108.435
 51
180
  0
LINE
  8
0
  6
SOLIDLINE
 62
249
 10
6.51
 20
4.09
 11
6.84
 21
4.09
  0
ARC
  8
0
  6
SOLIDLINE
 62
249
 10
6.84
 20
4.06
 40
0.03
 50
2.92403e-010
 51
90
  0
LINE
  8
0
  6
SOLIDLINE
 62
249
 10
6.87
 20
4.06
 11
6.87
 21
4.02
  0
ARC
  8
0
  6
SOLIDLINE
 62
249
 10
6.52
 20
4.03
 40
0.04
 50
194.036
 51
255.964
  0
LINE
  8
0
  6
SOLIDLINE
 62
249
 10
6.84
 20
3.99
 11
6.51
 21
3.99
  0
ARC
  8
0
  6
SOLIDLINE
 62
249
 10
6.84
 20
4.03
 40
0.04
 50
270
 51
341.565
  0
LINE
  8
0
  6
SOLIDLINE
 62
249
 10
6.48
 20
4.02
 11
6.48
 21
4.06
  0
TEXT
  8
0
 62
7
 10
7.0558
 20
3.99059
 30
0.0
 40
0.04704
  1
1.680uA
 50
0
 41
1.098
 72
2
 11
6.85
 21
3.99059
 31
0
 73
0
  0
SOLID
  8
0
  6
SOLIDLINE
 62
1
 10
6.93
 20
4.06
 30
0.0
 11
6.93
 21
4.02
 31
0.0
 12
7.37
 22
4.06
 32
0.0
 13
7.37
 23
4.02
 33
0.0
  0
SOLID
  8
0
  6
SOLIDLINE
 62
1
 10
6.96
 20
4.09
 30
0.0
 11
6.96
 21
3.99
 31
0.0
 12
7.34
 22
4.09
 32
0.0
 13
7.34
 23
3.99
 33
0.0
  0
POLYLINE
  8
0
  6
SOLIDLINE
 62
1
 66
  1
 10
0.0
 20
0.0
 30
0.0
 40
0.03
 41
0.03
 70
1
  0
VERTEX
  8
0
 10
6.95
 20
4.06
 30
0.0
 42
1
  0
VERTEX
  8
0
 10
6.97
 20
4.06
 30
0.0
 42
1
  0
SEQEND
  0
POLYLINE
  8
0
  6
SOLIDLINE
 62
1
 66
  1
 10
0.0
 20
0.0
 30
0.0
 40
0.03
 41
0.03
 70
1
  0
VERTEX
  8
0
 10
6.95
 20
4.02
 30
0.0
 42
1
  0
VERTEX
  8
0
 10
6.97
 20
4.02
 30
0.0
 42
1
  0
SEQEND
  0
POLYLINE
  8
0
  6
SOLIDLINE
 62
1
 66
  1
 10
0.0
 20
0.0
 30
0.0
 40
0.03
 41
0.03
 70
1
  0
VERTEX
  8
0
 10
7.33
 20
4.06
 30
0.0
 42
1
  0
VERTEX
  8
0
 10
7.35
 20
4.06
 30
0.0
 42
1
  0
SEQEND
  0
POLYLINE
  8
0
  6
SOLIDLINE
 62
1
 66
  1
 10
0.0
 20
0.0
 30
0.0
 40
0.03
 41
0.03
 70
1
  0
VERTEX
  8
0
 10
7.33
 20
4.02
 30
0.0
 42
1
  0
VERTEX
  8
0
 10
7.35
 20
4.02
 30
0.0
 42
1
  0
SEQEND
  0
ARC
  8
0
  6
SOLIDLINE
 62
249
 10
6.97
 20
4.06
 40
0.03
 50
108.435
 51
180
  0
LINE
  8
0
  6
SOLIDLINE
 62
249
 10
6.96
 20
4.09
 11
7.34
 21
4.09
  0
ARC
  8
0
  6
SOLIDLINE
 62
249
 10
7.34
 20
4.06
 40
0.03
 50
2.92403e-010
 51
90
  0
LINE
  8
0
  6
SOLIDLINE
 62
249
 10
7.37
 20
4.06
 11
7.37
 21
4.02
  0
ARC
  8
0
  6
SOLIDLINE
 62
249
 10
6.97
 20
4.03
 40
0.04
 50
194.036
 51
255.964
  0
LINE
  8
0
  6
SOLIDLINE
 62
249
 10
7.34
 20
3.99
 11
6.96
 21
3.99
  0
ARC
  8
0
  6
SOLIDLINE
 62
249
 10
7.34
 20
4.03
 40
0.04
 50
270
 51
341.565
  0
LINE
  8
0
  6
SOLIDLINE
 62
249
 10
6.93
 20
4.02
 11
6.93
 21
4.06
  0
TEXT
  8
0
 62
7
 10
6.95
 20
3.99059
 30
0.0
 40
0.04704
  1
-1.680uA
 50
0
 41
1.098
 72
0
 11
6.95
 21
3.99059
 31
0
 73
0
  0
CIRCLE
  8
0
  6
SOLIDLINE
 62
5
 10
5.8
 20
4.2
 30
0.0
 40
0.1
  0
LINE
  8
0
  6
SOLIDLINE
 62
5
 10
5.75
 20
4.2
 11
5.8
 21
4.25
  0
LINE
  8
0
  6
SOLIDLINE
 62
5
 10
5.75
 20
4.2
 11
5.8
 21
4.15
  0
LINE
  8
0
  6
SOLIDLINE
 62
5
 10
5.85
 20
4.2
 11
5.75
 21
4.2
  0
LINE
  8
0
  6
SOLIDLINE
 62
5
 10
6
 20
4.2
 11
5.9
 21
4.2
  0
TEXT
  8
0
 62
94
 10
5.85294
 20
4.18898
 30
0.0
 40
0.03528
  1
+
 50
270
 41
1.098
 72
1
 11
5.85294
 21
4.2
 31
0
 73
0
  0
LINE
  8
0
  6
SOLIDLINE
 62
5
 10
5.6
 20
4.2
 11
5.7
 21
4.2
  0
TEXT
  8
0
 62
94
 10
5.69294
 20
4.18898
 30
0.0
 40
0.03528
  1
-
 50
270
 41
1.098
 72
1
 11
5.69294
 21
4.2
 31
0
 73
0
  0
TEXT
  8
0
 62
249
 10
5.9229
 20
4.30059
 30
0.0
 40
0.04704
  1
DC=120m
 50
0
 41
1.098
 72
1
 11
5.82
 21
4.30059
 31
0
 73
0
  0
TEXT
  8
0
 62
249
 10
5.8141
 20
4.00059
 30
0.0
 40
0.04704
  1
IS2
 50
0
 41
1.098
 72
1
 11
5.77
 21
4.00059
 31
0
 73
0
  0
SOLID
  8
0
  6
SOLIDLINE
 62
1
 10
6.03
 20
4.31
 30
0.0
 11
6.03
 21
4.27
 31
0.0
 12
6.47
 22
4.31
 32
0.0
 13
6.47
 23
4.27
 33
0.0
  0
SOLID
  8
0
  6
SOLIDLINE
 62
1
 10
6.06
 20
4.34
 30
0.0
 11
6.06
 21
4.24
 31
0.0
 12
6.44
 22
4.34
 32
0.0
 13
6.44
 23
4.24
 33
0.0
  0
POLYLINE
  8
0
  6
SOLIDLINE
 62
1
 66
  1
 10
0.0
 20
0.0
 30
0.0
 40
0.03
 41
0.03
 70
1
  0
VERTEX
  8
0
 10
6.05
 20
4.31
 30
0.0
 42
1
  0
VERTEX
  8
0
 10
6.07
 20
4.31
 30
0.0
 42
1
  0
SEQEND
  0
POLYLINE
  8
0
  6
SOLIDLINE
 62
1
 66
  1
 10
0.0
 20
0.0
 30
0.0
 40
0.03
 41
0.03
 70
1
  0
VERTEX
  8
0
 10
6.05
 20
4.27
 30
0.0
 42
1
  0
VERTEX
  8
0
 10
6.07
 20
4.27
 30
0.0
 42
1
  0
SEQEND
  0
POLYLINE
  8
0
  6
SOLIDLINE
 62
1
 66
  1
 10
0.0
 20
0.0
 30
0.0
 40
0.03
 41
0.03
 70
1
  0
VERTEX
  8
0
 10
6.43
 20
4.31
 30
0.0
 42
1
  0
VERTEX
  8
0
 10
6.45
 20
4.31
 30
0.0
 42
1
  0
SEQEND
  0
POLYLINE
  8
0
  6
SOLIDLINE
 62
1
 66
  1
 10
0.0
 20
0.0
 30
0.0
 40
0.03
 41
0.03
 70
1
  0
VERTEX
  8
0
 10
6.43
 20
4.27
 30
0.0
 42
1
  0
VERTEX
  8
0
 10
6.45
 20
4.27
 30
0.0
 42
1
  0
SEQEND
  0
ARC
  8
0
  6
SOLIDLINE
 62
249
 10
6.07
 20
4.31
 40
0.03
 50
108.435
 51
180
  0
LINE
  8
0
  6
SOLIDLINE
 62
249
 10
6.06
 20
4.34
 11
6.44
 21
4.34
  0
ARC
  8
0
  6
SOLIDLINE
 62
249
 10
6.44
 20
4.31
 40
0.03
 50
2.92403e-010
 51
90
  0
LINE
  8
0
  6
SOLIDLINE
 62
249
 10
6.47
 20
4.31
 11
6.47
 21
4.27
  0
ARC
  8
0
  6
SOLIDLINE
 62
249
 10
6.07
 20
4.28
 40
0.04
 50
194.036
 51
255.964
  0
LINE
  8
0
  6
SOLIDLINE
 62
249
 10
6.44
 20
4.24
 11
6.06
 21
4.24
  0
ARC
  8
0
  6
SOLIDLINE
 62
249
 10
6.44
 20
4.28
 40
0.04
 50
270
 51
341.565
  0
LINE
  8
0
  6
SOLIDLINE
 62
249
 10
6.03
 20
4.27
 11
6.03
 21
4.31
  0
TEXT
  8
0
 62
7
 10
6.05
 20
4.24059
 30
0.0
 40
0.04704
  1
120.00mA
 50
0
 41
1.098
 72
0
 11
6.05
 21
4.24059
 31
0
 73
0
  0
LINE
  8
0
  6
SOLIDLINE
 62
249
 10
5.78
 20
2.34
 11
5.75
 21
2.26
  0
LINE
  8
0
  6
SOLIDLINE
 62
249
 10
5.87
 20
2.26
 11
5.84
 21
2.34
  0
LINE
  8
0
  6
SOLIDLINE
 62
249
 10
5.84
 20
2.34
 11
5.81
 21
2.26
  0
LINE
  8
0
  6
SOLIDLINE
 62
249
 10
5.81
 20
2.26
 11
5.78
 21
2.34
  0
LINE
  8
0
  6
SOLIDLINE
 62
249
 10
5.75
 20
2.26
 11
5.72
 21
2.34
  0
LINE
  8
0
  6
SOLIDLINE
 62
249
 10
5.89
 20
2.3
 11
5.87
 21
2.26
  0
LINE
  8
0
  6
SOLIDLINE
 62
249
 10
5.72
 20
2.34
 11
5.7
 21
2.3
  0
LINE
  8
0
  6
SOLIDLINE
 62
249
 10
5.9
 20
2.3
 11
5.89
 21
2.3
  0
LINE
  8
0
  6
SOLIDLINE
 62
5
 10
5.6
 20
2.3
 11
5.7
 21
2.3
  0
LINE
  8
0
  6
SOLIDLINE
 62
5
 10
6
 20
2.3
 11
5.9
 21
2.3
  0
TEXT
  8
0
 62
249
 10
5.85
 20
2.36059
 30
0.0
 40
0.04704
  1
4
 50
0
 41
1.098
 72
0
 11
5.85
 21
2.36059
 31
0
 73
0
  0
TEXT
  8
0
 62
249
 10
5.85
 20
2.11059
 30
0.0
 40
0.04704
  1
R1
 50
0
 41
1.098
 72
0
 11
5.85
 21
2.11059
 31
0
 73
0
  0
SOLID
  8
0
  6
SOLIDLINE
 62
1
 10
5.98
 20
2.36
 30
0.0
 11
5.98
 21
2.32
 31
0.0
 12
6.42
 22
2.36
 32
0.0
 13
6.42
 23
2.32
 33
0.0
  0
SOLID
  8
0
  6
SOLIDLINE
 62
1
 10
6.01
 20
2.39
 30
0.0
 11
6.01
 21
2.29
 31
0.0
 12
6.39
 22
2.39
 32
0.0
 13
6.39
 23
2.29
 33
0.0
  0
POLYLINE
  8
0
  6
SOLIDLINE
 62
1
 66
  1
 10
0.0
 20
0.0
 30
0.0
 40
0.03
 41
0.03
 70
1
  0
VERTEX
  8
0
 10
6
 20
2.36
 30
0.0
 42
1
  0
VERTEX
  8
0
 10
6.02
 20
2.36
 30
0.0
 42
1
  0
SEQEND
  0
POLYLINE
  8
0
  6
SOLIDLINE
 62
1
 66
  1
 10
0.0
 20
0.0
 30
0.0
 40
0.03
 41
0.03
 70
1
  0
VERTEX
  8
0
 10
6
 20
2.32
 30
0.0
 42
1
  0
VERTEX
  8
0
 10
6.02
 20
2.32
 30
0.0
 42
1
  0
SEQEND
  0
POLYLINE
  8
0
  6
SOLIDLINE
 62
1
 66
  1
 10
0.0
 20
0.0
 30
0.0
 40
0.03
 41
0.03
 70
1
  0
VERTEX
  8
0
 10
6.38
 20
2.36
 30
0.0
 42
1
  0
VERTEX
  8
0
 10
6.4
 20
2.36
 30
0.0
 42
1
  0
SEQEND
  0
POLYLINE
  8
0
  6
SOLIDLINE
 62
1
 66
  1
 10
0.0
 20
0.0
 30
0.0
 40
0.03
 41
0.03
 70
1
  0
VERTEX
  8
0
 10
6.38
 20
2.32
 30
0.0
 42
1
  0
VERTEX
  8
0
 10
6.4
 20
2.32
 30
0.0
 42
1
  0
SEQEND
  0
ARC
  8
0
  6
SOLIDLINE
 62
249
 10
6.02
 20
2.36
 40
0.03
 50
108.435
 51
180
  0
LINE
  8
0
  6
SOLIDLINE
 62
249
 10
6.01
 20
2.39
 11
6.39
 21
2.39
  0
ARC
  8
0
  6
SOLIDLINE
 62
249
 10
6.39
 20
2.36
 40
0.03
 50
2.92403e-010
 51
90
  0
LINE
  8
0
  6
SOLIDLINE
 62
249
 10
6.42
 20
2.36
 11
6.42
 21
2.32
  0
ARC
  8
0
  6
SOLIDLINE
 62
249
 10
6.02
 20
2.33
 40
0.04
 50
194.036
 51
255.964
  0
LINE
  8
0
  6
SOLIDLINE
 62
249
 10
6.39
 20
2.29
 11
6.01
 21
2.29
  0
ARC
  8
0
  6
SOLIDLINE
 62
249
 10
6.39
 20
2.33
 40
0.04
 50
270
 51
341.565
  0
LINE
  8
0
  6
SOLIDLINE
 62
249
 10
5.98
 20
2.32
 11
5.98
 21
2.36
  0
TEXT
  8
0
 62
7
 10
6.6352
 20
2.29059
 30
0.0
 40
0.04704
  1
560.00mA
 50
0
 41
1.098
 72
2
 11
6.4
 21
2.29059
 31
0
 73
0
  0
CIRCLE
  8
0
  6
SOLIDLINE
 62
5
 10
5.3
 20
2.8
 30
0.0
 40
0.1
  0
LINE
  8
0
  6
SOLIDLINE
 62
5
 10
5.3
 20
2.6
 11
5.3
 21
2.7
  0
TEXT
  8
0
 62
94
 10
5.27574
 20
2.71766
 30
0.0
 40
0.03528
  1
+
 50
0
 41
1.098
 72
1
 11
5.26472
 21
2.71766
 31
0
 73
0
  0
LINE
  8
0
  6
SOLIDLINE
 62
5
 10
5.3
 20
3
 11
5.3
 21
2.9
  0
TEXT
  8
0
 62
94
 10
5.27574
 20
2.83766
 30
0.0
 40
0.03528
  1
-
 50
0
 41
1.098
 72
1
 11
5.26472
 21
2.83766
 31
0
 73
0
  0
TEXT
  8
0
 62
249
 10
5.5735
 20
2.51059
 30
0.0
 40
0.04704
  1
DC=10
 50
0
 41
1.098
 72
1
 11
5.5
 21
2.51059
 31
0
 73
0
  0
TEXT
  8
0
 62
249
 10
5.2441
 20
2.61059
 30
0.0
 40
0.04704
  1
US1
 50
0
 41
1.098
 72
1
 11
5.2
 21
2.61059
 31
0
 73
0
  0
SOLID
  8
0
  6
SOLIDLINE
 62
1
 10
5.33
 20
3.06
 30
0.0
 11
5.33
 21
3.02
 31
0.0
 12
5.77
 22
3.06
 32
0.0
 13
5.77
 23
3.02
 33
0.0
  0
SOLID
  8
0
  6
SOLIDLINE
 62
1
 10
5.36
 20
3.09
 30
0.0
 11
5.36
 21
2.99
 31
0.0
 12
5.74
 22
3.09
 32
0.0
 13
5.74
 23
2.99
 33
0.0
  0
POLYLINE
  8
0
  6
SOLIDLINE
 62
1
 66
  1
 10
0.0
 20
0.0
 30
0.0
 40
0.03
 41
0.03
 70
1
  0
VERTEX
  8
0
 10
5.35
 20
3.06
 30
0.0
 42
1
  0
VERTEX
  8
0
 10
5.37
 20
3.06
 30
0.0
 42
1
  0
SEQEND
  0
POLYLINE
  8
0
  6
SOLIDLINE
 62
1
 66
  1
 10
0.0
 20
0.0
 30
0.0
 40
0.03
 41
0.03
 70
1
  0
VERTEX
  8
0
 10
5.35
 20
3.02
 30
0.0
 42
1
  0
VERTEX
  8
0
 10
5.37
 20
3.02
 30
0.0
 42
1
  0
SEQEND
  0
POLYLINE
  8
0
  6
SOLIDLINE
 62
1
 66
  1
 10
0.0
 20
0.0
 30
0.0
 40
0.03
 41
0.03
 70
1
  0
VERTEX
  8
0
 10
5.73
 20
3.06
 30
0.0
 42
1
  0
VERTEX
  8
0
 10
5.75
 20
3.06
 30
0.0
 42
1
  0
SEQEND
  0
POLYLINE
  8
0
  6
SOLIDLINE
 62
1
 66
  1
 10
0.0
 20
0.0
 30
0.0
 40
0.03
 41
0.03
 70
1
  0
VERTEX
  8
0
 10
5.73
 20
3.02
 30
0.0
 42
1
  0
VERTEX
  8
0
 10
5.75
 20
3.02
 30
0.0
 42
1
  0
SEQEND
  0
ARC
  8
0
  6
SOLIDLINE
 62
249
 10
5.37
 20
3.06
 40
0.03
 50
108.435
 51
180
  0
LINE
  8
0
  6
SOLIDLINE
 62
249
 10
5.36
 20
3.09
 11
5.74
 21
3.09
  0
ARC
  8
0
  6
SOLIDLINE
 62
249
 10
5.74
 20
3.06
 40
0.03
 50
2.92403e-010
 51
90
  0
LINE
  8
0
  6
SOLIDLINE
 62
249
 10
5.77
 20
3.06
 11
5.77
 21
3.02
  0
ARC
  8
0
  6
SOLIDLINE
 62
249
 10
5.37
 20
3.03
 40
0.04
 50
194.036
 51
255.964
  0
LINE
  8
0
  6
SOLIDLINE
 62
249
 10
5.74
 20
2.99
 11
5.36
 21
2.99
  0
ARC
  8
0
  6
SOLIDLINE
 62
249
 10
5.74
 20
3.03
 40
0.04
 50
270
 51
341.565
  0
LINE
  8
0
  6
SOLIDLINE
 62
249
 10
5.33
 20
3.02
 11
5.33
 21
3.06
  0
TEXT
  8
0
 62
7
 10
5.35
 20
2.99059
 30
0.0
 40
0.04704
  1
560.00mA
 50
0
 41
1.098
 72
0
 11
5.35
 21
2.99059
 31
0
 73
0
  0
LINE
  8
0
  6
SOLIDLINE
 62
249
 10
6.54
 20
2.82
 11
6.46
 21
2.85
  0
LINE
  8
0
  6
SOLIDLINE
 62
249
 10
6.46
 20
2.73
 11
6.54
 21
2.76
  0
LINE
  8
0
  6
SOLIDLINE
 62
249
 10
6.54
 20
2.76
 11
6.46
 21
2.79
  0
LINE
  8
0
  6
SOLIDLINE
 62
249
 10
6.46
 20
2.79
 11
6.54
 21
2.82
  0
LINE
  8
0
  6
SOLIDLINE
 62
249
 10
6.46
 20
2.85
 11
6.54
 21
2.88
  0
LINE
  8
0
  6
SOLIDLINE
 62
249
 10
6.5
 20
2.71
 11
6.46
 21
2.73
  0
LINE
  8
0
  6
SOLIDLINE
 62
249
 10
6.54
 20
2.88
 11
6.5
 21
2.9
  0
LINE
  8
0
  6
SOLIDLINE
 62
249
 10
6.5
 20
2.7
 11
6.5
 21
2.71
  0
LINE
  8
0
  6
SOLIDLINE
 62
5
 10
6.5
 20
3
 11
6.5
 21
2.9
  0
LINE
  8
0
  6
SOLIDLINE
 62
5
 10
6.5
 20
2.6
 11
6.5
 21
2.7
  0
TEXT
  8
0
 62
249
 10
6.58
 20
2.74059
 30
0.0
 40
0.04704
  1
6
 50
0
 41
1.098
 72
0
 11
6.58
 21
2.74059
 31
0
 73
0
  0
TEXT
  8
0
 62
249
 10
6.28
 20
2.74059
 30
0.0
 40
0.04704
  1
R2
 50
0
 41
1.098
 72
0
 11
6.28
 21
2.74059
 31
0
 73
0
  0
SOLID
  8
0
  6
SOLIDLINE
 62
1
 10
6.58
 20
2.58
 30
0.0
 11
6.58
 21
2.54
 31
0.0
 12
7.02
 22
2.58
 32
0.0
 13
7.02
 23
2.54
 33
0.0
  0
SOLID
  8
0
  6
SOLIDLINE
 62
1
 10
6.61
 20
2.61
 30
0.0
 11
6.61
 21
2.51
 31
0.0
 12
6.99
 22
2.61
 32
0.0
 13
6.99
 23
2.51
 33
0.0
  0
POLYLINE
  8
0
  6
SOLIDLINE
 62
1
 66
  1
 10
0.0
 20
0.0
 30
0.0
 40
0.03
 41
0.03
 70
1
  0
VERTEX
  8
0
 10
6.6
 20
2.58
 30
0.0
 42
1
  0
VERTEX
  8
0
 10
6.62
 20
2.58
 30
0.0
 42
1
  0
SEQEND
  0
POLYLINE
  8
0
  6
SOLIDLINE
 62
1
 66
  1
 10
0.0
 20
0.0
 30
0.0
 40
0.03
 41
0.03
 70
1
  0
VERTEX
  8
0
 10
6.6
 20
2.54
 30
0.0
 42
1
  0
VERTEX
  8
0
 10
6.62
 20
2.54
 30
0.0
 42
1
  0
SEQEND
  0
POLYLINE
  8
0
  6
SOLIDLINE
 62
1
 66
  1
 10
0.0
 20
0.0
 30
0.0
 40
0.03
 41
0.03
 70
1
  0
VERTEX
  8
0
 10
6.98
 20
2.58
 30
0.0
 42
1
  0
VERTEX
  8
0
 10
7
 20
2.58
 30
0.0
 42
1
  0
SEQEND
  0
POLYLINE
  8
0
  6
SOLIDLINE
 62
1
 66
  1
 10
0.0
 20
0.0
 30
0.0
 40
0.03
 41
0.03
 70
1
  0
VERTEX
  8
0
 10
6.98
 20
2.54
 30
0.0
 42
1
  0
VERTEX
  8
0
 10
7
 20
2.54
 30
0.0
 42
1
  0
SEQEND
  0
ARC
  8
0
  6
SOLIDLINE
 62
249
 10
6.62
 20
2.58
 40
0.03
 50
108.435
 51
180
  0
LINE
  8
0
  6
SOLIDLINE
 62
249
 10
6.61
 20
2.61
 11
6.99
 21
2.61
  0
ARC
  8
0
  6
SOLIDLINE
 62
249
 10
6.99
 20
2.58
 40
0.03
 50
2.92403e-010
 51
90
  0
LINE
  8
0
  6
SOLIDLINE
 62
249
 10
7.02
 20
2.58
 11
7.02
 21
2.54
  0
ARC
  8
0
  6
SOLIDLINE
 62
249
 10
6.62
 20
2.55
 40
0.04
 50
194.036
 51
255.964
  0
LINE
  8
0
  6
SOLIDLINE
 62
249
 10
6.99
 20
2.51
 11
6.61
 21
2.51
  0
ARC
  8
0
  6
SOLIDLINE
 62
249
 10
6.99
 20
2.55
 40
0.04
 50
270
 51
341.565
  0
LINE
  8
0
  6
SOLIDLINE
 62
249
 10
6.58
 20
2.54
 11
6.58
 21
2.58
  0
TEXT
  8
0
 62
7
 10
6.6
 20
2.54355
 30
0.0
 40
0.04704
  1
560.00mA
 50
0
 41
1.098
 72
0
 11
6.6
 21
2.59059
 31
0
 73
3
  0
LINE
  8
0
  6
SOLIDLINE
 62
249
 10
6.54
 20
3.82
 11
6.46
 21
3.85
  0
LINE
  8
0
  6
SOLIDLINE
 62
249
 10
6.46
 20
3.73
 11
6.54
 21
3.76
  0
LINE
  8
0
  6
SOLIDLINE
 62
249
 10
6.54
 20
3.76
 11
6.46
 21
3.79
  0
LINE
  8
0
  6
SOLIDLINE
 62
249
 10
6.46
 20
3.79
 11
6.54
 21
3.82
  0
LINE
  8
0
  6
SOLIDLINE
 62
249
 10
6.46
 20
3.85
 11
6.54
 21
3.88
  0
LINE
  8
0
  6
SOLIDLINE
 62
249
 10
6.5
 20
3.71
 11
6.46
 21
3.73
  0
LINE
  8
0
  6
SOLIDLINE
 62
249
 10
6.54
 20
3.88
 11
6.5
 21
3.9
  0
LINE
  8
0
  6
SOLIDLINE
 62
249
 10
6.5
 20
3.7
 11
6.5
 21
3.71
  0
LINE
  8
0
  6
SOLIDLINE
 62
5
 10
6.5
 20
4
 11
6.5
 21
3.9
  0
LINE
  8
0
  6
SOLIDLINE
 62
5
 10
6.5
 20
3.6
 11
6.5
 21
3.7
  0
TEXT
  8
0
 62
249
 10
6.58
 20
3.74059
 30
0.0
 40
0.04704
  1
8
 50
0
 41
1.098
 72
0
 11
6.58
 21
3.74059
 31
0
 73
0
  0
TEXT
  8
0
 62
249
 10
6.28
 20
3.74059
 30
0.0
 40
0.04704
  1
R4
 50
0
 41
1.098
 72
0
 11
6.28
 21
3.74059
 31
0
 73
0
  0
SOLID
  8
0
  6
SOLIDLINE
 62
1
 10
6.53
 20
3.63
 30
0.0
 11
6.53
 21
3.59
 31
0.0
 12
6.97
 22
3.63
 32
0.0
 13
6.97
 23
3.59
 33
0.0
  0
SOLID
  8
0
  6
SOLIDLINE
 62
1
 10
6.56
 20
3.66
 30
0.0
 11
6.56
 21
3.56
 31
0.0
 12
6.94
 22
3.66
 32
0.0
 13
6.94
 23
3.56
 33
0.0
  0
POLYLINE
  8
0
  6
SOLIDLINE
 62
1
 66
  1
 10
0.0
 20
0.0
 30
0.0
 40
0.03
 41
0.03
 70
1
  0
VERTEX
  8
0
 10
6.55
 20
3.63
 30
0.0
 42
1
  0
VERTEX
  8
0
 10
6.57
 20
3.63
 30
0.0
 42
1
  0
SEQEND
  0
POLYLINE
  8
0
  6
SOLIDLINE
 62
1
 66
  1
 10
0.0
 20
0.0
 30
0.0
 40
0.03
 41
0.03
 70
1
  0
VERTEX
  8
0
 10
6.55
 20
3.59
 30
0.0
 42
1
  0
VERTEX
  8
0
 10
6.57
 20
3.59
 30
0.0
 42
1
  0
SEQEND
  0
POLYLINE
  8
0
  6
SOLIDLINE
 62
1
 66
  1
 10
0.0
 20
0.0
 30
0.0
 40
0.03
 41
0.03
 70
1
  0
VERTEX
  8
0
 10
6.93
 20
3.63
 30
0.0
 42
1
  0
VERTEX
  8
0
 10
6.95
 20
3.63
 30
0.0
 42
1
  0
SEQEND
  0
POLYLINE
  8
0
  6
SOLIDLINE
 62
1
 66
  1
 10
0.0
 20
0.0
 30
0.0
 40
0.03
 41
0.03
 70
1
  0
VERTEX
  8
0
 10
6.93
 20
3.59
 30
0.0
 42
1
  0
VERTEX
  8
0
 10
6.95
 20
3.59
 30
0.0
 42
1
  0
SEQEND
  0
ARC
  8
0
  6
SOLIDLINE
 62
249
 10
6.57
 20
3.63
 40
0.03
 50
108.435
 51
180
  0
LINE
  8
0
  6
SOLIDLINE
 62
249
 10
6.56
 20
3.66
 11
6.94
 21
3.66
  0
ARC
  8
0
  6
SOLIDLINE
 62
249
 10
6.94
 20
3.63
 40
0.03
 50
2.92403e-010
 51
90
  0
LINE
  8
0
  6
SOLIDLINE
 62
249
 10
6.97
 20
3.63
 11
6.97
 21
3.59
  0
ARC
  8
0
  6
SOLIDLINE
 62
249
 10
6.57
 20
3.6
 40
0.04
 50
194.036
 51
255.964
  0
LINE
  8
0
  6
SOLIDLINE
 62
249
 10
6.94
 20
3.56
 11
6.56
 21
3.56
  0
ARC
  8
0
  6
SOLIDLINE
 62
249
 10
6.94
 20
3.6
 40
0.04
 50
270
 51
341.565
  0
LINE
  8
0
  6
SOLIDLINE
 62
249
 10
6.53
 20
3.59
 11
6.53
 21
3.63
  0
TEXT
  8
0
 62
7
 10
6.55
 20
3.59355
 30
0.0
 40
0.04704
  1
120.00mA
 50
0
 41
1.098
 72
0
 11
6.55
 21
3.64059
 31
0
 73
3
  0
LINE
  8
0
  6
SOLIDLINE
 62
249
 10
5.82
 20
3.26
 11
5.85
 21
3.34
  0
LINE
  8
0
  6
SOLIDLINE
 62
249
 10
5.73
 20
3.34
 11
5.76
 21
3.26
  0
LINE
  8
0
  6
SOLIDLINE
 62
249
 10
5.76
 20
3.26
 11
5.79
 21
3.34
  0
LINE
  8
0
  6
SOLIDLINE
 62
249
 10
5.79
 20
3.34
 11
5.82
 21
3.26
  0
LINE
  8
0
  6
SOLIDLINE
 62
249
 10
5.85
 20
3.34
 11
5.88
 21
3.26
  0
LINE
  8
0
  6
SOLIDLINE
 62
249
 10
5.71
 20
3.3
 11
5.73
 21
3.34
  0
LINE
  8
0
  6
SOLIDLINE
 62
249
 10
5.88
 20
3.26
 11
5.9
 21
3.3
  0
LINE
  8
0
  6
SOLIDLINE
 62
249
 10
5.7
 20
3.3
 11
5.71
 21
3.3
  0
LINE
  8
0
  6
SOLIDLINE
 62
5
 10
6
 20
3.3
 11
5.9
 21
3.3
  0
LINE
  8
0
  6
SOLIDLINE
 62
5
 10
5.6
 20
3.3
 11
5.7
 21
3.3
  0
TEXT
  8
0
 62
249
 10
5.75
 20
3.14059
 30
0.0
 40
0.04704
  1
10
 50
0
 41
1.098
 72
0
 11
5.75
 21
3.14059
 31
0
 73
0
  0
TEXT
  8
0
 62
249
 10
5.75
 20
3.39059
 30
0.0
 40
0.04704
  1
R3
 50
0
 41
1.098
 72
0
 11
5.75
 21
3.39059
 31
0
 73
0
  0
SOLID
  8
0
  6
SOLIDLINE
 62
1
 10
5.98
 20
3.31
 30
0.0
 11
5.98
 21
3.27
 31
0.0
 12
6.42
 22
3.31
 32
0.0
 13
6.42
 23
3.27
 33
0.0
  0
SOLID
  8
0
  6
SOLIDLINE
 62
1
 10
6.01
 20
3.34
 30
0.0
 11
6.01
 21
3.24
 31
0.0
 12
6.39
 22
3.34
 32
0.0
 13
6.39
 23
3.24
 33
0.0
  0
POLYLINE
  8
0
  6
SOLIDLINE
 62
1
 66
  1
 10
0.0
 20
0.0
 30
0.0
 40
0.03
 41
0.03
 70
1
  0
VERTEX
  8
0
 10
6
 20
3.31
 30
0.0
 42
1
  0
VERTEX
  8
0
 10
6.02
 20
3.31
 30
0.0
 42
1
  0
SEQEND
  0
POLYLINE
  8
0
  6
SOLIDLINE
 62
1
 66
  1
 10
0.0
 20
0.0
 30
0.0
 40
0.03
 41
0.03
 70
1
  0
VERTEX
  8
0
 10
6
 20
3.27
 30
0.0
 42
1
  0
VERTEX
  8
0
 10
6.02
 20
3.27
 30
0.0
 42
1
  0
SEQEND
  0
POLYLINE
  8
0
  6
SOLIDLINE
 62
1
 66
  1
 10
0.0
 20
0.0
 30
0.0
 40
0.03
 41
0.03
 70
1
  0
VERTEX
  8
0
 10
6.38
 20
3.31
 30
0.0
 42
1
  0
VERTEX
  8
0
 10
6.4
 20
3.31
 30
0.0
 42
1
  0
SEQEND
  0
POLYLINE
  8
0
  6
SOLIDLINE
 62
1
 66
  1
 10
0.0
 20
0.0
 30
0.0
 40
0.03
 41
0.03
 70
1
  0
VERTEX
  8
0
 10
6.38
 20
3.27
 30
0.0
 42
1
  0
VERTEX
  8
0
 10
6.4
 20
3.27
 30
0.0
 42
1
  0
SEQEND
  0
ARC
  8
0
  6
SOLIDLINE
 62
249
 10
6.02
 20
3.31
 40
0.03
 50
108.435
 51
180
  0
LINE
  8
0
  6
SOLIDLINE
 62
249
 10
6.01
 20
3.34
 11
6.39
 21
3.34
  0
ARC
  8
0
  6
SOLIDLINE
 62
249
 10
6.39
 20
3.31
 40
0.03
 50
2.92403e-010
 51
90
  0
LINE
  8
0
  6
SOLIDLINE
 62
249
 10
6.42
 20
3.31
 11
6.42
 21
3.27
  0
ARC
  8
0
  6
SOLIDLINE
 62
249
 10
6.02
 20
3.28
 40
0.04
 50
194.036
 51
255.964
  0
LINE
  8
0
  6
SOLIDLINE
 62
249
 10
6.39
 20
3.24
 11
6.01
 21
3.24
  0
ARC
  8
0
  6
SOLIDLINE
 62
249
 10
6.39
 20
3.28
 40
0.04
 50
270
 51
341.565
  0
LINE
  8
0
  6
SOLIDLINE
 62
249
 10
5.98
 20
3.27
 11
5.98
 21
3.31
  0
TEXT
  8
0
 62
7
 10
6
 20
3.24059
 30
0.0
 40
0.04704
  1
440.00mA
 50
0
 41
1.098
 72
0
 11
6
 21
3.24059
 31
0
 73
0
  0
LINE
  8
0
  6
SOLIDLINE
 62
249
 10
8.14
 20
3.32
 11
8.06
 21
3.35
  0
LINE
  8
0
  6
SOLIDLINE
 62
249
 10
8.06
 20
3.23
 11
8.14
 21
3.26
  0
LINE
  8
0
  6
SOLIDLINE
 62
249
 10
8.14
 20
3.26
 11
8.06
 21
3.29
  0
LINE
  8
0
  6
SOLIDLINE
 62
249
 10
8.06
 20
3.29
 11
8.14
 21
3.32
  0
LINE
  8
0
  6
SOLIDLINE
 62
249
 10
8.06
 20
3.35
 11
8.14
 21
3.38
  0
LINE
  8
0
  6
SOLIDLINE
 62
249
 10
8.1
 20
3.21
 11
8.06
 21
3.23
  0
LINE
  8
0
  6
SOLIDLINE
 62
249
 10
8.14
 20
3.38
 11
8.1
 21
3.4
  0
LINE
  8
0
  6
SOLIDLINE
 62
249
 10
8.1
 20
3.2
 11
8.1
 21
3.21
  0
LINE
  8
0
  6
SOLIDLINE
 62
5
 10
8.1
 20
3.5
 11
8.1
 21
3.4
  0
LINE
  8
0
  6
SOLIDLINE
 62
5
 10
8.1
 20
3.1
 11
8.1
 21
3.2
  0
TEXT
  8
0
 62
249
 10
8.13
 20
3.24059
 30
0.0
 40
0.04704
  1
12
 50
0
 41
1.098
 72
0
 11
8.13
 21
3.24059
 31
0
 73
0
  0
TEXT
  8
0
 62
249
 10
7.88
 20
3.24059
 30
0.0
 40
0.04704
  1
R6
 50
0
 41
1.098
 72
0
 11
7.88
 21
3.24059
 31
0
 73
0
  0
SOLID
  8
0
  6
SOLIDLINE
 62
1
 10
8.13
 20
3.13
 30
0.0
 11
8.13
 21
3.09
 31
0.0
 12
8.57
 22
3.13
 32
0.0
 13
8.57
 23
3.09
 33
0.0
  0
SOLID
  8
0
  6
SOLIDLINE
 62
1
 10
8.16
 20
3.16
 30
0.0
 11
8.16
 21
3.06
 31
0.0
 12
8.54
 22
3.16
 32
0.0
 13
8.54
 23
3.06
 33
0.0
  0
POLYLINE
  8
0
  6
SOLIDLINE
 62
1
 66
  1
 10
0.0
 20
0.0
 30
0.0
 40
0.03
 41
0.03
 70
1
  0
VERTEX
  8
0
 10
8.15
 20
3.13
 30
0.0
 42
1
  0
VERTEX
  8
0
 10
8.17
 20
3.13
 30
0.0
 42
1
  0
SEQEND
  0
POLYLINE
  8
0
  6
SOLIDLINE
 62
1
 66
  1
 10
0.0
 20
0.0
 30
0.0
 40
0.03
 41
0.03
 70
1
  0
VERTEX
  8
0
 10
8.15
 20
3.09
 30
0.0
 42
1
  0
VERTEX
  8
0
 10
8.17
 20
3.09
 30
0.0
 42
1
  0
SEQEND
  0
POLYLINE
  8
0
  6
SOLIDLINE
 62
1
 66
  1
 10
0.0
 20
0.0
 30
0.0
 40
0.03
 41
0.03
 70
1
  0
VERTEX
  8
0
 10
8.53
 20
3.13
 30
0.0
 42
1
  0
VERTEX
  8
0
 10
8.55
 20
3.13
 30
0.0
 42
1
  0
SEQEND
  0
POLYLINE
  8
0
  6
SOLIDLINE
 62
1
 66
  1
 10
0.0
 20
0.0
 30
0.0
 40
0.03
 41
0.03
 70
1
  0
VERTEX
  8
0
 10
8.53
 20
3.09
 30
0.0
 42
1
  0
VERTEX
  8
0
 10
8.55
 20
3.09
 30
0.0
 42
1
  0
SEQEND
  0
ARC
  8
0
  6
SOLIDLINE
 62
249
 10
8.17
 20
3.13
 40
0.03
 50
108.435
 51
180
  0
LINE
  8
0
  6
SOLIDLINE
 62
249
 10
8.16
 20
3.16
 11
8.54
 21
3.16
  0
ARC
  8
0
  6
SOLIDLINE
 62
249
 10
8.54
 20
3.13
 40
0.03
 50
2.92403e-010
 51
90
  0
LINE
  8
0
  6
SOLIDLINE
 62
249
 10
8.57
 20
3.13
 11
8.57
 21
3.09
  0
ARC
  8
0
  6
SOLIDLINE
 62
249
 10
8.17
 20
3.1
 40
0.04
 50
194.036
 51
255.964
  0
LINE
  8
0
  6
SOLIDLINE
 62
249
 10
8.54
 20
3.06
 11
8.16
 21
3.06
  0
ARC
  8
0
  6
SOLIDLINE
 62
249
 10
8.54
 20
3.1
 40
0.04
 50
270
 51
341.565
  0
LINE
  8
0
  6
SOLIDLINE
 62
249
 10
8.13
 20
3.09
 11
8.13
 21
3.13
  0
TEXT
  8
0
 62
7
 10
8.15
 20
3.09355
 30
0.0
 40
0.04704
  1
500.00mA
 50
0
 41
1.098
 72
0
 11
8.15
 21
3.14059
 31
0
 73
3
  0
CIRCLE
  8
0
  6
SOLIDLINE
 62
5
 10
9.3
 20
3.3
 30
0.0
 40
0.1
  0
LINE
  8
0
  6
SOLIDLINE
 62
5
 10
9.3
 20
3.25
 11
9.25
 21
3.3
  0
LINE
  8
0
  6
SOLIDLINE
 62
5
 10
9.3
 20
3.25
 11
9.35
 21
3.3
  0
LINE
  8
0
  6
SOLIDLINE
 62
5
 10
9.3
 20
3.35
 11
9.3
 21
3.25
  0
LINE
  8
0
  6
SOLIDLINE
 62
5
 10
9.3
 20
3.5
 11
9.3
 21
3.4
  0
TEXT
  8
0
 62
94
 10
9.31103
 20
3.35294
 30
0.0
 40
0.03528
  1
+
 50
0
 41
1.098
 72
1
 11
9.3
 21
3.35294
 31
0
 73
0
  0
LINE
  8
0
  6
SOLIDLINE
 62
5
 10
9.3
 20
3.1
 11
9.3
 21
3.2
  0
TEXT
  8
0
 62
94
 10
9.31103
 20
3.19294
 30
0.0
 40
0.03528
  1
-
 50
0
 41
1.098
 72
1
 11
9.3
 21
3.19294
 31
0
 73
0
  0
TEXT
  8
0
 62
249
 10
9.1382
 20
3.29059
 30
0.0
 40
0.04704
  1
DC=0.5
 50
0
 41
1.098
 72
1
 11
9.05
 21
3.29059
 31
0
 73
0
  0
TEXT
  8
0
 62
249
 10
9.5441
 20
3.24059
 30
0.0
 40
0.04704
  1
IS3
 50
0
 41
1.098
 72
1
 11
9.5
 21
3.24059
 31
0
 73
0
  0
SOLID
  8
0
  6
SOLIDLINE
 62
1
 10
9.33
 20
3.56
 30
0.0
 11
9.33
 21
3.52
 31
0.0
 12
9.77
 22
3.56
 32
0.0
 13
9.77
 23
3.52
 33
0.0
  0
SOLID
  8
0
  6
SOLIDLINE
 62
1
 10
9.36
 20
3.59
 30
0.0
 11
9.36
 21
3.49
 31
0.0
 12
9.74
 22
3.59
 32
0.0
 13
9.74
 23
3.49
 33
0.0
  0
POLYLINE
  8
0
  6
SOLIDLINE
 62
1
 66
  1
 10
0.0
 20
0.0
 30
0.0
 40
0.03
 41
0.03
 70
1
  0
VERTEX
  8
0
 10
9.35
 20
3.56
 30
0.0
 42
1
  0
VERTEX
  8
0
 10
9.37
 20
3.56
 30
0.0
 42
1
  0
SEQEND
  0
POLYLINE
  8
0
  6
SOLIDLINE
 62
1
 66
  1
 10
0.0
 20
0.0
 30
0.0
 40
0.03
 41
0.03
 70
1
  0
VERTEX
  8
0
 10
9.35
 20
3.52
 30
0.0
 42
1
  0
VERTEX
  8
0
 10
9.37
 20
3.52
 30
0.0
 42
1
  0
SEQEND
  0
POLYLINE
  8
0
  6
SOLIDLINE
 62
1
 66
  1
 10
0.0
 20
0.0
 30
0.0
 40
0.03
 41
0.03
 70
1
  0
VERTEX
  8
0
 10
9.73
 20
3.56
 30
0.0
 42
1
  0
VERTEX
  8
0
 10
9.75
 20
3.56
 30
0.0
 42
1
  0
SEQEND
  0
POLYLINE
  8
0
  6
SOLIDLINE
 62
1
 66
  1
 10
0.0
 20
0.0
 30
0.0
 40
0.03
 41
0.03
 70
1
  0
VERTEX
  8
0
 10
9.73
 20
3.52
 30
0.0
 42
1
  0
VERTEX
  8
0
 10
9.75
 20
3.52
 30
0.0
 42
1
  0
SEQEND
  0
ARC
  8
0
  6
SOLIDLINE
 62
249
 10
9.37
 20
3.56
 40
0.03
 50
108.435
 51
180
  0
LINE
  8
0
  6
SOLIDLINE
 62
249
 10
9.36
 20
3.59
 11
9.74
 21
3.59
  0
ARC
  8
0
  6
SOLIDLINE
 62
249
 10
9.74
 20
3.56
 40
0.03
 50
2.92403e-010
 51
90
  0
LINE
  8
0
  6
SOLIDLINE
 62
249
 10
9.77
 20
3.56
 11
9.77
 21
3.52
  0
ARC
  8
0
  6
SOLIDLINE
 62
249
 10
9.37
 20
3.53
 40
0.04
 50
194.036
 51
255.964
  0
LINE
  8
0
  6
SOLIDLINE
 62
249
 10
9.74
 20
3.49
 11
9.36
 21
3.49
  0
ARC
  8
0
  6
SOLIDLINE
 62
249
 10
9.74
 20
3.53
 40
0.04
 50
270
 51
341.565
  0
LINE
  8
0
  6
SOLIDLINE
 62
249
 10
9.33
 20
3.52
 11
9.33
 21
3.56
  0
TEXT
  8
0
 62
7
 10
9.35
 20
3.49059
 30
0.0
 40
0.04704
  1
500.00mA
 50
0
 41
1.098
 72
0
 11
9.35
 21
3.49059
 31
0
 73
0
  0
LINE
  8
0
  6
SOLIDLINE
 62
249
 10
7.34
 20
3.82
 11
7.26
 21
3.85
  0
LINE
  8
0
  6
SOLIDLINE
 62
249
 10
7.26
 20
3.73
 11
7.34
 21
3.76
  0
LINE
  8
0
  6
SOLIDLINE
 62
249
 10
7.34
 20
3.76
 11
7.26
 21
3.79
  0
LINE
  8
0
  6
SOLIDLINE
 62
249
 10
7.26
 20
3.79
 11
7.34
 21
3.82
  0
LINE
  8
0
  6
SOLIDLINE
 62
249
 10
7.26
 20
3.85
 11
7.34
 21
3.88
  0
LINE
  8
0
  6
SOLIDLINE
 62
249
 10
7.3
 20
3.71
 11
7.26
 21
3.73
  0
LINE
  8
0
  6
SOLIDLINE
 62
249
 10
7.34
 20
3.88
 11
7.3
 21
3.9
  0
LINE
  8
0
  6
SOLIDLINE
 62
249
 10
7.3
 20
3.7
 11
7.3
 21
3.71
  0
LINE
  8
0
  6
SOLIDLINE
 62
5
 10
7.3
 20
4
 11
7.3
 21
3.9
  0
LINE
  8
0
  6
SOLIDLINE
 62
5
 10
7.3
 20
3.6
 11
7.3
 21
3.7
  0
TEXT
  8
0
 62
249
 10
7.38
 20
3.74059
 30
0.0
 40
0.04704
  1
5
 50
0
 41
1.098
 72
0
 11
7.38
 21
3.74059
 31
0
 73
0
  0
TEXT
  8
0
 62
249
 10
7.08
 20
3.74059
 30
0.0
 40
0.04704
  1
R5
 50
0
 41
1.098
 72
0
 11
7.08
 21
3.74059
 31
0
 73
0
  0
SOLID
  8
0
  6
SOLIDLINE
 62
1
 10
7.33
 20
3.63
 30
0.0
 11
7.33
 21
3.59
 31
0.0
 12
7.47
 22
3.63
 32
0.0
 13
7.47
 23
3.59
 33
0.0
  0
SOLID
  8
0
  6
SOLIDLINE
 62
1
 10
7.36
 20
3.66
 30
0.0
 11
7.36
 21
3.56
 31
0.0
 12
7.44
 22
3.66
 32
0.0
 13
7.44
 23
3.56
 33
0.0
  0
POLYLINE
  8
0
  6
SOLIDLINE
 62
1
 66
  1
 10
0.0
 20
0.0
 30
0.0
 40
0.03
 41
0.03
 70
1
  0
VERTEX
  8
0
 10
7.35
 20
3.63
 30
0.0
 42
1
  0
VERTEX
  8
0
 10
7.37
 20
3.63
 30
0.0
 42
1
  0
SEQEND
  0
POLYLINE
  8
0
  6
SOLIDLINE
 62
1
 66
  1
 10
0.0
 20
0.0
 30
0.0
 40
0.03
 41
0.03
 70
1
  0
VERTEX
  8
0
 10
7.35
 20
3.59
 30
0.0
 42
1
  0
VERTEX
  8
0
 10
7.37
 20
3.59
 30
0.0
 42
1
  0
SEQEND
  0
POLYLINE
  8
0
  6
SOLIDLINE
 62
1
 66
  1
 10
0.0
 20
0.0
 30
0.0
 40
0.03
 41
0.03
 70
1
  0
VERTEX
  8
0
 10
7.43
 20
3.63
 30
0.0
 42
1
  0
VERTEX
  8
0
 10
7.45
 20
3.63
 30
0.0
 42
1
  0
SEQEND
  0
POLYLINE
  8
0
  6
SOLIDLINE
 62
1
 66
  1
 10
0.0
 20
0.0
 30
0.0
 40
0.03
 41
0.03
 70
1
  0
VERTEX
  8
0
 10
7.43
 20
3.59
 30
0.0
 42
1
  0
VERTEX
  8
0
 10
7.45
 20
3.59
 30
0.0
 42
1
  0
SEQEND
  0
ARC
  8
0
  6
SOLIDLINE
 62
249
 10
7.37
 20
3.63
 40
0.03
 50
108.435
 51
180
  0
LINE
  8
0
  6
SOLIDLINE
 62
249
 10
7.36
 20
3.66
 11
7.44
 21
3.66
  0
ARC
  8
0
  6
SOLIDLINE
 62
249
 10
7.44
 20
3.63
 40
0.03
 50
2.92403e-010
 51
90
  0
LINE
  8
0
  6
SOLIDLINE
 62
249
 10
7.47
 20
3.63
 11
7.47
 21
3.59
  0
ARC
  8
0
  6
SOLIDLINE
 62
249
 10
7.37
 20
3.6
 40
0.04
 50
194.036
 51
255.964
  0
LINE
  8
0
  6
SOLIDLINE
 62
249
 10
7.44
 20
3.56
 11
7.36
 21
3.56
  0
ARC
  8
0
  6
SOLIDLINE
 62
249
 10
7.44
 20
3.6
 40
0.04
 50
270
 51
341.565
  0
LINE
  8
0
  6
SOLIDLINE
 62
249
 10
7.33
 20
3.59
 11
7.33
 21
3.63
  0
TEXT
  8
0
 62
7
 10
7.35
 20
3.59355
 30
0.0
 40
0.04704
  1
0A
 50
0
 41
1.098
 72
0
 11
7.35
 21
3.64059
 31
0
 73
3
  0
LINE
  8
0
  6
SOLIDLINE
 62
249
 10
8.72
 20
4.16
 11
8.75
 21
4.24
  0
LINE
  8
0
  6
SOLIDLINE
 62
249
 10
8.63
 20
4.24
 11
8.66
 21
4.16
  0
LINE
  8
0
  6
SOLIDLINE
 62
249
 10
8.66
 20
4.16
 11
8.69
 21
4.24
  0
LINE
  8
0
  6
SOLIDLINE
 62
249
 10
8.69
 20
4.24
 11
8.72
 21
4.16
  0
LINE
  8
0
  6
SOLIDLINE
 62
249
 10
8.75
 20
4.24
 11
8.78
 21
4.16
  0
LINE
  8
0
  6
SOLIDLINE
 62
249
 10
8.61
 20
4.2
 11
8.63
 21
4.24
  0
LINE
  8
0
  6
SOLIDLINE
 62
249
 10
8.78
 20
4.16
 11
8.8
 21
4.2
  0
LINE
  8
0
  6
SOLIDLINE
 62
249
 10
8.6
 20
4.2
 11
8.61
 21
4.2
  0
LINE
  8
0
  6
SOLIDLINE
 62
5
 10
8.9
 20
4.2
 11
8.8
 21
4.2
  0
LINE
  8
0
  6
SOLIDLINE
 62
5
 10
8.5
 20
4.2
 11
8.6
 21
4.2
  0
TEXT
  8
0
 62
249
 10
8.65
 20
4.04059
 30
0.0
 40
0.04704
  1
20
 50
0
 41
1.098
 72
0
 11
8.65
 21
4.04059
 31
0
 73
0
  0
TEXT
  8
0
 62
249
 10
8.65
 20
4.29059
 30
0.0
 40
0.04704
  1
R7
 50
0
 41
1.098
 72
0
 11
8.65
 21
4.29059
 31
0
 73
0
  0
SOLID
  8
0
  6
SOLIDLINE
 62
1
 10
8.13
 20
4.16
 30
0.0
 11
8.13
 21
4.12
 31
0.0
 12
8.57
 22
4.16
 32
0.0
 13
8.57
 23
4.12
 33
0.0
  0
SOLID
  8
0
  6
SOLIDLINE
 62
1
 10
8.16
 20
4.19
 30
0.0
 11
8.16
 21
4.09
 31
0.0
 12
8.54
 22
4.19
 32
0.0
 13
8.54
 23
4.09
 33
0.0
  0
POLYLINE
  8
0
  6
SOLIDLINE
 62
1
 66
  1
 10
0.0
 20
0.0
 30
0.0
 40
0.03
 41
0.03
 70
1
  0
VERTEX
  8
0
 10
8.15
 20
4.16
 30
0.0
 42
1
  0
VERTEX
  8
0
 10
8.17
 20
4.16
 30
0.0
 42
1
  0
SEQEND
  0
POLYLINE
  8
0
  6
SOLIDLINE
 62
1
 66
  1
 10
0.0
 20
0.0
 30
0.0
 40
0.03
 41
0.03
 70
1
  0
VERTEX
  8
0
 10
8.15
 20
4.12
 30
0.0
 42
1
  0
VERTEX
  8
0
 10
8.17
 20
4.12
 30
0.0
 42
1
  0
SEQEND
  0
POLYLINE
  8
0
  6
SOLIDLINE
 62
1
 66
  1
 10
0.0
 20
0.0
 30
0.0
 40
0.03
 41
0.03
 70
1
  0
VERTEX
  8
0
 10
8.53
 20
4.16
 30
0.0
 42
1
  0
VERTEX
  8
0
 10
8.55
 20
4.16
 30
0.0
 42
1
  0
SEQEND
  0
POLYLINE
  8
0
  6
SOLIDLINE
 62
1
 66
  1
 10
0.0
 20
0.0
 30
0.0
 40
0.03
 41
0.03
 70
1
  0
VERTEX
  8
0
 10
8.53
 20
4.12
 30
0.0
 42
1
  0
VERTEX
  8
0
 10
8.55
 20
4.12
 30
0.0
 42
1
  0
SEQEND
  0
ARC
  8
0
  6
SOLIDLINE
 62
249
 10
8.17
 20
4.16
 40
0.03
 50
108.435
 51
180
  0
LINE
  8
0
  6
SOLIDLINE
 62
249
 10
8.16
 20
4.19
 11
8.54
 21
4.19
  0
ARC
  8
0
  6
SOLIDLINE
 62
249
 10
8.54
 20
4.16
 40
0.03
 50
2.92403e-010
 51
90
  0
LINE
  8
0
  6
SOLIDLINE
 62
249
 10
8.57
 20
4.16
 11
8.57
 21
4.12
  0
ARC
  8
0
  6
SOLIDLINE
 62
249
 10
8.17
 20
4.13
 40
0.04
 50
194.036
 51
255.964
  0
LINE
  8
0
  6
SOLIDLINE
 62
249
 10
8.54
 20
4.09
 11
8.16
 21
4.09
  0
ARC
  8
0
  6
SOLIDLINE
 62
249
 10
8.54
 20
4.13
 40
0.04
 50
270
 51
341.565
  0
LINE
  8
0
  6
SOLIDLINE
 62
249
 10
8.13
 20
4.12
 11
8.13
 21
4.16
  0
TEXT
  8
0
 62
7
 10
8.7852
 20
4.09059
 30
0.0
 40
0.04704
  1
500.00mA
 50
0
 41
1.098
 72
2
 11
8.55
 21
4.09059
 31
0
 73
0
  0
LINE
  8
0
  6
SOLIDLINE
 62
5
 10
7.27
 20
2.18
 11
7.33
 21
2.18
  0
LINE
  8
0
  6
SOLIDLINE
 62
5
 10
7.29
 20
2.16
 11
7.31
 21
2.16
  0
LINE
  8
0
  6
SOLIDLINE
 62
5
 10
7.25
 20
2.2
 11
7.35
 21
2.2
  0
LINE
  8
0
  6
SOLIDLINE
 62
5
 10
7.3
 20
2.3
 11
7.3
 21
2.2
  0
LINE
  8
0
  6
SOLIDLINE
 62
249
 10
5.3
 20
2.6
 11
5.3
 21
2.3
  0
LINE
  8
0
  6
SOLIDLINE
 62
249
 10
5.3
 20
2.3
 11
5.6
 21
2.3
  0
SOLID
  8
0
  6
SOLIDLINE
 62
5
 10
5.28
 20
2.29
 30
0.0
 11
5.28
 21
2.25
 31
0.0
 12
5.62
 22
2.29
 32
0.0
 13
5.62
 23
2.25
 33
0.0
  0
SOLID
  8
0
  6
SOLIDLINE
 62
5
 10
5.31
 20
2.32
 30
0.0
 11
5.31
 21
2.22
 31
0.0
 12
5.59
 22
2.32
 32
0.0
 13
5.59
 23
2.22
 33
0.0
  0
POLYLINE
  8
0
  6
SOLIDLINE
 62
5
 66
  1
 10
0.0
 20
0.0
 30
0.0
 40
0.03
 41
0.03
 70
1
  0
VERTEX
  8
0
 10
5.3
 20
2.29
 30
0.0
 42
1
  0
VERTEX
  8
0
 10
5.32
 20
2.29
 30
0.0
 42
1
  0
SEQEND
  0
POLYLINE
  8
0
  6
SOLIDLINE
 62
5
 66
  1
 10
0.0
 20
0.0
 30
0.0
 40
0.03
 41
0.03
 70
1
  0
VERTEX
  8
0
 10
5.3
 20
2.25
 30
0.0
 42
1
  0
VERTEX
  8
0
 10
5.32
 20
2.25
 30
0.0
 42
1
  0
SEQEND
  0
POLYLINE
  8
0
  6
SOLIDLINE
 62
5
 66
  1
 10
0.0
 20
0.0
 30
0.0
 40
0.03
 41
0.03
 70
1
  0
VERTEX
  8
0
 10
5.58
 20
2.29
 30
0.0
 42
1
  0
VERTEX
  8
0
 10
5.6
 20
2.29
 30
0.0
 42
1
  0
SEQEND
  0
POLYLINE
  8
0
  6
SOLIDLINE
 62
5
 66
  1
 10
0.0
 20
0.0
 30
0.0
 40
0.03
 41
0.03
 70
1
  0
VERTEX
  8
0
 10
5.58
 20
2.25
 30
0.0
 42
1
  0
VERTEX
  8
0
 10
5.6
 20
2.25
 30
0.0
 42
1
  0
SEQEND
  0
ARC
  8
0
  6
SOLIDLINE
 62
249
 10
5.32
 20
2.29
 40
0.03
 50
108.435
 51
180
  0
LINE
  8
0
  6
SOLIDLINE
 62
249
 10
5.31
 20
2.32
 11
5.59
 21
2.32
  0
ARC
  8
0
  6
SOLIDLINE
 62
249
 10
5.59
 20
2.29
 40
0.03
 50
2.92403e-010
 51
90
  0
LINE
  8
0
  6
SOLIDLINE
 62
249
 10
5.62
 20
2.29
 11
5.62
 21
2.25
  0
ARC
  8
0
  6
SOLIDLINE
 62
249
 10
5.32
 20
2.26
 40
0.04
 50
194.036
 51
255.964
  0
LINE
  8
0
  6
SOLIDLINE
 62
249
 10
5.59
 20
2.22
 11
5.31
 21
2.22
  0
ARC
  8
0
  6
SOLIDLINE
 62
249
 10
5.59
 20
2.26
 40
0.04
 50
270
 51
341.565
  0
LINE
  8
0
  6
SOLIDLINE
 62
249
 10
5.28
 20
2.25
 11
5.28
 21
2.29
  0
TEXT
  8
0
 62
7
 10
5.5382
 20
2.25355
 30
0.0
 40
0.04704
  1
2.240V
 50
0
 41
1.098
 72
1
 11
5.45
 21
2.30059
 31
0
 73
3
  0
LINE
  8
0
  6
SOLIDLINE
 62
249
 10
6
 20
2.3
 11
6.5
 21
2.3
  0
LINE
  8
0
  6
SOLIDLINE
 62
249
 10
8.1
 20
2.3
 11
9.3
 21
2.3
  0
SOLID
  8
0
  6
SOLIDLINE
 62
5
 10
8.63
 20
2.29
 30
0.0
 11
8.63
 21
2.25
 31
0.0
 12
8.77
 22
2.29
 32
0.0
 13
8.77
 23
2.25
 33
0.0
  0
SOLID
  8
0
  6
SOLIDLINE
 62
5
 10
8.66
 20
2.32
 30
0.0
 11
8.66
 21
2.22
 31
0.0
 12
8.74
 22
2.32
 32
0.0
 13
8.74
 23
2.22
 33
0.0
  0
POLYLINE
  8
0
  6
SOLIDLINE
 62
5
 66
  1
 10
0.0
 20
0.0
 30
0.0
 40
0.03
 41
0.03
 70
1
  0
VERTEX
  8
0
 10
8.65
 20
2.29
 30
0.0
 42
1
  0
VERTEX
  8
0
 10
8.67
 20
2.29
 30
0.0
 42
1
  0
SEQEND
  0
POLYLINE
  8
0
  6
SOLIDLINE
 62
5
 66
  1
 10
0.0
 20
0.0
 30
0.0
 40
0.03
 41
0.03
 70
1
  0
VERTEX
  8
0
 10
8.65
 20
2.25
 30
0.0
 42
1
  0
VERTEX
  8
0
 10
8.67
 20
2.25
 30
0.0
 42
1
  0
SEQEND
  0
POLYLINE
  8
0
  6
SOLIDLINE
 62
5
 66
  1
 10
0.0
 20
0.0
 30
0.0
 40
0.03
 41
0.03
 70
1
  0
VERTEX
  8
0
 10
8.73
 20
2.29
 30
0.0
 42
1
  0
VERTEX
  8
0
 10
8.75
 20
2.29
 30
0.0
 42
1
  0
SEQEND
  0
POLYLINE
  8
0
  6
SOLIDLINE
 62
5
 66
  1
 10
0.0
 20
0.0
 30
0.0
 40
0.03
 41
0.03
 70
1
  0
VERTEX
  8
0
 10
8.73
 20
2.25
 30
0.0
 42
1
  0
VERTEX
  8
0
 10
8.75
 20
2.25
 30
0.0
 42
1
  0
SEQEND
  0
ARC
  8
0
  6
SOLIDLINE
 62
249
 10
8.67
 20
2.29
 40
0.03
 50
108.435
 51
180
  0
LINE
  8
0
  6
SOLIDLINE
 62
249
 10
8.66
 20
2.32
 11
8.74
 21
2.32
  0
ARC
  8
0
  6
SOLIDLINE
 62
249
 10
8.74
 20
2.29
 40
0.03
 50
2.92403e-010
 51
90
  0
LINE
  8
0
  6
SOLIDLINE
 62
249
 10
8.77
 20
2.29
 11
8.77
 21
2.25
  0
ARC
  8
0
  6
SOLIDLINE
 62
249
 10
8.67
 20
2.26
 40
0.04
 50
194.036
 51
255.964
  0
LINE
  8
0
  6
SOLIDLINE
 62
249
 10
8.74
 20
2.22
 11
8.66
 21
2.22
  0
ARC
  8
0
  6
SOLIDLINE
 62
249
 10
8.74
 20
2.26
 40
0.04
 50
270
 51
341.565
  0
LINE
  8
0
  6
SOLIDLINE
 62
249
 10
8.63
 20
2.25
 11
8.63
 21
2.29
  0
TEXT
  8
0
 62
7
 10
8.7294
 20
2.25355
 30
0.0
 40
0.04704
  1
0V
 50
0
 41
1.098
 72
1
 11
8.7
 21
2.30059
 31
0
 73
3
  0
LINE
  8
0
  6
SOLIDLINE
 62
249
 10
8.1
 20
3.1
 11
8.1
 21
2.3
  0
LINE
  8
0
  6
SOLIDLINE
 62
249
 10
9.3
 20
2.3
 11
9.3
 21
3.1
  0
LINE
  8
0
  6
SOLIDLINE
 62
249
 10
7.3
 20
2.3
 11
8.1
 21
2.3
  0
LINE
  8
0
  6
SOLIDLINE
 62
249
 10
7.3
 20
2.7
 11
7.3
 21
2.3
  0
LINE
  8
0
  6
SOLIDLINE
 62
249
 10
6.5
 20
2.3
 11
7.3
 21
2.3
  0
LINE
  8
0
  6
SOLIDLINE
 62
249
 10
6.5
 20
2.6
 11
6.5
 21
2.3
  0
LINE
  8
0
  6
SOLIDLINE
 62
249
 10
7.3
 20
4
 11
7.3
 21
4.2
  0
LINE
  8
0
  6
SOLIDLINE
 62
249
 10
7.3
 20
4.2
 11
7.1
 21
4.2
  0
LINE
  8
0
  6
SOLIDLINE
 62
249
 10
7.3
 20
4.2
 11
7.5
 21
4.2
  0
SOLID
  8
0
  6
SOLIDLINE
 62
5
 10
7.11
 20
4.34
 30
0.0
 11
7.11
 21
4.3
 31
0.0
 12
7.5
 22
4.34
 32
0.0
 13
7.5
 23
4.3
 33
0.0
  0
SOLID
  8
0
  6
SOLIDLINE
 62
5
 10
7.14
 20
4.37
 30
0.0
 11
7.14
 21
4.27
 31
0.0
 12
7.47
 22
4.37
 32
0.0
 13
7.47
 23
4.27
 33
0.0
  0
POLYLINE
  8
0
  6
SOLIDLINE
 62
5
 66
  1
 10
0.0
 20
0.0
 30
0.0
 40
0.03
 41
0.03
 70
1
  0
VERTEX
  8
0
 10
7.13
 20
4.34
 30
0.0
 42
1
  0
VERTEX
  8
0
 10
7.15
 20
4.34
 30
0.0
 42
1
  0
SEQEND
  0
POLYLINE
  8
0
  6
SOLIDLINE
 62
5
 66
  1
 10
0.0
 20
0.0
 30
0.0
 40
0.03
 41
0.03
 70
1
  0
VERTEX
  8
0
 10
7.13
 20
4.3
 30
0.0
 42
1
  0
VERTEX
  8
0
 10
7.15
 20
4.3
 30
0.0
 42
1
  0
SEQEND
  0
POLYLINE
  8
0
  6
SOLIDLINE
 62
5
 66
  1
 10
0.0
 20
0.0
 30
0.0
 40
0.03
 41
0.03
 70
1
  0
VERTEX
  8
0
 10
7.46
 20
4.34
 30
0.0
 42
1
  0
VERTEX
  8
0
 10
7.48
 20
4.34
 30
0.0
 42
1
  0
SEQEND
  0
POLYLINE
  8
0
  6
SOLIDLINE
 62
5
 66
  1
 10
0.0
 20
0.0
 30
0.0
 40
0.03
 41
0.03
 70
1
  0
VERTEX
  8
0
 10
7.46
 20
4.3
 30
0.0
 42
1
  0
VERTEX
  8
0
 10
7.48
 20
4.3
 30
0.0
 42
1
  0
SEQEND
  0
ARC
  8
0
  6
SOLIDLINE
 62
249
 10
7.15
 20
4.34
 40
0.03
 50
108.435
 51
180
  0
LINE
  8
0
  6
SOLIDLINE
 62
249
 10
7.14
 20
4.37
 11
7.47
 21
4.37
  0
ARC
  8
0
  6
SOLIDLINE
 62
249
 10
7.47
 20
4.34
 40
0.03
 50
2.92403e-010
 51
90
  0
LINE
  8
0
  6
SOLIDLINE
 62
249
 10
7.5
 20
4.34
 11
7.5
 21
4.3
  0
ARC
  8
0
  6
SOLIDLINE
 62
249
 10
7.15
 20
4.31
 40
0.04
 50
194.036
 51
255.964
  0
LINE
  8
0
  6
SOLIDLINE
 62
249
 10
7.47
 20
4.27
 11
7.14
 21
4.27
  0
ARC
  8
0
  6
SOLIDLINE
 62
249
 10
7.47
 20
4.31
 40
0.04
 50
270
 51
341.565
  0
LINE
  8
0
  6
SOLIDLINE
 62
249
 10
7.11
 20
4.3
 11
7.11
 21
4.34
  0
TEXT
  8
0
 62
7
 10
7.4029
 20
4.30355
 30
0.0
 40
0.04704
  1
-4.320V
 50
0
 41
1.098
 72
1
 11
7.3
 21
4.35059
 31
0
 73
3
  0
LINE
  8
0
  6
SOLIDLINE
 62
249
 10
6.5
 20
4
 11
6.5
 21
4.2
  0
LINE
  8
0
  6
SOLIDLINE
 62
249
 10
6.5
 20
4.2
 11
6
 21
4.2
  0
SOLID
  8
0
  6
SOLIDLINE
 62
5
 10
6.11
 20
4.14
 30
0.0
 11
6.11
 21
4.1
 31
0.0
 12
6.5
 22
4.14
 32
0.0
 13
6.5
 23
4.1
 33
0.0
  0
SOLID
  8
0
  6
SOLIDLINE
 62
5
 10
6.14
 20
4.17
 30
0.0
 11
6.14
 21
4.07
 31
0.0
 12
6.47
 22
4.17
 32
0.0
 13
6.47
 23
4.07
 33
0.0
  0
POLYLINE
  8
0
  6
SOLIDLINE
 62
5
 66
  1
 10
0.0
 20
0.0
 30
0.0
 40
0.03
 41
0.03
 70
1
  0
VERTEX
  8
0
 10
6.13
 20
4.14
 30
0.0
 42
1
  0
VERTEX
  8
0
 10
6.15
 20
4.14
 30
0.0
 42
1
  0
SEQEND
  0
POLYLINE
  8
0
  6
SOLIDLINE
 62
5
 66
  1
 10
0.0
 20
0.0
 30
0.0
 40
0.03
 41
0.03
 70
1
  0
VERTEX
  8
0
 10
6.13
 20
4.1
 30
0.0
 42
1
  0
VERTEX
  8
0
 10
6.15
 20
4.1
 30
0.0
 42
1
  0
SEQEND
  0
POLYLINE
  8
0
  6
SOLIDLINE
 62
5
 66
  1
 10
0.0
 20
0.0
 30
0.0
 40
0.03
 41
0.03
 70
1
  0
VERTEX
  8
0
 10
6.46
 20
4.14
 30
0.0
 42
1
  0
VERTEX
  8
0
 10
6.48
 20
4.14
 30
0.0
 42
1
  0
SEQEND
  0
POLYLINE
  8
0
  6
SOLIDLINE
 62
5
 66
  1
 10
0.0
 20
0.0
 30
0.0
 40
0.03
 41
0.03
 70
1
  0
VERTEX
  8
0
 10
6.46
 20
4.1
 30
0.0
 42
1
  0
VERTEX
  8
0
 10
6.48
 20
4.1
 30
0.0
 42
1
  0
SEQEND
  0
ARC
  8
0
  6
SOLIDLINE
 62
249
 10
6.15
 20
4.14
 40
0.03
 50
108.435
 51
180
  0
LINE
  8
0
  6
SOLIDLINE
 62
249
 10
6.14
 20
4.17
 11
6.47
 21
4.17
  0
ARC
  8
0
  6
SOLIDLINE
 62
249
 10
6.47
 20
4.14
 40
0.03
 50
2.92403e-010
 51
90
  0
LINE
  8
0
  6
SOLIDLINE
 62
249
 10
6.5
 20
4.14
 11
6.5
 21
4.1
  0
ARC
  8
0
  6
SOLIDLINE
 62
249
 10
6.15
 20
4.11
 40
0.04
 50
194.036
 51
255.964
  0
LINE
  8
0
  6
SOLIDLINE
 62
249
 10
6.47
 20
4.07
 11
6.14
 21
4.07
  0
ARC
  8
0
  6
SOLIDLINE
 62
249
 10
6.47
 20
4.11
 40
0.04
 50
270
 51
341.565
  0
LINE
  8
0
  6
SOLIDLINE
 62
249
 10
6.11
 20
4.1
 11
6.11
 21
4.14
  0
TEXT
  8
0
 62
7
 10
6.4029
 20
4.10355
 30
0.0
 40
0.04704
  1
-4.320V
 50
0
 41
1.098
 72
1
 11
6.3
 21
4.15059
 31
0
 73
3
  0
LINE
  8
0
  6
SOLIDLINE
 62
249
 10
6.5
 20
4.2
 11
6.7
 21
4.2
  0
LINE
  8
0
  6
SOLIDLINE
 62
249
 10
6.5
 20
3.3
 11
6.5
 21
3.6
  0
LINE
  8
0
  6
SOLIDLINE
 62
249
 10
6
 20
3.3
 11
6.5
 21
3.3
  0
SOLID
  8
0
  6
SOLIDLINE
 62
5
 10
6.06
 20
3.09
 30
0.0
 11
6.06
 21
3.05
 31
0.0
 12
6.45
 22
3.09
 32
0.0
 13
6.45
 23
3.05
 33
0.0
  0
SOLID
  8
0
  6
SOLIDLINE
 62
5
 10
6.09
 20
3.12
 30
0.0
 11
6.09
 21
3.02
 31
0.0
 12
6.42
 22
3.12
 32
0.0
 13
6.42
 23
3.02
 33
0.0
  0
POLYLINE
  8
0
  6
SOLIDLINE
 62
5
 66
  1
 10
0.0
 20
0.0
 30
0.0
 40
0.03
 41
0.03
 70
1
  0
VERTEX
  8
0
 10
6.08
 20
3.09
 30
0.0
 42
1
  0
VERTEX
  8
0
 10
6.1
 20
3.09
 30
0.0
 42
1
  0
SEQEND
  0
POLYLINE
  8
0
  6
SOLIDLINE
 62
5
 66
  1
 10
0.0
 20
0.0
 30
0.0
 40
0.03
 41
0.03
 70
1
  0
VERTEX
  8
0
 10
6.08
 20
3.05
 30
0.0
 42
1
  0
VERTEX
  8
0
 10
6.1
 20
3.05
 30
0.0
 42
1
  0
SEQEND
  0
POLYLINE
  8
0
  6
SOLIDLINE
 62
5
 66
  1
 10
0.0
 20
0.0
 30
0.0
 40
0.03
 41
0.03
 70
1
  0
VERTEX
  8
0
 10
6.41
 20
3.09
 30
0.0
 42
1
  0
VERTEX
  8
0
 10
6.43
 20
3.09
 30
0.0
 42
1
  0
SEQEND
  0
POLYLINE
  8
0
  6
SOLIDLINE
 62
5
 66
  1
 10
0.0
 20
0.0
 30
0.0
 40
0.03
 41
0.03
 70
1
  0
VERTEX
  8
0
 10
6.41
 20
3.05
 30
0.0
 42
1
  0
VERTEX
  8
0
 10
6.43
 20
3.05
 30
0.0
 42
1
  0
SEQEND
  0
ARC
  8
0
  6
SOLIDLINE
 62
249
 10
6.1
 20
3.09
 40
0.03
 50
108.435
 51
180
  0
LINE
  8
0
  6
SOLIDLINE
 62
249
 10
6.09
 20
3.12
 11
6.42
 21
3.12
  0
ARC
  8
0
  6
SOLIDLINE
 62
249
 10
6.42
 20
3.09
 40
0.03
 50
2.92403e-010
 51
90
  0
LINE
  8
0
  6
SOLIDLINE
 62
249
 10
6.45
 20
3.09
 11
6.45
 21
3.05
  0
ARC
  8
0
  6
SOLIDLINE
 62
249
 10
6.1
 20
3.06
 40
0.04
 50
194.036
 51
255.964
  0
LINE
  8
0
  6
SOLIDLINE
 62
249
 10
6.42
 20
3.02
 11
6.09
 21
3.02
  0
ARC
  8
0
  6
SOLIDLINE
 62
249
 10
6.42
 20
3.06
 40
0.04
 50
270
 51
341.565
  0
LINE
  8
0
  6
SOLIDLINE
 62
249
 10
6.06
 20
3.05
 11
6.06
 21
3.09
  0
TEXT
  8
0
 62
7
 10
6.3529
 20
3.05355
 30
0.0
 40
0.04704
  1
-3.360V
 50
0
 41
1.098
 72
1
 11
6.25
 21
3.10059
 31
0
 73
3
  0
LINE
  8
0
  6
SOLIDLINE
 62
249
 10
6.5
 20
3
 11
6.5
 21
3.3
  0
LINE
  8
0
  6
SOLIDLINE
 62
249
 10
7.3
 20
3
 11
7.3
 21
3.6
  0
SOLID
  8
0
  6
SOLIDLINE
 62
5
 10
7.35
 20
3.28
 30
0.0
 11
7.35
 21
3.24
 31
0.0
 12
7.74
 22
3.28
 32
0.0
 13
7.74
 23
3.24
 33
0.0
  0
SOLID
  8
0
  6
SOLIDLINE
 62
5
 10
7.38
 20
3.31
 30
0.0
 11
7.38
 21
3.21
 31
0.0
 12
7.71
 22
3.31
 32
0.0
 13
7.71
 23
3.21
 33
0.0
  0
POLYLINE
  8
0
  6
SOLIDLINE
 62
5
 66
  1
 10
0.0
 20
0.0
 30
0.0
 40
0.03
 41
0.03
 70
1
  0
VERTEX
  8
0
 10
7.37
 20
3.28
 30
0.0
 42
1
  0
VERTEX
  8
0
 10
7.39
 20
3.28
 30
0.0
 42
1
  0
SEQEND
  0
POLYLINE
  8
0
  6
SOLIDLINE
 62
5
 66
  1
 10
0.0
 20
0.0
 30
0.0
 40
0.03
 41
0.03
 70
1
  0
VERTEX
  8
0
 10
7.37
 20
3.24
 30
0.0
 42
1
  0
VERTEX
  8
0
 10
7.39
 20
3.24
 30
0.0
 42
1
  0
SEQEND
  0
POLYLINE
  8
0
  6
SOLIDLINE
 62
5
 66
  1
 10
0.0
 20
0.0
 30
0.0
 40
0.03
 41
0.03
 70
1
  0
VERTEX
  8
0
 10
7.7
 20
3.28
 30
0.0
 42
1
  0
VERTEX
  8
0
 10
7.72
 20
3.28
 30
0.0
 42
1
  0
SEQEND
  0
POLYLINE
  8
0
  6
SOLIDLINE
 62
5
 66
  1
 10
0.0
 20
0.0
 30
0.0
 40
0.03
 41
0.03
 70
1
  0
VERTEX
  8
0
 10
7.7
 20
3.24
 30
0.0
 42
1
  0
VERTEX
  8
0
 10
7.72
 20
3.24
 30
0.0
 42
1
  0
SEQEND
  0
ARC
  8
0
  6
SOLIDLINE
 62
249
 10
7.39
 20
3.28
 40
0.03
 50
108.435
 51
180
  0
LINE
  8
0
  6
SOLIDLINE
 62
249
 10
7.38
 20
3.31
 11
7.71
 21
3.31
  0
ARC
  8
0
  6
SOLIDLINE
 62
249
 10
7.71
 20
3.28
 40
0.03
 50
2.92403e-010
 51
90
  0
LINE
  8
0
  6
SOLIDLINE
 62
249
 10
7.74
 20
3.28
 11
7.74
 21
3.24
  0
ARC
  8
0
  6
SOLIDLINE
 62
249
 10
7.39
 20
3.25
 40
0.04
 50
194.036
 51
255.964
  0
LINE
  8
0
  6
SOLIDLINE
 62
249
 10
7.71
 20
3.21
 11
7.38
 21
3.21
  0
ARC
  8
0
  6
SOLIDLINE
 62
249
 10
7.71
 20
3.25
 40
0.04
 50
270
 51
341.565
  0
LINE
  8
0
  6
SOLIDLINE
 62
249
 10
7.35
 20
3.24
 11
7.35
 21
3.28
  0
TEXT
  8
0
 62
7
 10
7.37
 20
3.24355
 30
0.0
 40
0.04704
  1
-4.320V
 50
0
 41
1.098
 72
0
 11
7.37
 21
3.29059
 31
0
 73
3
  0
LINE
  8
0
  6
SOLIDLINE
 62
249
 10
9.3
 20
4.2
 11
8.9
 21
4.2
  0
LINE
  8
0
  6
SOLIDLINE
 62
249
 10
9.3
 20
3.5
 11
9.3
 21
4.2
  0
SOLID
  8
0
  6
SOLIDLINE
 62
5
 10
9.35
 20
3.83
 30
0.0
 11
9.35
 21
3.79
 31
0.0
 12
9.74
 22
3.83
 32
0.0
 13
9.74
 23
3.79
 33
0.0
  0
SOLID
  8
0
  6
SOLIDLINE
 62
5
 10
9.38
 20
3.86
 30
0.0
 11
9.38
 21
3.76
 31
0.0
 12
9.71
 22
3.86
 32
0.0
 13
9.71
 23
3.76
 33
0.0
  0
POLYLINE
  8
0
  6
SOLIDLINE
 62
5
 66
  1
 10
0.0
 20
0.0
 30
0.0
 40
0.03
 41
0.03
 70
1
  0
VERTEX
  8
0
 10
9.37
 20
3.83
 30
0.0
 42
1
  0
VERTEX
  8
0
 10
9.39
 20
3.83
 30
0.0
 42
1
  0
SEQEND
  0
POLYLINE
  8
0
  6
SOLIDLINE
 62
5
 66
  1
 10
0.0
 20
0.0
 30
0.0
 40
0.03
 41
0.03
 70
1
  0
VERTEX
  8
0
 10
9.37
 20
3.79
 30
0.0
 42
1
  0
VERTEX
  8
0
 10
9.39
 20
3.79
 30
0.0
 42
1
  0
SEQEND
  0
POLYLINE
  8
0
  6
SOLIDLINE
 62
5
 66
  1
 10
0.0
 20
0.0
 30
0.0
 40
0.03
 41
0.03
 70
1
  0
VERTEX
  8
0
 10
9.7
 20
3.83
 30
0.0
 42
1
  0
VERTEX
  8
0
 10
9.72
 20
3.83
 30
0.0
 42
1
  0
SEQEND
  0
POLYLINE
  8
0
  6
SOLIDLINE
 62
5
 66
  1
 10
0.0
 20
0.0
 30
0.0
 40
0.03
 41
0.03
 70
1
  0
VERTEX
  8
0
 10
9.7
 20
3.79
 30
0.0
 42
1
  0
VERTEX
  8
0
 10
9.72
 20
3.79
 30
0.0
 42
1
  0
SEQEND
  0
ARC
  8
0
  6
SOLIDLINE
 62
249
 10
9.39
 20
3.83
 40
0.03
 50
108.435
 51
180
  0
LINE
  8
0
  6
SOLIDLINE
 62
249
 10
9.38
 20
3.86
 11
9.71
 21
3.86
  0
ARC
  8
0
  6
SOLIDLINE
 62
249
 10
9.71
 20
3.83
 40
0.03
 50
2.92403e-010
 51
90
  0
LINE
  8
0
  6
SOLIDLINE
 62
249
 10
9.74
 20
3.83
 11
9.74
 21
3.79
  0
ARC
  8
0
  6
SOLIDLINE
 62
249
 10
9.39
 20
3.8
 40
0.04
 50
194.036
 51
255.964
  0
LINE
  8
0
  6
SOLIDLINE
 62
249
 10
9.71
 20
3.76
 11
9.38
 21
3.76
  0
ARC
  8
0
  6
SOLIDLINE
 62
249
 10
9.71
 20
3.8
 40
0.04
 50
270
 51
341.565
  0
LINE
  8
0
  6
SOLIDLINE
 62
249
 10
9.35
 20
3.79
 11
9.35
 21
3.83
  0
TEXT
  8
0
 62
7
 10
9.37
 20
3.79355
 30
0.0
 40
0.04704
  1
-16.00V
 50
0
 41
1.098
 72
0
 11
9.37
 21
3.84059
 31
0
 73
3
  0
LINE
  8
0
  6
SOLIDLINE
 62
249
 10
8.5
 20
4.2
 11
8.1
 21
4.2
  0
LINE
  8
0
  6
SOLIDLINE
 62
249
 10
8.1
 20
4.2
 11
7.9
 21
4.2
  0
LINE
  8
0
  6
SOLIDLINE
 62
249
 10
8.1
 20
4.2
 11
8.1
 21
3.5
  0
SOLID
  8
0
  6
SOLIDLINE
 62
5
 10
8.15
 20
3.83
 30
0.0
 11
8.15
 21
3.79
 31
0.0
 12
8.54
 22
3.83
 32
0.0
 13
8.54
 23
3.79
 33
0.0
  0
SOLID
  8
0
  6
SOLIDLINE
 62
5
 10
8.18
 20
3.86
 30
0.0
 11
8.18
 21
3.76
 31
0.0
 12
8.51
 22
3.86
 32
0.0
 13
8.51
 23
3.76
 33
0.0
  0
POLYLINE
  8
0
  6
SOLIDLINE
 62
5
 66
  1
 10
0.0
 20
0.0
 30
0.0
 40
0.03
 41
0.03
 70
1
  0
VERTEX
  8
0
 10
8.17
 20
3.83
 30
0.0
 42
1
  0
VERTEX
  8
0
 10
8.19
 20
3.83
 30
0.0
 42
1
  0
SEQEND
  0
POLYLINE
  8
0
  6
SOLIDLINE
 62
5
 66
  1
 10
0.0
 20
0.0
 30
0.0
 40
0.03
 41
0.03
 70
1
  0
VERTEX
  8
0
 10
8.17
 20
3.79
 30
0.0
 42
1
  0
VERTEX
  8
0
 10
8.19
 20
3.79
 30
0.0
 42
1
  0
SEQEND
  0
POLYLINE
  8
0
  6
SOLIDLINE
 62
5
 66
  1
 10
0.0
 20
0.0
 30
0.0
 40
0.03
 41
0.03
 70
1
  0
VERTEX
  8
0
 10
8.5
 20
3.83
 30
0.0
 42
1
  0
VERTEX
  8
0
 10
8.52
 20
3.83
 30
0.0
 42
1
  0
SEQEND
  0
POLYLINE
  8
0
  6
SOLIDLINE
 62
5
 66
  1
 10
0.0
 20
0.0
 30
0.0
 40
0.03
 41
0.03
 70
1
  0
VERTEX
  8
0
 10
8.5
 20
3.79
 30
0.0
 42
1
  0
VERTEX
  8
0
 10
8.52
 20
3.79
 30
0.0
 42
1
  0
SEQEND
  0
ARC
  8
0
  6
SOLIDLINE
 62
249
 10
8.19
 20
3.83
 40
0.03
 50
108.435
 51
180
  0
LINE
  8
0
  6
SOLIDLINE
 62
249
 10
8.18
 20
3.86
 11
8.51
 21
3.86
  0
ARC
  8
0
  6
SOLIDLINE
 62
249
 10
8.51
 20
3.83
 40
0.03
 50
2.92403e-010
 51
90
  0
LINE
  8
0
  6
SOLIDLINE
 62
249
 10
8.54
 20
3.83
 11
8.54
 21
3.79
  0
ARC
  8
0
  6
SOLIDLINE
 62
249
 10
8.19
 20
3.8
 40
0.04
 50
194.036
 51
255.964
  0
LINE
  8
0
  6
SOLIDLINE
 62
249
 10
8.51
 20
3.76
 11
8.18
 21
3.76
  0
ARC
  8
0
  6
SOLIDLINE
 62
249
 10
8.51
 20
3.8
 40
0.04
 50
270
 51
341.565
  0
LINE
  8
0
  6
SOLIDLINE
 62
249
 10
8.15
 20
3.79
 11
8.15
 21
3.83
  0
TEXT
  8
0
 62
7
 10
8.17
 20
3.79355
 30
0.0
 40
0.04704
  1
-6.000V
 50
0
 41
1.098
 72
0
 11
8.17
 21
3.84059
 31
0
 73
3
  0
LINE
  8
0
  6
SOLIDLINE
 62
249
 10
5.3
 20
4.2
 11
5.3
 21
3.3
  0
SOLID
  8
0
  6
SOLIDLINE
 62
5
 10
5.35
 20
3.73
 30
0.0
 11
5.35
 21
3.69
 31
0.0
 12
5.74
 22
3.73
 32
0.0
 13
5.74
 23
3.69
 33
0.0
  0
SOLID
  8
0
  6
SOLIDLINE
 62
5
 10
5.38
 20
3.76
 30
0.0
 11
5.38
 21
3.66
 31
0.0
 12
5.71
 22
3.76
 32
0.0
 13
5.71
 23
3.66
 33
0.0
  0
POLYLINE
  8
0
  6
SOLIDLINE
 62
5
 66
  1
 10
0.0
 20
0.0
 30
0.0
 40
0.03
 41
0.03
 70
1
  0
VERTEX
  8
0
 10
5.37
 20
3.73
 30
0.0
 42
1
  0
VERTEX
  8
0
 10
5.39
 20
3.73
 30
0.0
 42
1
  0
SEQEND
  0
POLYLINE
  8
0
  6
SOLIDLINE
 62
5
 66
  1
 10
0.0
 20
0.0
 30
0.0
 40
0.03
 41
0.03
 70
1
  0
VERTEX
  8
0
 10
5.37
 20
3.69
 30
0.0
 42
1
  0
VERTEX
  8
0
 10
5.39
 20
3.69
 30
0.0
 42
1
  0
SEQEND
  0
POLYLINE
  8
0
  6
SOLIDLINE
 62
5
 66
  1
 10
0.0
 20
0.0
 30
0.0
 40
0.03
 41
0.03
 70
1
  0
VERTEX
  8
0
 10
5.7
 20
3.73
 30
0.0
 42
1
  0
VERTEX
  8
0
 10
5.72
 20
3.73
 30
0.0
 42
1
  0
SEQEND
  0
POLYLINE
  8
0
  6
SOLIDLINE
 62
5
 66
  1
 10
0.0
 20
0.0
 30
0.0
 40
0.03
 41
0.03
 70
1
  0
VERTEX
  8
0
 10
5.7
 20
3.69
 30
0.0
 42
1
  0
VERTEX
  8
0
 10
5.72
 20
3.69
 30
0.0
 42
1
  0
SEQEND
  0
ARC
  8
0
  6
SOLIDLINE
 62
249
 10
5.39
 20
3.73
 40
0.03
 50
108.435
 51
180
  0
LINE
  8
0
  6
SOLIDLINE
 62
249
 10
5.38
 20
3.76
 11
5.71
 21
3.76
  0
ARC
  8
0
  6
SOLIDLINE
 62
249
 10
5.71
 20
3.73
 40
0.03
 50
2.92403e-010
 51
90
  0
LINE
  8
0
  6
SOLIDLINE
 62
249
 10
5.74
 20
3.73
 11
5.74
 21
3.69
  0
ARC
  8
0
  6
SOLIDLINE
 62
249
 10
5.39
 20
3.7
 40
0.04
 50
194.036
 51
255.964
  0
LINE
  8
0
  6
SOLIDLINE
 62
249
 10
5.71
 20
3.66
 11
5.38
 21
3.66
  0
ARC
  8
0
  6
SOLIDLINE
 62
249
 10
5.71
 20
3.7
 40
0.04
 50
270
 51
341.565
  0
LINE
  8
0
  6
SOLIDLINE
 62
249
 10
5.35
 20
3.69
 11
5.35
 21
3.73
  0
TEXT
  8
0
 62
7
 10
5.37
 20
3.69355
 30
0.0
 40
0.04704
  1
-7.760V
 50
0
 41
1.098
 72
0
 11
5.37
 21
3.74059
 31
0
 73
3
  0
LINE
  8
0
  6
SOLIDLINE
 62
249
 10
5.3
 20
3.3
 11
5.3
 21
3
  0
LINE
  8
0
  6
SOLIDLINE
 62
249
 10
5.6
 20
3.3
 11
5.3
 21
3.3
  0
LINE
  8
0
  6
SOLIDLINE
 62
249
 10
5.3
 20
4.2
 11
5.6
 21
4.2
  0
POLYLINE
  8
0
  6
SOLIDLINE
 62
5
 66
  1
 10
0.0
 20
0.0
 30
0.0
 40
0.02
 41
0.02
 70
1
  0
VERTEX
  8
0
 10
6.49
 20
4.2
 30
0.0
 42
1
  0
VERTEX
  8
0
 10
6.51
 20
4.2
 30
0.0
 42
1
  0
SEQEND
  0
POLYLINE
  8
0
  6
SOLIDLINE
 62
5
 66
  1
 10
0.0
 20
0.0
 30
0.0
 40
0.02
 41
0.02
 70
1
  0
VERTEX
  8
0
 10
5.29
 20
3.3
 30
0.0
 42
1
  0
VERTEX
  8
0
 10
5.31
 20
3.3
 30
0.0
 42
1
  0
SEQEND
  0
POLYLINE
  8
0
  6
SOLIDLINE
 62
5
 66
  1
 10
0.0
 20
0.0
 30
0.0
 40
0.02
 41
0.02
 70
1
  0
VERTEX
  8
0
 10
6.49
 20
3.3
 30
0.0
 42
1
  0
VERTEX
  8
0
 10
6.51
 20
3.3
 30
0.0
 42
1
  0
SEQEND
  0
POLYLINE
  8
0
  6
SOLIDLINE
 62
5
 66
  1
 10
0.0
 20
0.0
 30
0.0
 40
0.02
 41
0.02
 70
1
  0
VERTEX
  8
0
 10
8.09
 20
4.2
 30
0.0
 42
1
  0
VERTEX
  8
0
 10
8.11
 20
4.2
 30
0.0
 42
1
  0
SEQEND
  0
POLYLINE
  8
0
  6
SOLIDLINE
 62
5
 66
  1
 10
0.0
 20
0.0
 30
0.0
 40
0.02
 41
0.02
 70
1
  0
VERTEX
  8
0
 10
8.09
 20
2.3
 30
0.0
 42
1
  0
VERTEX
  8
0
 10
8.11
 20
2.3
 30
0.0
 42
1
  0
SEQEND
  0
POLYLINE
  8
0
  6
SOLIDLINE
 62
5
 66
  1
 10
0.0
 20
0.0
 30
0.0
 40
0.02
 41
0.02
 70
1
  0
VERTEX
  8
0
 10
7.29
 20
2.3
 30
0.0
 42
1
  0
VERTEX
  8
0
 10
7.31
 20
2.3
 30
0.0
 42
1
  0
SEQEND
  0
POLYLINE
  8
0
  6
SOLIDLINE
 62
5
 66
  1
 10
0.0
 20
0.0
 30
0.0
 40
0.02
 41
0.02
 70
1
  0
VERTEX
  8
0
 10
6.49
 20
2.3
 30
0.0
 42
1
  0
VERTEX
  8
0
 10
6.51
 20
2.3
 30
0.0
 42
1
  0
SEQEND
  0
POLYLINE
  8
0
  6
SOLIDLINE
 62
5
 66
  1
 10
0.0
 20
0.0
 30
0.0
 40
0.02
 41
0.02
 70
1
  0
VERTEX
  8
0
 10
7.29
 20
2.3
 30
0.0
 42
1
  0
VERTEX
  8
0
 10
7.31
 20
2.3
 30
0.0
 42
1
  0
SEQEND
  0
POLYLINE
  8
0
  6
SOLIDLINE
 62
5
 66
  1
 10
0.0
 20
0.0
 30
0.0
 40
0.02
 41
0.02
 70
1
  0
VERTEX
  8
0
 10
7.29
 20
4.2
 30
0.0
 42
1
  0
VERTEX
  8
0
 10
7.31
 20
4.2
 30
0.0
 42
1
  0
SEQEND
  0
SOLID
  8
0
  6
SOLIDLINE
 62
5
 10
5.28
 20
2.29
 30
0.0
 11
5.28
 21
2.25
 31
0.0
 12
5.62
 22
2.29
 32
0.0
 13
5.62
 23
2.25
 33
0.0
  0
SOLID
  8
0
  6
SOLIDLINE
 62
5
 10
5.31
 20
2.32
 30
0.0
 11
5.31
 21
2.22
 31
0.0
 12
5.59
 22
2.32
 32
0.0
 13
5.59
 23
2.22
 33
0.0
  0
POLYLINE
  8
0
  6
SOLIDLINE
 62
5
 66
  1
 10
0.0
 20
0.0
 30
0.0
 40
0.03
 41
0.03
 70
1
  0
VERTEX
  8
0
 10
5.3
 20
2.29
 30
0.0
 42
1
  0
VERTEX
  8
0
 10
5.32
 20
2.29
 30
0.0
 42
1
  0
SEQEND
  0
POLYLINE
  8
0
  6
SOLIDLINE
 62
5
 66
  1
 10
0.0
 20
0.0
 30
0.0
 40
0.03
 41
0.03
 70
1
  0
VERTEX
  8
0
 10
5.3
 20
2.25
 30
0.0
 42
1
  0
VERTEX
  8
0
 10
5.32
 20
2.25
 30
0.0
 42
1
  0
SEQEND
  0
POLYLINE
  8
0
  6
SOLIDLINE
 62
5
 66
  1
 10
0.0
 20
0.0
 30
0.0
 40
0.03
 41
0.03
 70
1
  0
VERTEX
  8
0
 10
5.58
 20
2.29
 30
0.0
 42
1
  0
VERTEX
  8
0
 10
5.6
 20
2.29
 30
0.0
 42
1
  0
SEQEND
  0
POLYLINE
  8
0
  6
SOLIDLINE
 62
5
 66
  1
 10
0.0
 20
0.0
 30
0.0
 40
0.03
 41
0.03
 70
1
  0
VERTEX
  8
0
 10
5.58
 20
2.25
 30
0.0
 42
1
  0
VERTEX
  8
0
 10
5.6
 20
2.25
 30
0.0
 42
1
  0
SEQEND
  0
ARC
  8
0
  6
SOLIDLINE
 62
249
 10
5.32
 20
2.29
 40
0.03
 50
108.435
 51
180
  0
LINE
  8
0
  6
SOLIDLINE
 62
249
 10
5.31
 20
2.32
 11
5.59
 21
2.32
  0
ARC
  8
0
  6
SOLIDLINE
 62
249
 10
5.59
 20
2.29
 40
0.03
 50
2.92403e-010
 51
90
  0
LINE
  8
0
  6
SOLIDLINE
 62
249
 10
5.62
 20
2.29
 11
5.62
 21
2.25
  0
ARC
  8
0
  6
SOLIDLINE
 62
249
 10
5.32
 20
2.26
 40
0.04
 50
194.036
 51
255.964
  0
LINE
  8
0
  6
SOLIDLINE
 62
249
 10
5.59
 20
2.22
 11
5.31
 21
2.22
  0
ARC
  8
0
  6
SOLIDLINE
 62
249
 10
5.59
 20
2.26
 40
0.04
 50
270
 51
341.565
  0
LINE
  8
0
  6
SOLIDLINE
 62
249
 10
5.28
 20
2.25
 11
5.28
 21
2.29
  0
TEXT
  8
0
 62
7
 10
5.5382
 20
2.25355
 30
0.0
 40
0.04704
  1
2.240V
 50
0
 41
1.098
 72
1
 11
5.45
 21
2.30059
 31
0
 73
3
  0
SOLID
  8
0
  6
SOLIDLINE
 62
5
 10
8.63
 20
2.29
 30
0.0
 11
8.63
 21
2.25
 31
0.0
 12
8.77
 22
2.29
 32
0.0
 13
8.77
 23
2.25
 33
0.0
  0
SOLID
  8
0
  6
SOLIDLINE
 62
5
 10
8.66
 20
2.32
 30
0.0
 11
8.66
 21
2.22
 31
0.0
 12
8.74
 22
2.32
 32
0.0
 13
8.74
 23
2.22
 33
0.0
  0
POLYLINE
  8
0
  6
SOLIDLINE
 62
5
 66
  1
 10
0.0
 20
0.0
 30
0.0
 40
0.03
 41
0.03
 70
1
  0
VERTEX
  8
0
 10
8.65
 20
2.29
 30
0.0
 42
1
  0
VERTEX
  8
0
 10
8.67
 20
2.29
 30
0.0
 42
1
  0
SEQEND
  0
POLYLINE
  8
0
  6
SOLIDLINE
 62
5
 66
  1
 10
0.0
 20
0.0
 30
0.0
 40
0.03
 41
0.03
 70
1
  0
VERTEX
  8
0
 10
8.65
 20
2.25
 30
0.0
 42
1
  0
VERTEX
  8
0
 10
8.67
 20
2.25
 30
0.0
 42
1
  0
SEQEND
  0
POLYLINE
  8
0
  6
SOLIDLINE
 62
5
 66
  1
 10
0.0
 20
0.0
 30
0.0
 40
0.03
 41
0.03
 70
1
  0
VERTEX
  8
0
 10
8.73
 20
2.29
 30
0.0
 42
1
  0
VERTEX
  8
0
 10
8.75
 20
2.29
 30
0.0
 42
1
  0
SEQEND
  0
POLYLINE
  8
0
  6
SOLIDLINE
 62
5
 66
  1
 10
0.0
 20
0.0
 30
0.0
 40
0.03
 41
0.03
 70
1
  0
VERTEX
  8
0
 10
8.73
 20
2.25
 30
0.0
 42
1
  0
VERTEX
  8
0
 10
8.75
 20
2.25
 30
0.0
 42
1
  0
SEQEND
  0
ARC
  8
0
  6
SOLIDLINE
 62
249
 10
8.67
 20
2.29
 40
0.03
 50
108.435
 51
180
  0
LINE
  8
0
  6
SOLIDLINE
 62
249
 10
8.66
 20
2.32
 11
8.74
 21
2.32
  0
ARC
  8
0
  6
SOLIDLINE
 62
249
 10
8.74
 20
2.29
 40
0.03
 50
2.92403e-010
 51
90
  0
LINE
  8
0
  6
SOLIDLINE
 62
249
 10
8.77
 20
2.29
 11
8.77
 21
2.25
  0
ARC
  8
0
  6
SOLIDLINE
 62
249
 10
8.67
 20
2.26
 40
0.04
 50
194.036
 51
255.964
  0
LINE
  8
0
  6
SOLIDLINE
 62
249
 10
8.74
 20
2.22
 11
8.66
 21
2.22
  0
ARC
  8
0
  6
SOLIDLINE
 62
249
 10
8.74
 20
2.26
 40
0.04
 50
270
 51
341.565
  0
LINE
  8
0
  6
SOLIDLINE
 62
249
 10
8.63
 20
2.25
 11
8.63
 21
2.29
  0
TEXT
  8
0
 62
7
 10
8.7294
 20
2.25355
 30
0.0
 40
0.04704
  1
0V
 50
0
 41
1.098
 72
1
 11
8.7
 21
2.30059
 31
0
 73
3
  0
SOLID
  8
0
  6
SOLIDLINE
 62
5
 10
7.11
 20
4.34
 30
0.0
 11
7.11
 21
4.3
 31
0.0
 12
7.5
 22
4.34
 32
0.0
 13
7.5
 23
4.3
 33
0.0
  0
SOLID
  8
0
  6
SOLIDLINE
 62
5
 10
7.14
 20
4.37
 30
0.0
 11
7.14
 21
4.27
 31
0.0
 12
7.47
 22
4.37
 32
0.0
 13
7.47
 23
4.27
 33
0.0
  0
POLYLINE
  8
0
  6
SOLIDLINE
 62
5
 66
  1
 10
0.0
 20
0.0
 30
0.0
 40
0.03
 41
0.03
 70
1
  0
VERTEX
  8
0
 10
7.13
 20
4.34
 30
0.0
 42
1
  0
VERTEX
  8
0
 10
7.15
 20
4.34
 30
0.0
 42
1
  0
SEQEND
  0
POLYLINE
  8
0
  6
SOLIDLINE
 62
5
 66
  1
 10
0.0
 20
0.0
 30
0.0
 40
0.03
 41
0.03
 70
1
  0
VERTEX
  8
0
 10
7.13
 20
4.3
 30
0.0
 42
1
  0
VERTEX
  8
0
 10
7.15
 20
4.3
 30
0.0
 42
1
  0
SEQEND
  0
POLYLINE
  8
0
  6
SOLIDLINE
 62
5
 66
  1
 10
0.0
 20
0.0
 30
0.0
 40
0.03
 41
0.03
 70
1
  0
VERTEX
  8
0
 10
7.46
 20
4.34
 30
0.0
 42
1
  0
VERTEX
  8
0
 10
7.48
 20
4.34
 30
0.0
 42
1
  0
SEQEND
  0
POLYLINE
  8
0
  6
SOLIDLINE
 62
5
 66
  1
 10
0.0
 20
0.0
 30
0.0
 40
0.03
 41
0.03
 70
1
  0
VERTEX
  8
0
 10
7.46
 20
4.3
 30
0.0
 42
1
  0
VERTEX
  8
0
 10
7.48
 20
4.3
 30
0.0
 42
1
  0
SEQEND
  0
ARC
  8
0
  6
SOLIDLINE
 62
249
 10
7.15
 20
4.34
 40
0.03
 50
108.435
 51
180
  0
LINE
  8
0
  6
SOLIDLINE
 62
249
 10
7.14
 20
4.37
 11
7.47
 21
4.37
  0
ARC
  8
0
  6
SOLIDLINE
 62
249
 10
7.47
 20
4.34
 40
0.03
 50
2.92403e-010
 51
90
  0
LINE
  8
0
  6
SOLIDLINE
 62
249
 10
7.5
 20
4.34
 11
7.5
 21
4.3
  0
ARC
  8
0
  6
SOLIDLINE
 62
249
 10
7.15
 20
4.31
 40
0.04
 50
194.036
 51
255.964
  0
LINE
  8
0
  6
SOLIDLINE
 62
249
 10
7.47
 20
4.27
 11
7.14
 21
4.27
  0
ARC
  8
0
  6
SOLIDLINE
 62
249
 10
7.47
 20
4.31
 40
0.04
 50
270
 51
341.565
  0
LINE
  8
0
  6
SOLIDLINE
 62
249
 10
7.11
 20
4.3
 11
7.11
 21
4.34
  0
TEXT
  8
0
 62
7
 10
7.4029
 20
4.30355
 30
0.0
 40
0.04704
  1
-4.320V
 50
0
 41
1.098
 72
1
 11
7.3
 21
4.35059
 31
0
 73
3
  0
SOLID
  8
0
  6
SOLIDLINE
 62
5
 10
6.11
 20
4.14
 30
0.0
 11
6.11
 21
4.1
 31
0.0
 12
6.5
 22
4.14
 32
0.0
 13
6.5
 23
4.1
 33
0.0
  0
SOLID
  8
0
  6
SOLIDLINE
 62
5
 10
6.14
 20
4.17
 30
0.0
 11
6.14
 21
4.07
 31
0.0
 12
6.47
 22
4.17
 32
0.0
 13
6.47
 23
4.07
 33
0.0
  0
POLYLINE
  8
0
  6
SOLIDLINE
 62
5
 66
  1
 10
0.0
 20
0.0
 30
0.0
 40
0.03
 41
0.03
 70
1
  0
VERTEX
  8
0
 10
6.13
 20
4.14
 30
0.0
 42
1
  0
VERTEX
  8
0
 10
6.15
 20
4.14
 30
0.0
 42
1
  0
SEQEND
  0
POLYLINE
  8
0
  6
SOLIDLINE
 62
5
 66
  1
 10
0.0
 20
0.0
 30
0.0
 40
0.03
 41
0.03
 70
1
  0
VERTEX
  8
0
 10
6.13
 20
4.1
 30
0.0
 42
1
  0
VERTEX
  8
0
 10
6.15
 20
4.1
 30
0.0
 42
1
  0
SEQEND
  0
POLYLINE
  8
0
  6
SOLIDLINE
 62
5
 66
  1
 10
0.0
 20
0.0
 30
0.0
 40
0.03
 41
0.03
 70
1
  0
VERTEX
  8
0
 10
6.46
 20
4.14
 30
0.0
 42
1
  0
VERTEX
  8
0
 10
6.48
 20
4.14
 30
0.0
 42
1
  0
SEQEND
  0
POLYLINE
  8
0
  6
SOLIDLINE
 62
5
 66
  1
 10
0.0
 20
0.0
 30
0.0
 40
0.03
 41
0.03
 70
1
  0
VERTEX
  8
0
 10
6.46
 20
4.1
 30
0.0
 42
1
  0
VERTEX
  8
0
 10
6.48
 20
4.1
 30
0.0
 42
1
  0
SEQEND
  0
ARC
  8
0
  6
SOLIDLINE
 62
249
 10
6.15
 20
4.14
 40
0.03
 50
108.435
 51
180
  0
LINE
  8
0
  6
SOLIDLINE
 62
249
 10
6.14
 20
4.17
 11
6.47
 21
4.17
  0
ARC
  8
0
  6
SOLIDLINE
 62
249
 10
6.47
 20
4.14
 40
0.03
 50
2.92403e-010
 51
90
  0
LINE
  8
0
  6
SOLIDLINE
 62
249
 10
6.5
 20
4.14
 11
6.5
 21
4.1
  0
ARC
  8
0
  6
SOLIDLINE
 62
249
 10
6.15
 20
4.11
 40
0.04
 50
194.036
 51
255.964
  0
LINE
  8
0
  6
SOLIDLINE
 62
249
 10
6.47
 20
4.07
 11
6.14
 21
4.07
  0
ARC
  8
0
  6
SOLIDLINE
 62
249
 10
6.47
 20
4.11
 40
0.04
 50
270
 51
341.565
  0
LINE
  8
0
  6
SOLIDLINE
 62
249
 10
6.11
 20
4.1
 11
6.11
 21
4.14
  0
TEXT
  8
0
 62
7
 10
6.4029
 20
4.10355
 30
0.0
 40
0.04704
  1
-4.320V
 50
0
 41
1.098
 72
1
 11
6.3
 21
4.15059
 31
0
 73
3
  0
SOLID
  8
0
  6
SOLIDLINE
 62
5
 10
6.06
 20
3.09
 30
0.0
 11
6.06
 21
3.05
 31
0.0
 12
6.45
 22
3.09
 32
0.0
 13
6.45
 23
3.05
 33
0.0
  0
SOLID
  8
0
  6
SOLIDLINE
 62
5
 10
6.09
 20
3.12
 30
0.0
 11
6.09
 21
3.02
 31
0.0
 12
6.42
 22
3.12
 32
0.0
 13
6.42
 23
3.02
 33
0.0
  0
POLYLINE
  8
0
  6
SOLIDLINE
 62
5
 66
  1
 10
0.0
 20
0.0
 30
0.0
 40
0.03
 41
0.03
 70
1
  0
VERTEX
  8
0
 10
6.08
 20
3.09
 30
0.0
 42
1
  0
VERTEX
  8
0
 10
6.1
 20
3.09
 30
0.0
 42
1
  0
SEQEND
  0
POLYLINE
  8
0
  6
SOLIDLINE
 62
5
 66
  1
 10
0.0
 20
0.0
 30
0.0
 40
0.03
 41
0.03
 70
1
  0
VERTEX
  8
0
 10
6.08
 20
3.05
 30
0.0
 42
1
  0
VERTEX
  8
0
 10
6.1
 20
3.05
 30
0.0
 42
1
  0
SEQEND
  0
POLYLINE
  8
0
  6
SOLIDLINE
 62
5
 66
  1
 10
0.0
 20
0.0
 30
0.0
 40
0.03
 41
0.03
 70
1
  0
VERTEX
  8
0
 10
6.41
 20
3.09
 30
0.0
 42
1
  0
VERTEX
  8
0
 10
6.43
 20
3.09
 30
0.0
 42
1
  0
SEQEND
  0
POLYLINE
  8
0
  6
SOLIDLINE
 62
5
 66
  1
 10
0.0
 20
0.0
 30
0.0
 40
0.03
 41
0.03
 70
1
  0
VERTEX
  8
0
 10
6.41
 20
3.05
 30
0.0
 42
1
  0
VERTEX
  8
0
 10
6.43
 20
3.05
 30
0.0
 42
1
  0
SEQEND
  0
ARC
  8
0
  6
SOLIDLINE
 62
249
 10
6.1
 20
3.09
 40
0.03
 50
108.435
 51
180
  0
LINE
  8
0
  6
SOLIDLINE
 62
249
 10
6.09
 20
3.12
 11
6.42
 21
3.12
  0
ARC
  8
0
  6
SOLIDLINE
 62
249
 10
6.42
 20
3.09
 40
0.03
 50
2.92403e-010
 51
90
  0
LINE
  8
0
  6
SOLIDLINE
 62
249
 10
6.45
 20
3.09
 11
6.45
 21
3.05
  0
ARC
  8
0
  6
SOLIDLINE
 62
249
 10
6.1
 20
3.06
 40
0.04
 50
194.036
 51
255.964
  0
LINE
  8
0
  6
SOLIDLINE
 62
249
 10
6.42
 20
3.02
 11
6.09
 21
3.02
  0
ARC
  8
0
  6
SOLIDLINE
 62
249
 10
6.42
 20
3.06
 40
0.04
 50
270
 51
341.565
  0
LINE
  8
0
  6
SOLIDLINE
 62
249
 10
6.06
 20
3.05
 11
6.06
 21
3.09
  0
TEXT
  8
0
 62
7
 10
6.3529
 20
3.05355
 30
0.0
 40
0.04704
  1
-3.360V
 50
0
 41
1.098
 72
1
 11
6.25
 21
3.10059
 31
0
 73
3
  0
SOLID
  8
0
  6
SOLIDLINE
 62
5
 10
7.35
 20
3.28
 30
0.0
 11
7.35
 21
3.24
 31
0.0
 12
7.74
 22
3.28
 32
0.0
 13
7.74
 23
3.24
 33
0.0
  0
SOLID
  8
0
  6
SOLIDLINE
 62
5
 10
7.38
 20
3.31
 30
0.0
 11
7.38
 21
3.21
 31
0.0
 12
7.71
 22
3.31
 32
0.0
 13
7.71
 23
3.21
 33
0.0
  0
POLYLINE
  8
0
  6
SOLIDLINE
 62
5
 66
  1
 10
0.0
 20
0.0
 30
0.0
 40
0.03
 41
0.03
 70
1
  0
VERTEX
  8
0
 10
7.37
 20
3.28
 30
0.0
 42
1
  0
VERTEX
  8
0
 10
7.39
 20
3.28
 30
0.0
 42
1
  0
SEQEND
  0
POLYLINE
  8
0
  6
SOLIDLINE
 62
5
 66
  1
 10
0.0
 20
0.0
 30
0.0
 40
0.03
 41
0.03
 70
1
  0
VERTEX
  8
0
 10
7.37
 20
3.24
 30
0.0
 42
1
  0
VERTEX
  8
0
 10
7.39
 20
3.24
 30
0.0
 42
1
  0
SEQEND
  0
POLYLINE
  8
0
  6
SOLIDLINE
 62
5
 66
  1
 10
0.0
 20
0.0
 30
0.0
 40
0.03
 41
0.03
 70
1
  0
VERTEX
  8
0
 10
7.7
 20
3.28
 30
0.0
 42
1
  0
VERTEX
  8
0
 10
7.72
 20
3.28
 30
0.0
 42
1
  0
SEQEND
  0
POLYLINE
  8
0
  6
SOLIDLINE
 62
5
 66
  1
 10
0.0
 20
0.0
 30
0.0
 40
0.03
 41
0.03
 70
1
  0
VERTEX
  8
0
 10
7.7
 20
3.24
 30
0.0
 42
1
  0
VERTEX
  8
0
 10
7.72
 20
3.24
 30
0.0
 42
1
  0
SEQEND
  0
ARC
  8
0
  6
SOLIDLINE
 62
249
 10
7.39
 20
3.28
 40
0.03
 50
108.435
 51
180
  0
LINE
  8
0
  6
SOLIDLINE
 62
249
 10
7.38
 20
3.31
 11
7.71
 21
3.31
  0
ARC
  8
0
  6
SOLIDLINE
 62
249
 10
7.71
 20
3.28
 40
0.03
 50
2.92403e-010
 51
90
  0
LINE
  8
0
  6
SOLIDLINE
 62
249
 10
7.74
 20
3.28
 11
7.74
 21
3.24
  0
ARC
  8
0
  6
SOLIDLINE
 62
249
 10
7.39
 20
3.25
 40
0.04
 50
194.036
 51
255.964
  0
LINE
  8
0
  6
SOLIDLINE
 62
249
 10
7.71
 20
3.21
 11
7.38
 21
3.21
  0
ARC
  8
0
  6
SOLIDLINE
 62
249
 10
7.71
 20
3.25
 40
0.04
 50
270
 51
341.565
  0
LINE
  8
0
  6
SOLIDLINE
 62
249
 10
7.35
 20
3.24
 11
7.35
 21
3.28
  0
TEXT
  8
0
 62
7
 10
7.37
 20
3.24355
 30
0.0
 40
0.04704
  1
-4.320V
 50
0
 41
1.098
 72
0
 11
7.37
 21
3.29059
 31
0
 73
3
  0
SOLID
  8
0
  6
SOLIDLINE
 62
5
 10
9.35
 20
3.83
 30
0.0
 11
9.35
 21
3.79
 31
0.0
 12
9.74
 22
3.83
 32
0.0
 13
9.74
 23
3.79
 33
0.0
  0
SOLID
  8
0
  6
SOLIDLINE
 62
5
 10
9.38
 20
3.86
 30
0.0
 11
9.38
 21
3.76
 31
0.0
 12
9.71
 22
3.86
 32
0.0
 13
9.71
 23
3.76
 33
0.0
  0
POLYLINE
  8
0
  6
SOLIDLINE
 62
5
 66
  1
 10
0.0
 20
0.0
 30
0.0
 40
0.03
 41
0.03
 70
1
  0
VERTEX
  8
0
 10
9.37
 20
3.83
 30
0.0
 42
1
  0
VERTEX
  8
0
 10
9.39
 20
3.83
 30
0.0
 42
1
  0
SEQEND
  0
POLYLINE
  8
0
  6
SOLIDLINE
 62
5
 66
  1
 10
0.0
 20
0.0
 30
0.0
 40
0.03
 41
0.03
 70
1
  0
VERTEX
  8
0
 10
9.37
 20
3.79
 30
0.0
 42
1
  0
VERTEX
  8
0
 10
9.39
 20
3.79
 30
0.0
 42
1
  0
SEQEND
  0
POLYLINE
  8
0
  6
SOLIDLINE
 62
5
 66
  1
 10
0.0
 20
0.0
 30
0.0
 40
0.03
 41
0.03
 70
1
  0
VERTEX
  8
0
 10
9.7
 20
3.83
 30
0.0
 42
1
  0
VERTEX
  8
0
 10
9.72
 20
3.83
 30
0.0
 42
1
  0
SEQEND
  0
POLYLINE
  8
0
  6
SOLIDLINE
 62
5
 66
  1
 10
0.0
 20
0.0
 30
0.0
 40
0.03
 41
0.03
 70
1
  0
VERTEX
  8
0
 10
9.7
 20
3.79
 30
0.0
 42
1
  0
VERTEX
  8
0
 10
9.72
 20
3.79
 30
0.0
 42
1
  0
SEQEND
  0
ARC
  8
0
  6
SOLIDLINE
 62
249
 10
9.39
 20
3.83
 40
0.03
 50
108.435
 51
180
  0
LINE
  8
0
  6
SOLIDLINE
 62
249
 10
9.38
 20
3.86
 11
9.71
 21
3.86
  0
ARC
  8
0
  6
SOLIDLINE
 62
249
 10
9.71
 20
3.83
 40
0.03
 50
2.92403e-010
 51
90
  0
LINE
  8
0
  6
SOLIDLINE
 62
249
 10
9.74
 20
3.83
 11
9.74
 21
3.79
  0
ARC
  8
0
  6
SOLIDLINE
 62
249
 10
9.39
 20
3.8
 40
0.04
 50
194.036
 51
255.964
  0
LINE
  8
0
  6
SOLIDLINE
 62
249
 10
9.71
 20
3.76
 11
9.38
 21
3.76
  0
ARC
  8
0
  6
SOLIDLINE
 62
249
 10
9.71
 20
3.8
 40
0.04
 50
270
 51
341.565
  0
LINE
  8
0
  6
SOLIDLINE
 62
249
 10
9.35
 20
3.79
 11
9.35
 21
3.83
  0
TEXT
  8
0
 62
7
 10
9.37
 20
3.79355
 30
0.0
 40
0.04704
  1
-16.00V
 50
0
 41
1.098
 72
0
 11
9.37
 21
3.84059
 31
0
 73
3
  0
SOLID
  8
0
  6
SOLIDLINE
 62
5
 10
8.15
 20
3.83
 30
0.0
 11
8.15
 21
3.79
 31
0.0
 12
8.54
 22
3.83
 32
0.0
 13
8.54
 23
3.79
 33
0.0
  0
SOLID
  8
0
  6
SOLIDLINE
 62
5
 10
8.18
 20
3.86
 30
0.0
 11
8.18
 21
3.76
 31
0.0
 12
8.51
 22
3.86
 32
0.0
 13
8.51
 23
3.76
 33
0.0
  0
POLYLINE
  8
0
  6
SOLIDLINE
 62
5
 66
  1
 10
0.0
 20
0.0
 30
0.0
 40
0.03
 41
0.03
 70
1
  0
VERTEX
  8
0
 10
8.17
 20
3.83
 30
0.0
 42
1
  0
VERTEX
  8
0
 10
8.19
 20
3.83
 30
0.0
 42
1
  0
SEQEND
  0
POLYLINE
  8
0
  6
SOLIDLINE
 62
5
 66
  1
 10
0.0
 20
0.0
 30
0.0
 40
0.03
 41
0.03
 70
1
  0
VERTEX
  8
0
 10
8.17
 20
3.79
 30
0.0
 42
1
  0
VERTEX
  8
0
 10
8.19
 20
3.79
 30
0.0
 42
1
  0
SEQEND
  0
POLYLINE
  8
0
  6
SOLIDLINE
 62
5
 66
  1
 10
0.0
 20
0.0
 30
0.0
 40
0.03
 41
0.03
 70
1
  0
VERTEX
  8
0
 10
8.5
 20
3.83
 30
0.0
 42
1
  0
VERTEX
  8
0
 10
8.52
 20
3.83
 30
0.0
 42
1
  0
SEQEND
  0
POLYLINE
  8
0
  6
SOLIDLINE
 62
5
 66
  1
 10
0.0
 20
0.0
 30
0.0
 40
0.03
 41
0.03
 70
1
  0
VERTEX
  8
0
 10
8.5
 20
3.79
 30
0.0
 42
1
  0
VERTEX
  8
0
 10
8.52
 20
3.79
 30
0.0
 42
1
  0
SEQEND
  0
ARC
  8
0
  6
SOLIDLINE
 62
249
 10
8.19
 20
3.83
 40
0.03
 50
108.435
 51
180
  0
LINE
  8
0
  6
SOLIDLINE
 62
249
 10
8.18
 20
3.86
 11
8.51
 21
3.86
  0
ARC
  8
0
  6
SOLIDLINE
 62
249
 10
8.51
 20
3.83
 40
0.03
 50
2.92403e-010
 51
90
  0
LINE
  8
0
  6
SOLIDLINE
 62
249
 10
8.54
 20
3.83
 11
8.54
 21
3.79
  0
ARC
  8
0
  6
SOLIDLINE
 62
249
 10
8.19
 20
3.8
 40
0.04
 50
194.036
 51
255.964
  0
LINE
  8
0
  6
SOLIDLINE
 62
249
 10
8.51
 20
3.76
 11
8.18
 21
3.76
  0
ARC
  8
0
  6
SOLIDLINE
 62
249
 10
8.51
 20
3.8
 40
0.04
 50
270
 51
341.565
  0
LINE
  8
0
  6
SOLIDLINE
 62
249
 10
8.15
 20
3.79
 11
8.15
 21
3.83
  0
TEXT
  8
0
 62
7
 10
8.17
 20
3.79355
 30
0.0
 40
0.04704
  1
-6.000V
 50
0
 41
1.098
 72
0
 11
8.17
 21
3.84059
 31
0
 73
3
  0
SOLID
  8
0
  6
SOLIDLINE
 62
5
 10
5.35
 20
3.73
 30
0.0
 11
5.35
 21
3.69
 31
0.0
 12
5.74
 22
3.73
 32
0.0
 13
5.74
 23
3.69
 33
0.0
  0
SOLID
  8
0
  6
SOLIDLINE
 62
5
 10
5.38
 20
3.76
 30
0.0
 11
5.38
 21
3.66
 31
0.0
 12
5.71
 22
3.76
 32
0.0
 13
5.71
 23
3.66
 33
0.0
  0
POLYLINE
  8
0
  6
SOLIDLINE
 62
5
 66
  1
 10
0.0
 20
0.0
 30
0.0
 40
0.03
 41
0.03
 70
1
  0
VERTEX
  8
0
 10
5.37
 20
3.73
 30
0.0
 42
1
  0
VERTEX
  8
0
 10
5.39
 20
3.73
 30
0.0
 42
1
  0
SEQEND
  0
POLYLINE
  8
0
  6
SOLIDLINE
 62
5
 66
  1
 10
0.0
 20
0.0
 30
0.0
 40
0.03
 41
0.03
 70
1
  0
VERTEX
  8
0
 10
5.37
 20
3.69
 30
0.0
 42
1
  0
VERTEX
  8
0
 10
5.39
 20
3.69
 30
0.0
 42
1
  0
SEQEND
  0
POLYLINE
  8
0
  6
SOLIDLINE
 62
5
 66
  1
 10
0.0
 20
0.0
 30
0.0
 40
0.03
 41
0.03
 70
1
  0
VERTEX
  8
0
 10
5.7
 20
3.73
 30
0.0
 42
1
  0
VERTEX
  8
0
 10
5.72
 20
3.73
 30
0.0
 42
1
  0
SEQEND
  0
POLYLINE
  8
0
  6
SOLIDLINE
 62
5
 66
  1
 10
0.0
 20
0.0
 30
0.0
 40
0.03
 41
0.03
 70
1
  0
VERTEX
  8
0
 10
5.7
 20
3.69
 30
0.0
 42
1
  0
VERTEX
  8
0
 10
5.72
 20
3.69
 30
0.0
 42
1
  0
SEQEND
  0
ARC
  8
0
  6
SOLIDLINE
 62
249
 10
5.39
 20
3.73
 40
0.03
 50
108.435
 51
180
  0
LINE
  8
0
  6
SOLIDLINE
 62
249
 10
5.38
 20
3.76
 11
5.71
 21
3.76
  0
ARC
  8
0
  6
SOLIDLINE
 62
249
 10
5.71
 20
3.73
 40
0.03
 50
2.92403e-010
 51
90
  0
LINE
  8
0
  6
SOLIDLINE
 62
249
 10
5.74
 20
3.73
 11
5.74
 21
3.69
  0
ARC
  8
0
  6
SOLIDLINE
 62
249
 10
5.39
 20
3.7
 40
0.04
 50
194.036
 51
255.964
  0
LINE
  8
0
  6
SOLIDLINE
 62
249
 10
5.71
 20
3.66
 11
5.38
 21
3.66
  0
ARC
  8
0
  6
SOLIDLINE
 62
249
 10
5.71
 20
3.7
 40
0.04
 50
270
 51
341.565
  0
LINE
  8
0
  6
SOLIDLINE
 62
249
 10
5.35
 20
3.69
 11
5.35
 21
3.73
  0
TEXT
  8
0
 62
7
 10
5.37
 20
3.69355
 30
0.0
 40
0.04704
  1
-7.760V
 50
0
 41
1.098
 72
0
 11
5.37
 21
3.74059
 31
0
 73
3
  0
SOLID
  8
0
  6
SOLIDLINE
 62
1
 10
7.33
 20
4.06
 30
0.0
 11
7.33
 21
4.02
 31
0.0
 12
7.72
 22
4.06
 32
0.0
 13
7.72
 23
4.02
 33
0.0
  0
SOLID
  8
0
  6
SOLIDLINE
 62
1
 10
7.36
 20
4.09
 30
0.0
 11
7.36
 21
3.99
 31
0.0
 12
7.69
 22
4.09
 32
0.0
 13
7.69
 23
3.99
 33
0.0
  0
POLYLINE
  8
0
  6
SOLIDLINE
 62
1
 66
  1
 10
0.0
 20
0.0
 30
0.0
 40
0.03
 41
0.03
 70
1
  0
VERTEX
  8
0
 10
7.35
 20
4.06
 30
0.0
 42
1
  0
VERTEX
  8
0
 10
7.37
 20
4.06
 30
0.0
 42
1
  0
SEQEND
  0
POLYLINE
  8
0
  6
SOLIDLINE
 62
1
 66
  1
 10
0.0
 20
0.0
 30
0.0
 40
0.03
 41
0.03
 70
1
  0
VERTEX
  8
0
 10
7.35
 20
4.02
 30
0.0
 42
1
  0
VERTEX
  8
0
 10
7.37
 20
4.02
 30
0.0
 42
1
  0
SEQEND
  0
POLYLINE
  8
0
  6
SOLIDLINE
 62
1
 66
  1
 10
0.0
 20
0.0
 30
0.0
 40
0.03
 41
0.03
 70
1
  0
VERTEX
  8
0
 10
7.68
 20
4.06
 30
0.0
 42
1
  0
VERTEX
  8
0
 10
7.7
 20
4.06
 30
0.0
 42
1
  0
SEQEND
  0
POLYLINE
  8
0
  6
SOLIDLINE
 62
1
 66
  1
 10
0.0
 20
0.0
 30
0.0
 40
0.03
 41
0.03
 70
1
  0
VERTEX
  8
0
 10
7.68
 20
4.02
 30
0.0
 42
1
  0
VERTEX
  8
0
 10
7.7
 20
4.02
 30
0.0
 42
1
  0
SEQEND
  0
ARC
  8
0
  6
SOLIDLINE
 62
249
 10
7.37
 20
4.06
 40
0.03
 50
108.435
 51
180
  0
LINE
  8
0
  6
SOLIDLINE
 62
249
 10
7.36
 20
4.09
 11
7.69
 21
4.09
  0
ARC
  8
0
  6
SOLIDLINE
 62
249
 10
7.69
 20
4.06
 40
0.03
 50
2.92403e-010
 51
90
  0
LINE
  8
0
  6
SOLIDLINE
 62
249
 10
7.72
 20
4.06
 11
7.72
 21
4.02
  0
ARC
  8
0
  6
SOLIDLINE
 62
249
 10
7.37
 20
4.03
 40
0.04
 50
194.036
 51
255.964
  0
LINE
  8
0
  6
SOLIDLINE
 62
249
 10
7.69
 20
3.99
 11
7.36
 21
3.99
  0
ARC
  8
0
  6
SOLIDLINE
 62
249
 10
7.69
 20
4.03
 40
0.04
 50
270
 51
341.565
  0
LINE
  8
0
  6
SOLIDLINE
 62
249
 10
7.33
 20
4.02
 11
7.33
 21
4.06
  0
TEXT
  8
0
 62
7
 10
7.9058
 20
3.99059
 30
0.0
 40
0.04704
  1
1.680uA
 50
0
 41
1.098
 72
2
 11
7.7
 21
3.99059
 31
0
 73
0
  0
SOLID
  8
0
  6
SOLIDLINE
 62
1
 10
7.93
 20
4.31
 30
0.0
 11
7.93
 21
4.27
 31
0.0
 12
8.37
 22
4.31
 32
0.0
 13
8.37
 23
4.27
 33
0.0
  0
SOLID
  8
0
  6
SOLIDLINE
 62
1
 10
7.96
 20
4.34
 30
0.0
 11
7.96
 21
4.24
 31
0.0
 12
8.34
 22
4.34
 32
0.0
 13
8.34
 23
4.24
 33
0.0
  0
POLYLINE
  8
0
  6
SOLIDLINE
 62
1
 66
  1
 10
0.0
 20
0.0
 30
0.0
 40
0.03
 41
0.03
 70
1
  0
VERTEX
  8
0
 10
7.95
 20
4.31
 30
0.0
 42
1
  0
VERTEX
  8
0
 10
7.97
 20
4.31
 30
0.0
 42
1
  0
SEQEND
  0
POLYLINE
  8
0
  6
SOLIDLINE
 62
1
 66
  1
 10
0.0
 20
0.0
 30
0.0
 40
0.03
 41
0.03
 70
1
  0
VERTEX
  8
0
 10
7.95
 20
4.27
 30
0.0
 42
1
  0
VERTEX
  8
0
 10
7.97
 20
4.27
 30
0.0
 42
1
  0
SEQEND
  0
POLYLINE
  8
0
  6
SOLIDLINE
 62
1
 66
  1
 10
0.0
 20
0.0
 30
0.0
 40
0.03
 41
0.03
 70
1
  0
VERTEX
  8
0
 10
8.33
 20
4.31
 30
0.0
 42
1
  0
VERTEX
  8
0
 10
8.35
 20
4.31
 30
0.0
 42
1
  0
SEQEND
  0
POLYLINE
  8
0
  6
SOLIDLINE
 62
1
 66
  1
 10
0.0
 20
0.0
 30
0.0
 40
0.03
 41
0.03
 70
1
  0
VERTEX
  8
0
 10
8.33
 20
4.27
 30
0.0
 42
1
  0
VERTEX
  8
0
 10
8.35
 20
4.27
 30
0.0
 42
1
  0
SEQEND
  0
ARC
  8
0
  6
SOLIDLINE
 62
249
 10
7.97
 20
4.31
 40
0.03
 50
108.435
 51
180
  0
LINE
  8
0
  6
SOLIDLINE
 62
249
 10
7.96
 20
4.34
 11
8.34
 21
4.34
  0
ARC
  8
0
  6
SOLIDLINE
 62
249
 10
8.34
 20
4.31
 40
0.03
 50
2.92403e-010
 51
90
  0
LINE
  8
0
  6
SOLIDLINE
 62
249
 10
8.37
 20
4.31
 11
8.37
 21
4.27
  0
ARC
  8
0
  6
SOLIDLINE
 62
249
 10
7.97
 20
4.28
 40
0.04
 50
194.036
 51
255.964
  0
LINE
  8
0
  6
SOLIDLINE
 62
249
 10
8.34
 20
4.24
 11
7.96
 21
4.24
  0
ARC
  8
0
  6
SOLIDLINE
 62
249
 10
8.34
 20
4.28
 40
0.04
 50
270
 51
341.565
  0
LINE
  8
0
  6
SOLIDLINE
 62
249
 10
7.93
 20
4.27
 11
7.93
 21
4.31
  0
TEXT
  8
0
 62
7
 10
7.95
 20
4.24059
 30
0.0
 40
0.04704
  1
-1.680uA
 50
0
 41
1.098
 72
0
 11
7.95
 21
4.24059
 31
0
 73
0
  0
SOLID
  8
0
  6
SOLIDLINE
 62
1
 10
6.48
 20
4.06
 30
0.0
 11
6.48
 21
4.02
 31
0.0
 12
6.87
 22
4.06
 32
0.0
 13
6.87
 23
4.02
 33
0.0
  0
SOLID
  8
0
  6
SOLIDLINE
 62
1
 10
6.51
 20
4.09
 30
0.0
 11
6.51
 21
3.99
 31
0.0
 12
6.84
 22
4.09
 32
0.0
 13
6.84
 23
3.99
 33
0.0
  0
POLYLINE
  8
0
  6
SOLIDLINE
 62
1
 66
  1
 10
0.0
 20
0.0
 30
0.0
 40
0.03
 41
0.03
 70
1
  0
VERTEX
  8
0
 10
6.5
 20
4.06
 30
0.0
 42
1
  0
VERTEX
  8
0
 10
6.52
 20
4.06
 30
0.0
 42
1
  0
SEQEND
  0
POLYLINE
  8
0
  6
SOLIDLINE
 62
1
 66
  1
 10
0.0
 20
0.0
 30
0.0
 40
0.03
 41
0.03
 70
1
  0
VERTEX
  8
0
 10
6.5
 20
4.02
 30
0.0
 42
1
  0
VERTEX
  8
0
 10
6.52
 20
4.02
 30
0.0
 42
1
  0
SEQEND
  0
POLYLINE
  8
0
  6
SOLIDLINE
 62
1
 66
  1
 10
0.0
 20
0.0
 30
0.0
 40
0.03
 41
0.03
 70
1
  0
VERTEX
  8
0
 10
6.83
 20
4.06
 30
0.0
 42
1
  0
VERTEX
  8
0
 10
6.85
 20
4.06
 30
0.0
 42
1
  0
SEQEND
  0
POLYLINE
  8
0
  6
SOLIDLINE
 62
1
 66
  1
 10
0.0
 20
0.0
 30
0.0
 40
0.03
 41
0.03
 70
1
  0
VERTEX
  8
0
 10
6.83
 20
4.02
 30
0.0
 42
1
  0
VERTEX
  8
0
 10
6.85
 20
4.02
 30
0.0
 42
1
  0
SEQEND
  0
ARC
  8
0
  6
SOLIDLINE
 62
249
 10
6.52
 20
4.06
 40
0.03
 50
108.435
 51
180
  0
LINE
  8
0
  6
SOLIDLINE
 62
249
 10
6.51
 20
4.09
 11
6.84
 21
4.09
  0
ARC
  8
0
  6
SOLIDLINE
 62
249
 10
6.84
 20
4.06
 40
0.03
 50
2.92403e-010
 51
90
  0
LINE
  8
0
  6
SOLIDLINE
 62
249
 10
6.87
 20
4.06
 11
6.87
 21
4.02
  0
ARC
  8
0
  6
SOLIDLINE
 62
249
 10
6.52
 20
4.03
 40
0.04
 50
194.036
 51
255.964
  0
LINE
  8
0
  6
SOLIDLINE
 62
249
 10
6.84
 20
3.99
 11
6.51
 21
3.99
  0
ARC
  8
0
  6
SOLIDLINE
 62
249
 10
6.84
 20
4.03
 40
0.04
 50
270
 51
341.565
  0
LINE
  8
0
  6
SOLIDLINE
 62
249
 10
6.48
 20
4.02
 11
6.48
 21
4.06
  0
TEXT
  8
0
 62
7
 10
7.0558
 20
3.99059
 30
0.0
 40
0.04704
  1
1.680uA
 50
0
 41
1.098
 72
2
 11
6.85
 21
3.99059
 31
0
 73
0
  0
SOLID
  8
0
  6
SOLIDLINE
 62
1
 10
6.93
 20
4.06
 30
0.0
 11
6.93
 21
4.02
 31
0.0
 12
7.37
 22
4.06
 32
0.0
 13
7.37
 23
4.02
 33
0.0
  0
SOLID
  8
0
  6
SOLIDLINE
 62
1
 10
6.96
 20
4.09
 30
0.0
 11
6.96
 21
3.99
 31
0.0
 12
7.34
 22
4.09
 32
0.0
 13
7.34
 23
3.99
 33
0.0
  0
POLYLINE
  8
0
  6
SOLIDLINE
 62
1
 66
  1
 10
0.0
 20
0.0
 30
0.0
 40
0.03
 41
0.03
 70
1
  0
VERTEX
  8
0
 10
6.95
 20
4.06
 30
0.0
 42
1
  0
VERTEX
  8
0
 10
6.97
 20
4.06
 30
0.0
 42
1
  0
SEQEND
  0
POLYLINE
  8
0
  6
SOLIDLINE
 62
1
 66
  1
 10
0.0
 20
0.0
 30
0.0
 40
0.03
 41
0.03
 70
1
  0
VERTEX
  8
0
 10
6.95
 20
4.02
 30
0.0
 42
1
  0
VERTEX
  8
0
 10
6.97
 20
4.02
 30
0.0
 42
1
  0
SEQEND
  0
POLYLINE
  8
0
  6
SOLIDLINE
 62
1
 66
  1
 10
0.0
 20
0.0
 30
0.0
 40
0.03
 41
0.03
 70
1
  0
VERTEX
  8
0
 10
7.33
 20
4.06
 30
0.0
 42
1
  0
VERTEX
  8
0
 10
7.35
 20
4.06
 30
0.0
 42
1
  0
SEQEND
  0
POLYLINE
  8
0
  6
SOLIDLINE
 62
1
 66
  1
 10
0.0
 20
0.0
 30
0.0
 40
0.03
 41
0.03
 70
1
  0
VERTEX
  8
0
 10
7.33
 20
4.02
 30
0.0
 42
1
  0
VERTEX
  8
0
 10
7.35
 20
4.02
 30
0.0
 42
1
  0
SEQEND
  0
ARC
  8
0
  6
SOLIDLINE
 62
249
 10
6.97
 20
4.06
 40
0.03
 50
108.435
 51
180
  0
LINE
  8
0
  6
SOLIDLINE
 62
249
 10
6.96
 20
4.09
 11
7.34
 21
4.09
  0
ARC
  8
0
  6
SOLIDLINE
 62
249
 10
7.34
 20
4.06
 40
0.03
 50
2.92403e-010
 51
90
  0
LINE
  8
0
  6
SOLIDLINE
 62
249
 10
7.37
 20
4.06
 11
7.37
 21
4.02
  0
ARC
  8
0
  6
SOLIDLINE
 62
249
 10
6.97
 20
4.03
 40
0.04
 50
194.036
 51
255.964
  0
LINE
  8
0
  6
SOLIDLINE
 62
249
 10
7.34
 20
3.99
 11
6.96
 21
3.99
  0
ARC
  8
0
  6
SOLIDLINE
 62
249
 10
7.34
 20
4.03
 40
0.04
 50
270
 51
341.565
  0
LINE
  8
0
  6
SOLIDLINE
 62
249
 10
6.93
 20
4.02
 11
6.93
 21
4.06
  0
TEXT
  8
0
 62
7
 10
6.95
 20
3.99059
 30
0.0
 40
0.04704
  1
-1.680uA
 50
0
 41
1.098
 72
0
 11
6.95
 21
3.99059
 31
0
 73
0
  0
SOLID
  8
0
  6
SOLIDLINE
 62
1
 10
6.03
 20
4.31
 30
0.0
 11
6.03
 21
4.27
 31
0.0
 12
6.47
 22
4.31
 32
0.0
 13
6.47
 23
4.27
 33
0.0
  0
SOLID
  8
0
  6
SOLIDLINE
 62
1
 10
6.06
 20
4.34
 30
0.0
 11
6.06
 21
4.24
 31
0.0
 12
6.44
 22
4.34
 32
0.0
 13
6.44
 23
4.24
 33
0.0
  0
POLYLINE
  8
0
  6
SOLIDLINE
 62
1
 66
  1
 10
0.0
 20
0.0
 30
0.0
 40
0.03
 41
0.03
 70
1
  0
VERTEX
  8
0
 10
6.05
 20
4.31
 30
0.0
 42
1
  0
VERTEX
  8
0
 10
6.07
 20
4.31
 30
0.0
 42
1
  0
SEQEND
  0
POLYLINE
  8
0
  6
SOLIDLINE
 62
1
 66
  1
 10
0.0
 20
0.0
 30
0.0
 40
0.03
 41
0.03
 70
1
  0
VERTEX
  8
0
 10
6.05
 20
4.27
 30
0.0
 42
1
  0
VERTEX
  8
0
 10
6.07
 20
4.27
 30
0.0
 42
1
  0
SEQEND
  0
POLYLINE
  8
0
  6
SOLIDLINE
 62
1
 66
  1
 10
0.0
 20
0.0
 30
0.0
 40
0.03
 41
0.03
 70
1
  0
VERTEX
  8
0
 10
6.43
 20
4.31
 30
0.0
 42
1
  0
VERTEX
  8
0
 10
6.45
 20
4.31
 30
0.0
 42
1
  0
SEQEND
  0
POLYLINE
  8
0
  6
SOLIDLINE
 62
1
 66
  1
 10
0.0
 20
0.0
 30
0.0
 40
0.03
 41
0.03
 70
1
  0
VERTEX
  8
0
 10
6.43
 20
4.27
 30
0.0
 42
1
  0
VERTEX
  8
0
 10
6.45
 20
4.27
 30
0.0
 42
1
  0
SEQEND
  0
ARC
  8
0
  6
SOLIDLINE
 62
249
 10
6.07
 20
4.31
 40
0.03
 50
108.435
 51
180
  0
LINE
  8
0
  6
SOLIDLINE
 62
249
 10
6.06
 20
4.34
 11
6.44
 21
4.34
  0
ARC
  8
0
  6
SOLIDLINE
 62
249
 10
6.44
 20
4.31
 40
0.03
 50
2.92403e-010
 51
90
  0
LINE
  8
0
  6
SOLIDLINE
 62
249
 10
6.47
 20
4.31
 11
6.47
 21
4.27
  0
ARC
  8
0
  6
SOLIDLINE
 62
249
 10
6.07
 20
4.28
 40
0.04
 50
194.036
 51
255.964
  0
LINE
  8
0
  6
SOLIDLINE
 62
249
 10
6.44
 20
4.24
 11
6.06
 21
4.24
  0
ARC
  8
0
  6
SOLIDLINE
 62
249
 10
6.44
 20
4.28
 40
0.04
 50
270
 51
341.565
  0
LINE
  8
0
  6
SOLIDLINE
 62
249
 10
6.03
 20
4.27
 11
6.03
 21
4.31
  0
TEXT
  8
0
 62
7
 10
6.05
 20
4.24059
 30
0.0
 40
0.04704
  1
120.00mA
 50
0
 41
1.098
 72
0
 11
6.05
 21
4.24059
 31
0
 73
0
  0
SOLID
  8
0
  6
SOLIDLINE
 62
1
 10
5.98
 20
2.36
 30
0.0
 11
5.98
 21
2.32
 31
0.0
 12
6.42
 22
2.36
 32
0.0
 13
6.42
 23
2.32
 33
0.0
  0
SOLID
  8
0
  6
SOLIDLINE
 62
1
 10
6.01
 20
2.39
 30
0.0
 11
6.01
 21
2.29
 31
0.0
 12
6.39
 22
2.39
 32
0.0
 13
6.39
 23
2.29
 33
0.0
  0
POLYLINE
  8
0
  6
SOLIDLINE
 62
1
 66
  1
 10
0.0
 20
0.0
 30
0.0
 40
0.03
 41
0.03
 70
1
  0
VERTEX
  8
0
 10
6
 20
2.36
 30
0.0
 42
1
  0
VERTEX
  8
0
 10
6.02
 20
2.36
 30
0.0
 42
1
  0
SEQEND
  0
POLYLINE
  8
0
  6
SOLIDLINE
 62
1
 66
  1
 10
0.0
 20
0.0
 30
0.0
 40
0.03
 41
0.03
 70
1
  0
VERTEX
  8
0
 10
6
 20
2.32
 30
0.0
 42
1
  0
VERTEX
  8
0
 10
6.02
 20
2.32
 30
0.0
 42
1
  0
SEQEND
  0
POLYLINE
  8
0
  6
SOLIDLINE
 62
1
 66
  1
 10
0.0
 20
0.0
 30
0.0
 40
0.03
 41
0.03
 70
1
  0
VERTEX
  8
0
 10
6.38
 20
2.36
 30
0.0
 42
1
  0
VERTEX
  8
0
 10
6.4
 20
2.36
 30
0.0
 42
1
  0
SEQEND
  0
POLYLINE
  8
0
  6
SOLIDLINE
 62
1
 66
  1
 10
0.0
 20
0.0
 30
0.0
 40
0.03
 41
0.03
 70
1
  0
VERTEX
  8
0
 10
6.38
 20
2.32
 30
0.0
 42
1
  0
VERTEX
  8
0
 10
6.4
 20
2.32
 30
0.0
 42
1
  0
SEQEND
  0
ARC
  8
0
  6
SOLIDLINE
 62
249
 10
6.02
 20
2.36
 40
0.03
 50
108.435
 51
180
  0
LINE
  8
0
  6
SOLIDLINE
 62
249
 10
6.01
 20
2.39
 11
6.39
 21
2.39
  0
ARC
  8
0
  6
SOLIDLINE
 62
249
 10
6.39
 20
2.36
 40
0.03
 50
2.92403e-010
 51
90
  0
LINE
  8
0
  6
SOLIDLINE
 62
249
 10
6.42
 20
2.36
 11
6.42
 21
2.32
  0
ARC
  8
0
  6
SOLIDLINE
 62
249
 10
6.02
 20
2.33
 40
0.04
 50
194.036
 51
255.964
  0
LINE
  8
0
  6
SOLIDLINE
 62
249
 10
6.39
 20
2.29
 11
6.01
 21
2.29
  0
ARC
  8
0
  6
SOLIDLINE
 62
249
 10
6.39
 20
2.33
 40
0.04
 50
270
 51
341.565
  0
LINE
  8
0
  6
SOLIDLINE
 62
249
 10
5.98
 20
2.32
 11
5.98
 21
2.36
  0
TEXT
  8
0
 62
7
 10
6.6352
 20
2.29059
 30
0.0
 40
0.04704
  1
560.00mA
 50
0
 41
1.098
 72
2
 11
6.4
 21
2.29059
 31
0
 73
0
  0
SOLID
  8
0
  6
SOLIDLINE
 62
1
 10
5.33
 20
3.06
 30
0.0
 11
5.33
 21
3.02
 31
0.0
 12
5.77
 22
3.06
 32
0.0
 13
5.77
 23
3.02
 33
0.0
  0
SOLID
  8
0
  6
SOLIDLINE
 62
1
 10
5.36
 20
3.09
 30
0.0
 11
5.36
 21
2.99
 31
0.0
 12
5.74
 22
3.09
 32
0.0
 13
5.74
 23
2.99
 33
0.0
  0
POLYLINE
  8
0
  6
SOLIDLINE
 62
1
 66
  1
 10
0.0
 20
0.0
 30
0.0
 40
0.03
 41
0.03
 70
1
  0
VERTEX
  8
0
 10
5.35
 20
3.06
 30
0.0
 42
1
  0
VERTEX
  8
0
 10
5.37
 20
3.06
 30
0.0
 42
1
  0
SEQEND
  0
POLYLINE
  8
0
  6
SOLIDLINE
 62
1
 66
  1
 10
0.0
 20
0.0
 30
0.0
 40
0.03
 41
0.03
 70
1
  0
VERTEX
  8
0
 10
5.35
 20
3.02
 30
0.0
 42
1
  0
VERTEX
  8
0
 10
5.37
 20
3.02
 30
0.0
 42
1
  0
SEQEND
  0
POLYLINE
  8
0
  6
SOLIDLINE
 62
1
 66
  1
 10
0.0
 20
0.0
 30
0.0
 40
0.03
 41
0.03
 70
1
  0
VERTEX
  8
0
 10
5.73
 20
3.06
 30
0.0
 42
1
  0
VERTEX
  8
0
 10
5.75
 20
3.06
 30
0.0
 42
1
  0
SEQEND
  0
POLYLINE
  8
0
  6
SOLIDLINE
 62
1
 66
  1
 10
0.0
 20
0.0
 30
0.0
 40
0.03
 41
0.03
 70
1
  0
VERTEX
  8
0
 10
5.73
 20
3.02
 30
0.0
 42
1
  0
VERTEX
  8
0
 10
5.75
 20
3.02
 30
0.0
 42
1
  0
SEQEND
  0
ARC
  8
0
  6
SOLIDLINE
 62
249
 10
5.37
 20
3.06
 40
0.03
 50
108.435
 51
180
  0
LINE
  8
0
  6
SOLIDLINE
 62
249
 10
5.36
 20
3.09
 11
5.74
 21
3.09
  0
ARC
  8
0
  6
SOLIDLINE
 62
249
 10
5.74
 20
3.06
 40
0.03
 50
2.92403e-010
 51
90
  0
LINE
  8
0
  6
SOLIDLINE
 62
249
 10
5.77
 20
3.06
 11
5.77
 21
3.02
  0
ARC
  8
0
  6
SOLIDLINE
 62
249
 10
5.37
 20
3.03
 40
0.04
 50
194.036
 51
255.964
  0
LINE
  8
0
  6
SOLIDLINE
 62
249
 10
5.74
 20
2.99
 11
5.36
 21
2.99
  0
ARC
  8
0
  6
SOLIDLINE
 62
249
 10
5.74
 20
3.03
 40
0.04
 50
270
 51
341.565
  0
LINE
  8
0
  6
SOLIDLINE
 62
249
 10
5.33
 20
3.02
 11
5.33
 21
3.06
  0
TEXT
  8
0
 62
7
 10
5.35
 20
2.99059
 30
0.0
 40
0.04704
  1
560.00mA
 50
0
 41
1.098
 72
0
 11
5.35
 21
2.99059
 31
0
 73
0
  0
SOLID
  8
0
  6
SOLIDLINE
 62
1
 10
6.58
 20
2.58
 30
0.0
 11
6.58
 21
2.54
 31
0.0
 12
7.02
 22
2.58
 32
0.0
 13
7.02
 23
2.54
 33
0.0
  0
SOLID
  8
0
  6
SOLIDLINE
 62
1
 10
6.61
 20
2.61
 30
0.0
 11
6.61
 21
2.51
 31
0.0
 12
6.99
 22
2.61
 32
0.0
 13
6.99
 23
2.51
 33
0.0
  0
POLYLINE
  8
0
  6
SOLIDLINE
 62
1
 66
  1
 10
0.0
 20
0.0
 30
0.0
 40
0.03
 41
0.03
 70
1
  0
VERTEX
  8
0
 10
6.6
 20
2.58
 30
0.0
 42
1
  0
VERTEX
  8
0
 10
6.62
 20
2.58
 30
0.0
 42
1
  0
SEQEND
  0
POLYLINE
  8
0
  6
SOLIDLINE
 62
1
 66
  1
 10
0.0
 20
0.0
 30
0.0
 40
0.03
 41
0.03
 70
1
  0
VERTEX
  8
0
 10
6.6
 20
2.54
 30
0.0
 42
1
  0
VERTEX
  8
0
 10
6.62
 20
2.54
 30
0.0
 42
1
  0
SEQEND
  0
POLYLINE
  8
0
  6
SOLIDLINE
 62
1
 66
  1
 10
0.0
 20
0.0
 30
0.0
 40
0.03
 41
0.03
 70
1
  0
VERTEX
  8
0
 10
6.98
 20
2.58
 30
0.0
 42
1
  0
VERTEX
  8
0
 10
7
 20
2.58
 30
0.0
 42
1
  0
SEQEND
  0
POLYLINE
  8
0
  6
SOLIDLINE
 62
1
 66
  1
 10
0.0
 20
0.0
 30
0.0
 40
0.03
 41
0.03
 70
1
  0
VERTEX
  8
0
 10
6.98
 20
2.54
 30
0.0
 42
1
  0
VERTEX
  8
0
 10
7
 20
2.54
 30
0.0
 42
1
  0
SEQEND
  0
ARC
  8
0
  6
SOLIDLINE
 62
249
 10
6.62
 20
2.58
 40
0.03
 50
108.435
 51
180
  0
LINE
  8
0
  6
SOLIDLINE
 62
249
 10
6.61
 20
2.61
 11
6.99
 21
2.61
  0
ARC
  8
0
  6
SOLIDLINE
 62
249
 10
6.99
 20
2.58
 40
0.03
 50
2.92403e-010
 51
90
  0
LINE
  8
0
  6
SOLIDLINE
 62
249
 10
7.02
 20
2.58
 11
7.02
 21
2.54
  0
ARC
  8
0
  6
SOLIDLINE
 62
249
 10
6.62
 20
2.55
 40
0.04
 50
194.036
 51
255.964
  0
LINE
  8
0
  6
SOLIDLINE
 62
249
 10
6.99
 20
2.51
 11
6.61
 21
2.51
  0
ARC
  8
0
  6
SOLIDLINE
 62
249
 10
6.99
 20
2.55
 40
0.04
 50
270
 51
341.565
  0
LINE
  8
0
  6
SOLIDLINE
 62
249
 10
6.58
 20
2.54
 11
6.58
 21
2.58
  0
TEXT
  8
0
 62
7
 10
6.6
 20
2.54355
 30
0.0
 40
0.04704
  1
560.00mA
 50
0
 41
1.098
 72
0
 11
6.6
 21
2.59059
 31
0
 73
3
  0
SOLID
  8
0
  6
SOLIDLINE
 62
1
 10
6.53
 20
3.63
 30
0.0
 11
6.53
 21
3.59
 31
0.0
 12
6.97
 22
3.63
 32
0.0
 13
6.97
 23
3.59
 33
0.0
  0
SOLID
  8
0
  6
SOLIDLINE
 62
1
 10
6.56
 20
3.66
 30
0.0
 11
6.56
 21
3.56
 31
0.0
 12
6.94
 22
3.66
 32
0.0
 13
6.94
 23
3.56
 33
0.0
  0
POLYLINE
  8
0
  6
SOLIDLINE
 62
1
 66
  1
 10
0.0
 20
0.0
 30
0.0
 40
0.03
 41
0.03
 70
1
  0
VERTEX
  8
0
 10
6.55
 20
3.63
 30
0.0
 42
1
  0
VERTEX
  8
0
 10
6.57
 20
3.63
 30
0.0
 42
1
  0
SEQEND
  0
POLYLINE
  8
0
  6
SOLIDLINE
 62
1
 66
  1
 10
0.0
 20
0.0
 30
0.0
 40
0.03
 41
0.03
 70
1
  0
VERTEX
  8
0
 10
6.55
 20
3.59
 30
0.0
 42
1
  0
VERTEX
  8
0
 10
6.57
 20
3.59
 30
0.0
 42
1
  0
SEQEND
  0
POLYLINE
  8
0
  6
SOLIDLINE
 62
1
 66
  1
 10
0.0
 20
0.0
 30
0.0
 40
0.03
 41
0.03
 70
1
  0
VERTEX
  8
0
 10
6.93
 20
3.63
 30
0.0
 42
1
  0
VERTEX
  8
0
 10
6.95
 20
3.63
 30
0.0
 42
1
  0
SEQEND
  0
POLYLINE
  8
0
  6
SOLIDLINE
 62
1
 66
  1
 10
0.0
 20
0.0
 30
0.0
 40
0.03
 41
0.03
 70
1
  0
VERTEX
  8
0
 10
6.93
 20
3.59
 30
0.0
 42
1
  0
VERTEX
  8
0
 10
6.95
 20
3.59
 30
0.0
 42
1
  0
SEQEND
  0
ARC
  8
0
  6
SOLIDLINE
 62
249
 10
6.57
 20
3.63
 40
0.03
 50
108.435
 51
180
  0
LINE
  8
0
  6
SOLIDLINE
 62
249
 10
6.56
 20
3.66
 11
6.94
 21
3.66
  0
ARC
  8
0
  6
SOLIDLINE
 62
249
 10
6.94
 20
3.63
 40
0.03
 50
2.92403e-010
 51
90
  0
LINE
  8
0
  6
SOLIDLINE
 62
249
 10
6.97
 20
3.63
 11
6.97
 21
3.59
  0
ARC
  8
0
  6
SOLIDLINE
 62
249
 10
6.57
 20
3.6
 40
0.04
 50
194.036
 51
255.964
  0
LINE
  8
0
  6
SOLIDLINE
 62
249
 10
6.94
 20
3.56
 11
6.56
 21
3.56
  0
ARC
  8
0
  6
SOLIDLINE
 62
249
 10
6.94
 20
3.6
 40
0.04
 50
270
 51
341.565
  0
LINE
  8
0
  6
SOLIDLINE
 62
249
 10
6.53
 20
3.59
 11
6.53
 21
3.63
  0
TEXT
  8
0
 62
7
 10
6.55
 20
3.59355
 30
0.0
 40
0.04704
  1
120.00mA
 50
0
 41
1.098
 72
0
 11
6.55
 21
3.64059
 31
0
 73
3
  0
SOLID
  8
0
  6
SOLIDLINE
 62
1
 10
5.98
 20
3.31
 30
0.0
 11
5.98
 21
3.27
 31
0.0
 12
6.42
 22
3.31
 32
0.0
 13
6.42
 23
3.27
 33
0.0
  0
SOLID
  8
0
  6
SOLIDLINE
 62
1
 10
6.01
 20
3.34
 30
0.0
 11
6.01
 21
3.24
 31
0.0
 12
6.39
 22
3.34
 32
0.0
 13
6.39
 23
3.24
 33
0.0
  0
POLYLINE
  8
0
  6
SOLIDLINE
 62
1
 66
  1
 10
0.0
 20
0.0
 30
0.0
 40
0.03
 41
0.03
 70
1
  0
VERTEX
  8
0
 10
6
 20
3.31
 30
0.0
 42
1
  0
VERTEX
  8
0
 10
6.02
 20
3.31
 30
0.0
 42
1
  0
SEQEND
  0
POLYLINE
  8
0
  6
SOLIDLINE
 62
1
 66
  1
 10
0.0
 20
0.0
 30
0.0
 40
0.03
 41
0.03
 70
1
  0
VERTEX
  8
0
 10
6
 20
3.27
 30
0.0
 42
1
  0
VERTEX
  8
0
 10
6.02
 20
3.27
 30
0.0
 42
1
  0
SEQEND
  0
POLYLINE
  8
0
  6
SOLIDLINE
 62
1
 66
  1
 10
0.0
 20
0.0
 30
0.0
 40
0.03
 41
0.03
 70
1
  0
VERTEX
  8
0
 10
6.38
 20
3.31
 30
0.0
 42
1
  0
VERTEX
  8
0
 10
6.4
 20
3.31
 30
0.0
 42
1
  0
SEQEND
  0
POLYLINE
  8
0
  6
SOLIDLINE
 62
1
 66
  1
 10
0.0
 20
0.0
 30
0.0
 40
0.03
 41
0.03
 70
1
  0
VERTEX
  8
0
 10
6.38
 20
3.27
 30
0.0
 42
1
  0
VERTEX
  8
0
 10
6.4
 20
3.27
 30
0.0
 42
1
  0
SEQEND
  0
ARC
  8
0
  6
SOLIDLINE
 62
249
 10
6.02
 20
3.31
 40
0.03
 50
108.435
 51
180
  0
LINE
  8
0
  6
SOLIDLINE
 62
249
 10
6.01
 20
3.34
 11
6.39
 21
3.34
  0
ARC
  8
0
  6
SOLIDLINE
 62
249
 10
6.39
 20
3.31
 40
0.03
 50
2.92403e-010
 51
90
  0
LINE
  8
0
  6
SOLIDLINE
 62
249
 10
6.42
 20
3.31
 11
6.42
 21
3.27
  0
ARC
  8
0
  6
SOLIDLINE
 62
249
 10
6.02
 20
3.28
 40
0.04
 50
194.036
 51
255.964
  0
LINE
  8
0
  6
SOLIDLINE
 62
249
 10
6.39
 20
3.24
 11
6.01
 21
3.24
  0
ARC
  8
0
  6
SOLIDLINE
 62
249
 10
6.39
 20
3.28
 40
0.04
 50
270
 51
341.565
  0
LINE
  8
0
  6
SOLIDLINE
 62
249
 10
5.98
 20
3.27
 11
5.98
 21
3.31
  0
TEXT
  8
0
 62
7
 10
6
 20
3.24059
 30
0.0
 40
0.04704
  1
440.00mA
 50
0
 41
1.098
 72
0
 11
6
 21
3.24059
 31
0
 73
0
  0
SOLID
  8
0
  6
SOLIDLINE
 62
1
 10
8.13
 20
3.13
 30
0.0
 11
8.13
 21
3.09
 31
0.0
 12
8.57
 22
3.13
 32
0.0
 13
8.57
 23
3.09
 33
0.0
  0
SOLID
  8
0
  6
SOLIDLINE
 62
1
 10
8.16
 20
3.16
 30
0.0
 11
8.16
 21
3.06
 31
0.0
 12
8.54
 22
3.16
 32
0.0
 13
8.54
 23
3.06
 33
0.0
  0
POLYLINE
  8
0
  6
SOLIDLINE
 62
1
 66
  1
 10
0.0
 20
0.0
 30
0.0
 40
0.03
 41
0.03
 70
1
  0
VERTEX
  8
0
 10
8.15
 20
3.13
 30
0.0
 42
1
  0
VERTEX
  8
0
 10
8.17
 20
3.13
 30
0.0
 42
1
  0
SEQEND
  0
POLYLINE
  8
0
  6
SOLIDLINE
 62
1
 66
  1
 10
0.0
 20
0.0
 30
0.0
 40
0.03
 41
0.03
 70
1
  0
VERTEX
  8
0
 10
8.15
 20
3.09
 30
0.0
 42
1
  0
VERTEX
  8
0
 10
8.17
 20
3.09
 30
0.0
 42
1
  0
SEQEND
  0
POLYLINE
  8
0
  6
SOLIDLINE
 62
1
 66
  1
 10
0.0
 20
0.0
 30
0.0
 40
0.03
 41
0.03
 70
1
  0
VERTEX
  8
0
 10
8.53
 20
3.13
 30
0.0
 42
1
  0
VERTEX
  8
0
 10
8.55
 20
3.13
 30
0.0
 42
1
  0
SEQEND
  0
POLYLINE
  8
0
  6
SOLIDLINE
 62
1
 66
  1
 10
0.0
 20
0.0
 30
0.0
 40
0.03
 41
0.03
 70
1
  0
VERTEX
  8
0
 10
8.53
 20
3.09
 30
0.0
 42
1
  0
VERTEX
  8
0
 10
8.55
 20
3.09
 30
0.0
 42
1
  0
SEQEND
  0
ARC
  8
0
  6
SOLIDLINE
 62
249
 10
8.17
 20
3.13
 40
0.03
 50
108.435
 51
180
  0
LINE
  8
0
  6
SOLIDLINE
 62
249
 10
8.16
 20
3.16
 11
8.54
 21
3.16
  0
ARC
  8
0
  6
SOLIDLINE
 62
249
 10
8.54
 20
3.13
 40
0.03
 50
2.92403e-010
 51
90
  0
LINE
  8
0
  6
SOLIDLINE
 62
249
 10
8.57
 20
3.13
 11
8.57
 21
3.09
  0
ARC
  8
0
  6
SOLIDLINE
 62
249
 10
8.17
 20
3.1
 40
0.04
 50
194.036
 51
255.964
  0
LINE
  8
0
  6
SOLIDLINE
 62
249
 10
8.54
 20
3.06
 11
8.16
 21
3.06
  0
ARC
  8
0
  6
SOLIDLINE
 62
249
 10
8.54
 20
3.1
 40
0.04
 50
270
 51
341.565
  0
LINE
  8
0
  6
SOLIDLINE
 62
249
 10
8.13
 20
3.09
 11
8.13
 21
3.13
  0
TEXT
  8
0
 62
7
 10
8.15
 20
3.09355
 30
0.0
 40
0.04704
  1
500.00mA
 50
0
 41
1.098
 72
0
 11
8.15
 21
3.14059
 31
0
 73
3
  0
SOLID
  8
0
  6
SOLIDLINE
 62
1
 10
9.33
 20
3.56
 30
0.0
 11
9.33
 21
3.52
 31
0.0
 12
9.77
 22
3.56
 32
0.0
 13
9.77
 23
3.52
 33
0.0
  0
SOLID
  8
0
  6
SOLIDLINE
 62
1
 10
9.36
 20
3.59
 30
0.0
 11
9.36
 21
3.49
 31
0.0
 12
9.74
 22
3.59
 32
0.0
 13
9.74
 23
3.49
 33
0.0
  0
POLYLINE
  8
0
  6
SOLIDLINE
 62
1
 66
  1
 10
0.0
 20
0.0
 30
0.0
 40
0.03
 41
0.03
 70
1
  0
VERTEX
  8
0
 10
9.35
 20
3.56
 30
0.0
 42
1
  0
VERTEX
  8
0
 10
9.37
 20
3.56
 30
0.0
 42
1
  0
SEQEND
  0
POLYLINE
  8
0
  6
SOLIDLINE
 62
1
 66
  1
 10
0.0
 20
0.0
 30
0.0
 40
0.03
 41
0.03
 70
1
  0
VERTEX
  8
0
 10
9.35
 20
3.52
 30
0.0
 42
1
  0
VERTEX
  8
0
 10
9.37
 20
3.52
 30
0.0
 42
1
  0
SEQEND
  0
POLYLINE
  8
0
  6
SOLIDLINE
 62
1
 66
  1
 10
0.0
 20
0.0
 30
0.0
 40
0.03
 41
0.03
 70
1
  0
VERTEX
  8
0
 10
9.73
 20
3.56
 30
0.0
 42
1
  0
VERTEX
  8
0
 10
9.75
 20
3.56
 30
0.0
 42
1
  0
SEQEND
  0
POLYLINE
  8
0
  6
SOLIDLINE
 62
1
 66
  1
 10
0.0
 20
0.0
 30
0.0
 40
0.03
 41
0.03
 70
1
  0
VERTEX
  8
0
 10
9.73
 20
3.52
 30
0.0
 42
1
  0
VERTEX
  8
0
 10
9.75
 20
3.52
 30
0.0
 42
1
  0
SEQEND
  0
ARC
  8
0
  6
SOLIDLINE
 62
249
 10
9.37
 20
3.56
 40
0.03
 50
108.435
 51
180
  0
LINE
  8
0
  6
SOLIDLINE
 62
249
 10
9.36
 20
3.59
 11
9.74
 21
3.59
  0
ARC
  8
0
  6
SOLIDLINE
 62
249
 10
9.74
 20
3.56
 40
0.03
 50
2.92403e-010
 51
90
  0
LINE
  8
0
  6
SOLIDLINE
 62
249
 10
9.77
 20
3.56
 11
9.77
 21
3.52
  0
ARC
  8
0
  6
SOLIDLINE
 62
249
 10
9.37
 20
3.53
 40
0.04
 50
194.036
 51
255.964
  0
LINE
  8
0
  6
SOLIDLINE
 62
249
 10
9.74
 20
3.49
 11
9.36
 21
3.49
  0
ARC
  8
0
  6
SOLIDLINE
 62
249
 10
9.74
 20
3.53
 40
0.04
 50
270
 51
341.565
  0
LINE
  8
0
  6
SOLIDLINE
 62
249
 10
9.33
 20
3.52
 11
9.33
 21
3.56
  0
TEXT
  8
0
 62
7
 10
9.35
 20
3.49059
 30
0.0
 40
0.04704
  1
500.00mA
 50
0
 41
1.098
 72
0
 11
9.35
 21
3.49059
 31
0
 73
0
  0
SOLID
  8
0
  6
SOLIDLINE
 62
1
 10
7.33
 20
3.63
 30
0.0
 11
7.33
 21
3.59
 31
0.0
 12
7.47
 22
3.63
 32
0.0
 13
7.47
 23
3.59
 33
0.0
  0
SOLID
  8
0
  6
SOLIDLINE
 62
1
 10
7.36
 20
3.66
 30
0.0
 11
7.36
 21
3.56
 31
0.0
 12
7.44
 22
3.66
 32
0.0
 13
7.44
 23
3.56
 33
0.0
  0
POLYLINE
  8
0
  6
SOLIDLINE
 62
1
 66
  1
 10
0.0
 20
0.0
 30
0.0
 40
0.03
 41
0.03
 70
1
  0
VERTEX
  8
0
 10
7.35
 20
3.63
 30
0.0
 42
1
  0
VERTEX
  8
0
 10
7.37
 20
3.63
 30
0.0
 42
1
  0
SEQEND
  0
POLYLINE
  8
0
  6
SOLIDLINE
 62
1
 66
  1
 10
0.0
 20
0.0
 30
0.0
 40
0.03
 41
0.03
 70
1
  0
VERTEX
  8
0
 10
7.35
 20
3.59
 30
0.0
 42
1
  0
VERTEX
  8
0
 10
7.37
 20
3.59
 30
0.0
 42
1
  0
SEQEND
  0
POLYLINE
  8
0
  6
SOLIDLINE
 62
1
 66
  1
 10
0.0
 20
0.0
 30
0.0
 40
0.03
 41
0.03
 70
1
  0
VERTEX
  8
0
 10
7.43
 20
3.63
 30
0.0
 42
1
  0
VERTEX
  8
0
 10
7.45
 20
3.63
 30
0.0
 42
1
  0
SEQEND
  0
POLYLINE
  8
0
  6
SOLIDLINE
 62
1
 66
  1
 10
0.0
 20
0.0
 30
0.0
 40
0.03
 41
0.03
 70
1
  0
VERTEX
  8
0
 10
7.43
 20
3.59
 30
0.0
 42
1
  0
VERTEX
  8
0
 10
7.45
 20
3.59
 30
0.0
 42
1
  0
SEQEND
  0
ARC
  8
0
  6
SOLIDLINE
 62
249
 10
7.37
 20
3.63
 40
0.03
 50
108.435
 51
180
  0
LINE
  8
0
  6
SOLIDLINE
 62
249
 10
7.36
 20
3.66
 11
7.44
 21
3.66
  0
ARC
  8
0
  6
SOLIDLINE
 62
249
 10
7.44
 20
3.63
 40
0.03
 50
2.92403e-010
 51
90
  0
LINE
  8
0
  6
SOLIDLINE
 62
249
 10
7.47
 20
3.63
 11
7.47
 21
3.59
  0
ARC
  8
0
  6
SOLIDLINE
 62
249
 10
7.37
 20
3.6
 40
0.04
 50
194.036
 51
255.964
  0
LINE
  8
0
  6
SOLIDLINE
 62
249
 10
7.44
 20
3.56
 11
7.36
 21
3.56
  0
ARC
  8
0
  6
SOLIDLINE
 62
249
 10
7.44
 20
3.6
 40
0.04
 50
270
 51
341.565
  0
LINE
  8
0
  6
SOLIDLINE
 62
249
 10
7.33
 20
3.59
 11
7.33
 21
3.63
  0
TEXT
  8
0
 62
7
 10
7.35
 20
3.59355
 30
0.0
 40
0.04704
  1
0A
 50
0
 41
1.098
 72
0
 11
7.35
 21
3.64059
 31
0
 73
3
  0
SOLID
  8
0
  6
SOLIDLINE
 62
1
 10
8.13
 20
4.16
 30
0.0
 11
8.13
 21
4.12
 31
0.0
 12
8.57
 22
4.16
 32
0.0
 13
8.57
 23
4.12
 33
0.0
  0
SOLID
  8
0
  6
SOLIDLINE
 62
1
 10
8.16
 20
4.19
 30
0.0
 11
8.16
 21
4.09
 31
0.0
 12
8.54
 22
4.19
 32
0.0
 13
8.54
 23
4.09
 33
0.0
  0
POLYLINE
  8
0
  6
SOLIDLINE
 62
1
 66
  1
 10
0.0
 20
0.0
 30
0.0
 40
0.03
 41
0.03
 70
1
  0
VERTEX
  8
0
 10
8.15
 20
4.16
 30
0.0
 42
1
  0
VERTEX
  8
0
 10
8.17
 20
4.16
 30
0.0
 42
1
  0
SEQEND
  0
POLYLINE
  8
0
  6
SOLIDLINE
 62
1
 66
  1
 10
0.0
 20
0.0
 30
0.0
 40
0.03
 41
0.03
 70
1
  0
VERTEX
  8
0
 10
8.15
 20
4.12
 30
0.0
 42
1
  0
VERTEX
  8
0
 10
8.17
 20
4.12
 30
0.0
 42
1
  0
SEQEND
  0
POLYLINE
  8
0
  6
SOLIDLINE
 62
1
 66
  1
 10
0.0
 20
0.0
 30
0.0
 40
0.03
 41
0.03
 70
1
  0
VERTEX
  8
0
 10
8.53
 20
4.16
 30
0.0
 42
1
  0
VERTEX
  8
0
 10
8.55
 20
4.16
 30
0.0
 42
1
  0
SEQEND
  0
POLYLINE
  8
0
  6
SOLIDLINE
 62
1
 66
  1
 10
0.0
 20
0.0
 30
0.0
 40
0.03
 41
0.03
 70
1
  0
VERTEX
  8
0
 10
8.53
 20
4.12
 30
0.0
 42
1
  0
VERTEX
  8
0
 10
8.55
 20
4.12
 30
0.0
 42
1
  0
SEQEND
  0
ARC
  8
0
  6
SOLIDLINE
 62
249
 10
8.17
 20
4.16
 40
0.03
 50
108.435
 51
180
  0
LINE
  8
0
  6
SOLIDLINE
 62
249
 10
8.16
 20
4.19
 11
8.54
 21
4.19
  0
ARC
  8
0
  6
SOLIDLINE
 62
249
 10
8.54
 20
4.16
 40
0.03
 50
2.92403e-010
 51
90
  0
LINE
  8
0
  6
SOLIDLINE
 62
249
 10
8.57
 20
4.16
 11
8.57
 21
4.12
  0
ARC
  8
0
  6
SOLIDLINE
 62
249
 10
8.17
 20
4.13
 40
0.04
 50
194.036
 51
255.964
  0
LINE
  8
0
  6
SOLIDLINE
 62
249
 10
8.54
 20
4.09
 11
8.16
 21
4.09
  0
ARC
  8
0
  6
SOLIDLINE
 62
249
 10
8.54
 20
4.13
 40
0.04
 50
270
 51
341.565
  0
LINE
  8
0
  6
SOLIDLINE
 62
249
 10
8.13
 20
4.12
 11
8.13
 21
4.16
  0
TEXT
  8
0
 62
7
 10
8.7852
 20
4.09059
 30
0.0
 40
0.04704
  1
500.00mA
 50
0
 41
1.098
 72
2
 11
8.55
 21
4.09059
 31
0
 73
0
  0
ENDSEC
  0
EOF
