  0
SECTION
  2
HEADER
  9
$ACADVER
 1
AC1009
  9
$INSBASE
 10
0
 20
0
 30
0
  9
$LIMMIN
 10
0
 20
0
  9
$LIMMAX
 10
9.7
 20
7.2
  0
ENDSEC
  0
SECTION
  2
TABLES
  0
TABLE
  2
LTYPE
 70
 25
  0
LTYPE
  2
SOLIDLINE
 70
64
  3
Solid line
 72
65
 73
 0
 40
0.0
  0
LTYPE
  2
DASHEDLINE
 70
64
  3
Dashed line
 72
65
 73
2
 40
0.05
 49
0.035
 49
5g
  0
LTYPE
  2
DOTTEDLINE
 70
64
  3
Dotted line
 72
65
 73
2
 40
-0.015
 49
0.02
 49
0.01
  0
ENDTAB
  0
TABLE
  2
LAYER
 70
1
  0
LAYER
  2
0
  6
SOLIDLINE
 62
7
 70
0
  0
ENDTAB
  0
TABLE
  2
STYLE
 70
1
  0
STYLE
  2
STANDARD
 70
0
 40
0.0
 41
1.0
 50
0.0
 71
0
 42
0.2
  3
TXT
  0
ENDTAB
  0
ENDSEC
  0
SECTION
  2
BLOCKS
  0
ENDSEC
  0
SECTION
  2
ENTITIES
  0
LINE
  8
0
  6
SOLIDLINE
 62
7
 10
6.42
 20
4.86
 11
6.45
 21
4.94
  0
LINE
  8
0
  6
SOLIDLINE
 62
7
 10
6.33
 20
4.94
 11
6.36
 21
4.86
  0
LINE
  8
0
  6
SOLIDLINE
 62
7
 10
6.36
 20
4.86
 11
6.39
 21
4.94
  0
LINE
  8
0
  6
SOLIDLINE
 62
7
 10
6.39
 20
4.94
 11
6.42
 21
4.86
  0
LINE
  8
0
  6
SOLIDLINE
 62
7
 10
6.45
 20
4.94
 11
6.48
 21
4.86
  0
LINE
  8
0
  6
SOLIDLINE
 62
7
 10
6.31
 20
4.9
 11
6.33
 21
4.94
  0
LINE
  8
0
  6
SOLIDLINE
 62
7
 10
6.48
 20
4.86
 11
6.5
 21
4.9
  0
LINE
  8
0
  6
SOLIDLINE
 62
7
 10
6.3
 20
4.9
 11
6.31
 21
4.9
  0
LINE
  8
0
  6
SOLIDLINE
 62
5
 10
6.6
 20
4.9
 11
6.5
 21
4.9
  0
LINE
  8
0
  6
SOLIDLINE
 62
5
 10
6.2
 20
4.9
 11
6.3
 21
4.9
  0
TEXT
  8
0
 62
249
 10
6.35
 20
4.99059
 30
0.0
 40
0.04704
  1
R7
 50
0
 41
1.098
 72
0
 11
6.35
 21
4.99059
 31
0
 73
0
  0
TEXT
  8
0
 62
249
 10
6.35
 20
4.74059
 30
0.0
 40
0.04704
  1
20
 50
0
 41
1.098
 72
0
 11
6.35
 21
4.74059
 31
0
 73
0
  0
SOLID
  8
0
  6
SOLIDLINE
 62
1
 10
5.83
 20
5.01
 30
0.0
 11
5.83
 21
4.97
 31
0.0
 12
6.27
 22
5.01
 32
0.0
 13
6.27
 23
4.97
 33
0.0
  0
SOLID
  8
0
  6
SOLIDLINE
 62
1
 10
5.86
 20
5.04
 30
0.0
 11
5.86
 21
4.94
 31
0.0
 12
6.24
 22
5.04
 32
0.0
 13
6.24
 23
4.94
 33
0.0
  0
POLYLINE
  8
0
  6
SOLIDLINE
 62
1
 66
  1
 10
0.0
 20
0.0
 30
0.0
 40
0.03
 41
0.03
 70
1
  0
VERTEX
  8
0
 10
5.85
 20
5.01
 30
0.0
 42
1
  0
VERTEX
  8
0
 10
5.87
 20
5.01
 30
0.0
 42
1
  0
SEQEND
  0
POLYLINE
  8
0
  6
SOLIDLINE
 62
1
 66
  1
 10
0.0
 20
0.0
 30
0.0
 40
0.03
 41
0.03
 70
1
  0
VERTEX
  8
0
 10
5.85
 20
4.97
 30
0.0
 42
1
  0
VERTEX
  8
0
 10
5.87
 20
4.97
 30
0.0
 42
1
  0
SEQEND
  0
POLYLINE
  8
0
  6
SOLIDLINE
 62
1
 66
  1
 10
0.0
 20
0.0
 30
0.0
 40
0.03
 41
0.03
 70
1
  0
VERTEX
  8
0
 10
6.23
 20
5.01
 30
0.0
 42
1
  0
VERTEX
  8
0
 10
6.25
 20
5.01
 30
0.0
 42
1
  0
SEQEND
  0
POLYLINE
  8
0
  6
SOLIDLINE
 62
1
 66
  1
 10
0.0
 20
0.0
 30
0.0
 40
0.03
 41
0.03
 70
1
  0
VERTEX
  8
0
 10
6.23
 20
4.97
 30
0.0
 42
1
  0
VERTEX
  8
0
 10
6.25
 20
4.97
 30
0.0
 42
1
  0
SEQEND
  0
ARC
  8
0
  6
SOLIDLINE
 62
249
 10
5.87
 20
5.01
 40
0.03
 50
108.435
 51
180
  0
LINE
  8
0
  6
SOLIDLINE
 62
249
 10
5.86
 20
5.04
 11
6.24
 21
5.04
  0
ARC
  8
0
  6
SOLIDLINE
 62
249
 10
6.24
 20
5.01
 40
0.03
 50
2.92403e-010
 51
90
  0
LINE
  8
0
  6
SOLIDLINE
 62
249
 10
6.27
 20
5.01
 11
6.27
 21
4.97
  0
ARC
  8
0
  6
SOLIDLINE
 62
249
 10
5.87
 20
4.98
 40
0.04
 50
194.036
 51
255.964
  0
LINE
  8
0
  6
SOLIDLINE
 62
249
 10
6.24
 20
4.94
 11
5.86
 21
4.94
  0
ARC
  8
0
  6
SOLIDLINE
 62
249
 10
6.24
 20
4.98
 40
0.04
 50
270
 51
341.565
  0
LINE
  8
0
  6
SOLIDLINE
 62
249
 10
5.83
 20
4.97
 11
5.83
 21
5.01
  0
TEXT
  8
0
 62
7
 10
6.4852
 20
4.94059
 30
0.0
 40
0.04704
  1
500.00mA
 50
0
 41
1.098
 72
2
 11
6.25
 21
4.94059
 31
0
 73
0
  0
CIRCLE
  8
0
  6
SOLIDLINE
 62
5
 10
7.1
 20
4.2
 30
0.0
 40
0.1
  0
LINE
  8
0
  6
SOLIDLINE
 62
5
 10
7.1
 20
4.15
 11
7.05
 21
4.2
  0
LINE
  8
0
  6
SOLIDLINE
 62
5
 10
7.1
 20
4.15
 11
7.15
 21
4.2
  0
LINE
  8
0
  6
SOLIDLINE
 62
5
 10
7.1
 20
4.25
 11
7.1
 21
4.15
  0
LINE
  8
0
  6
SOLIDLINE
 62
5
 10
7.1
 20
4.4
 11
7.1
 21
4.3
  0
TEXT
  8
0
 62
94
 10
7.11103
 20
4.25294
 30
0.0
 40
0.03528
  1
+
 50
0
 41
1.098
 72
1
 11
7.1
 21
4.25294
 31
0
 73
0
  0
LINE
  8
0
  6
SOLIDLINE
 62
5
 10
7.1
 20
4
 11
7.1
 21
4.1
  0
TEXT
  8
0
 62
94
 10
7.11103
 20
4.09294
 30
0.0
 40
0.03528
  1
-
 50
0
 41
1.098
 72
1
 11
7.1
 21
4.09294
 31
0
 73
0
  0
TEXT
  8
0
 62
249
 10
6.9882
 20
4.39059
 30
0.0
 40
0.04704
  1
DC=0.5
 50
0
 41
1.098
 72
1
 11
6.9
 21
4.39059
 31
0
 73
0
  0
TEXT
  8
0
 62
249
 10
7.2441
 20
4.29059
 30
0.0
 40
0.04704
  1
IS3
 50
0
 41
1.098
 72
1
 11
7.2
 21
4.29059
 31
0
 73
0
  0
SOLID
  8
0
  6
SOLIDLINE
 62
1
 10
7.13
 20
4.51
 30
0.0
 11
7.13
 21
4.47
 31
0.0
 12
7.57
 22
4.51
 32
0.0
 13
7.57
 23
4.47
 33
0.0
  0
SOLID
  8
0
  6
SOLIDLINE
 62
1
 10
7.16
 20
4.54
 30
0.0
 11
7.16
 21
4.44
 31
0.0
 12
7.54
 22
4.54
 32
0.0
 13
7.54
 23
4.44
 33
0.0
  0
POLYLINE
  8
0
  6
SOLIDLINE
 62
1
 66
  1
 10
0.0
 20
0.0
 30
0.0
 40
0.03
 41
0.03
 70
1
  0
VERTEX
  8
0
 10
7.15
 20
4.51
 30
0.0
 42
1
  0
VERTEX
  8
0
 10
7.17
 20
4.51
 30
0.0
 42
1
  0
SEQEND
  0
POLYLINE
  8
0
  6
SOLIDLINE
 62
1
 66
  1
 10
0.0
 20
0.0
 30
0.0
 40
0.03
 41
0.03
 70
1
  0
VERTEX
  8
0
 10
7.15
 20
4.47
 30
0.0
 42
1
  0
VERTEX
  8
0
 10
7.17
 20
4.47
 30
0.0
 42
1
  0
SEQEND
  0
POLYLINE
  8
0
  6
SOLIDLINE
 62
1
 66
  1
 10
0.0
 20
0.0
 30
0.0
 40
0.03
 41
0.03
 70
1
  0
VERTEX
  8
0
 10
7.53
 20
4.51
 30
0.0
 42
1
  0
VERTEX
  8
0
 10
7.55
 20
4.51
 30
0.0
 42
1
  0
SEQEND
  0
POLYLINE
  8
0
  6
SOLIDLINE
 62
1
 66
  1
 10
0.0
 20
0.0
 30
0.0
 40
0.03
 41
0.03
 70
1
  0
VERTEX
  8
0
 10
7.53
 20
4.47
 30
0.0
 42
1
  0
VERTEX
  8
0
 10
7.55
 20
4.47
 30
0.0
 42
1
  0
SEQEND
  0
ARC
  8
0
  6
SOLIDLINE
 62
249
 10
7.17
 20
4.51
 40
0.03
 50
108.435
 51
180
  0
LINE
  8
0
  6
SOLIDLINE
 62
249
 10
7.16
 20
4.54
 11
7.54
 21
4.54
  0
ARC
  8
0
  6
SOLIDLINE
 62
249
 10
7.54
 20
4.51
 40
0.03
 50
2.92403e-010
 51
90
  0
LINE
  8
0
  6
SOLIDLINE
 62
249
 10
7.57
 20
4.51
 11
7.57
 21
4.47
  0
ARC
  8
0
  6
SOLIDLINE
 62
249
 10
7.17
 20
4.48
 40
0.04
 50
194.036
 51
255.964
  0
LINE
  8
0
  6
SOLIDLINE
 62
249
 10
7.54
 20
4.44
 11
7.16
 21
4.44
  0
ARC
  8
0
  6
SOLIDLINE
 62
249
 10
7.54
 20
4.48
 40
0.04
 50
270
 51
341.565
  0
LINE
  8
0
  6
SOLIDLINE
 62
249
 10
7.13
 20
4.47
 11
7.13
 21
4.51
  0
TEXT
  8
0
 62
7
 10
7.15
 20
4.44059
 30
0.0
 40
0.04704
  1
500.00mA
 50
0
 41
1.098
 72
0
 11
7.15
 21
4.44059
 31
0
 73
0
  0
LINE
  8
0
  6
SOLIDLINE
 62
249
 10
5.54
 20
4.22
 11
5.46
 21
4.25
  0
LINE
  8
0
  6
SOLIDLINE
 62
249
 10
5.46
 20
4.13
 11
5.54
 21
4.16
  0
LINE
  8
0
  6
SOLIDLINE
 62
249
 10
5.54
 20
4.16
 11
5.46
 21
4.19
  0
LINE
  8
0
  6
SOLIDLINE
 62
249
 10
5.46
 20
4.19
 11
5.54
 21
4.22
  0
LINE
  8
0
  6
SOLIDLINE
 62
249
 10
5.46
 20
4.25
 11
5.54
 21
4.28
  0
LINE
  8
0
  6
SOLIDLINE
 62
249
 10
5.5
 20
4.11
 11
5.46
 21
4.13
  0
LINE
  8
0
  6
SOLIDLINE
 62
249
 10
5.54
 20
4.28
 11
5.5
 21
4.3
  0
LINE
  8
0
  6
SOLIDLINE
 62
249
 10
5.5
 20
4.1
 11
5.5
 21
4.11
  0
LINE
  8
0
  6
SOLIDLINE
 62
5
 10
5.5
 20
4.4
 11
5.5
 21
4.3
  0
LINE
  8
0
  6
SOLIDLINE
 62
5
 10
5.5
 20
4
 11
5.5
 21
4.1
  0
TEXT
  8
0
 62
249
 10
5.28
 20
4.14059
 30
0.0
 40
0.04704
  1
R6
 50
0
 41
1.098
 72
0
 11
5.28
 21
4.14059
 31
0
 73
0
  0
TEXT
  8
0
 62
249
 10
5.53
 20
4.14059
 30
0.0
 40
0.04704
  1
12
 50
0
 41
1.098
 72
0
 11
5.53
 21
4.14059
 31
0
 73
0
  0
SOLID
  8
0
  6
SOLIDLINE
 62
1
 10
5.53
 20
4.03
 30
0.0
 11
5.53
 21
3.99
 31
0.0
 12
5.97
 22
4.03
 32
0.0
 13
5.97
 23
3.99
 33
0.0
  0
SOLID
  8
0
  6
SOLIDLINE
 62
1
 10
5.56
 20
4.06
 30
0.0
 11
5.56
 21
3.96
 31
0.0
 12
5.94
 22
4.06
 32
0.0
 13
5.94
 23
3.96
 33
0.0
  0
POLYLINE
  8
0
  6
SOLIDLINE
 62
1
 66
  1
 10
0.0
 20
0.0
 30
0.0
 40
0.03
 41
0.03
 70
1
  0
VERTEX
  8
0
 10
5.55
 20
4.03
 30
0.0
 42
1
  0
VERTEX
  8
0
 10
5.57
 20
4.03
 30
0.0
 42
1
  0
SEQEND
  0
POLYLINE
  8
0
  6
SOLIDLINE
 62
1
 66
  1
 10
0.0
 20
0.0
 30
0.0
 40
0.03
 41
0.03
 70
1
  0
VERTEX
  8
0
 10
5.55
 20
3.99
 30
0.0
 42
1
  0
VERTEX
  8
0
 10
5.57
 20
3.99
 30
0.0
 42
1
  0
SEQEND
  0
POLYLINE
  8
0
  6
SOLIDLINE
 62
1
 66
  1
 10
0.0
 20
0.0
 30
0.0
 40
0.03
 41
0.03
 70
1
  0
VERTEX
  8
0
 10
5.93
 20
4.03
 30
0.0
 42
1
  0
VERTEX
  8
0
 10
5.95
 20
4.03
 30
0.0
 42
1
  0
SEQEND
  0
POLYLINE
  8
0
  6
SOLIDLINE
 62
1
 66
  1
 10
0.0
 20
0.0
 30
0.0
 40
0.03
 41
0.03
 70
1
  0
VERTEX
  8
0
 10
5.93
 20
3.99
 30
0.0
 42
1
  0
VERTEX
  8
0
 10
5.95
 20
3.99
 30
0.0
 42
1
  0
SEQEND
  0
ARC
  8
0
  6
SOLIDLINE
 62
249
 10
5.57
 20
4.03
 40
0.03
 50
108.435
 51
180
  0
LINE
  8
0
  6
SOLIDLINE
 62
249
 10
5.56
 20
4.06
 11
5.94
 21
4.06
  0
ARC
  8
0
  6
SOLIDLINE
 62
249
 10
5.94
 20
4.03
 40
0.03
 50
2.92403e-010
 51
90
  0
LINE
  8
0
  6
SOLIDLINE
 62
249
 10
5.97
 20
4.03
 11
5.97
 21
3.99
  0
ARC
  8
0
  6
SOLIDLINE
 62
249
 10
5.57
 20
4
 40
0.04
 50
194.036
 51
255.964
  0
LINE
  8
0
  6
SOLIDLINE
 62
249
 10
5.94
 20
3.96
 11
5.56
 21
3.96
  0
ARC
  8
0
  6
SOLIDLINE
 62
249
 10
5.94
 20
4
 40
0.04
 50
270
 51
341.565
  0
LINE
  8
0
  6
SOLIDLINE
 62
249
 10
5.53
 20
3.99
 11
5.53
 21
4.03
  0
TEXT
  8
0
 62
7
 10
5.55
 20
3.99355
 30
0.0
 40
0.04704
  1
500.00mA
 50
0
 41
1.098
 72
0
 11
5.55
 21
4.04059
 31
0
 73
3
  0
LINE
  8
0
  6
SOLIDLINE
 62
5
 10
5.47
 20
3.58
 11
5.53
 21
3.58
  0
LINE
  8
0
  6
SOLIDLINE
 62
5
 10
5.49
 20
3.56
 11
5.51
 21
3.56
  0
LINE
  8
0
  6
SOLIDLINE
 62
5
 10
5.45
 20
3.6
 11
5.55
 21
3.6
  0
LINE
  8
0
  6
SOLIDLINE
 62
5
 10
5.5
 20
3.7
 11
5.5
 21
3.6
  0
LINE
  8
0
  6
SOLIDLINE
 62
249
 10
5.5
 20
4
 11
5.5
 21
3.7
  0
LINE
  8
0
  6
SOLIDLINE
 62
249
 10
5.5
 20
3.7
 11
7.1
 21
3.7
  0
SOLID
  8
0
  6
SOLIDLINE
 62
5
 10
6.23
 20
3.69
 30
0.0
 11
6.23
 21
3.65
 31
0.0
 12
6.37
 22
3.69
 32
0.0
 13
6.37
 23
3.65
 33
0.0
  0
SOLID
  8
0
  6
SOLIDLINE
 62
5
 10
6.26
 20
3.72
 30
0.0
 11
6.26
 21
3.62
 31
0.0
 12
6.34
 22
3.72
 32
0.0
 13
6.34
 23
3.62
 33
0.0
  0
POLYLINE
  8
0
  6
SOLIDLINE
 62
5
 66
  1
 10
0.0
 20
0.0
 30
0.0
 40
0.03
 41
0.03
 70
1
  0
VERTEX
  8
0
 10
6.25
 20
3.69
 30
0.0
 42
1
  0
VERTEX
  8
0
 10
6.27
 20
3.69
 30
0.0
 42
1
  0
SEQEND
  0
POLYLINE
  8
0
  6
SOLIDLINE
 62
5
 66
  1
 10
0.0
 20
0.0
 30
0.0
 40
0.03
 41
0.03
 70
1
  0
VERTEX
  8
0
 10
6.25
 20
3.65
 30
0.0
 42
1
  0
VERTEX
  8
0
 10
6.27
 20
3.65
 30
0.0
 42
1
  0
SEQEND
  0
POLYLINE
  8
0
  6
SOLIDLINE
 62
5
 66
  1
 10
0.0
 20
0.0
 30
0.0
 40
0.03
 41
0.03
 70
1
  0
VERTEX
  8
0
 10
6.33
 20
3.69
 30
0.0
 42
1
  0
VERTEX
  8
0
 10
6.35
 20
3.69
 30
0.0
 42
1
  0
SEQEND
  0
POLYLINE
  8
0
  6
SOLIDLINE
 62
5
 66
  1
 10
0.0
 20
0.0
 30
0.0
 40
0.03
 41
0.03
 70
1
  0
VERTEX
  8
0
 10
6.33
 20
3.65
 30
0.0
 42
1
  0
VERTEX
  8
0
 10
6.35
 20
3.65
 30
0.0
 42
1
  0
SEQEND
  0
ARC
  8
0
  6
SOLIDLINE
 62
249
 10
6.27
 20
3.69
 40
0.03
 50
108.435
 51
180
  0
LINE
  8
0
  6
SOLIDLINE
 62
249
 10
6.26
 20
3.72
 11
6.34
 21
3.72
  0
ARC
  8
0
  6
SOLIDLINE
 62
249
 10
6.34
 20
3.69
 40
0.03
 50
2.92403e-010
 51
90
  0
LINE
  8
0
  6
SOLIDLINE
 62
249
 10
6.37
 20
3.69
 11
6.37
 21
3.65
  0
ARC
  8
0
  6
SOLIDLINE
 62
249
 10
6.27
 20
3.66
 40
0.04
 50
194.036
 51
255.964
  0
LINE
  8
0
  6
SOLIDLINE
 62
249
 10
6.34
 20
3.62
 11
6.26
 21
3.62
  0
ARC
  8
0
  6
SOLIDLINE
 62
249
 10
6.34
 20
3.66
 40
0.04
 50
270
 51
341.565
  0
LINE
  8
0
  6
SOLIDLINE
 62
249
 10
6.23
 20
3.65
 11
6.23
 21
3.69
  0
TEXT
  8
0
 62
7
 10
6.3294
 20
3.65355
 30
0.0
 40
0.04704
  1
0V
 50
0
 41
1.098
 72
1
 11
6.3
 21
3.70059
 31
0
 73
3
  0
LINE
  8
0
  6
SOLIDLINE
 62
249
 10
7.1
 20
3.7
 11
7.1
 21
4
  0
LINE
  8
0
  6
SOLIDLINE
 62
249
 10
6.2
 20
4.9
 11
5.5
 21
4.9
  0
SOLID
  8
0
  6
SOLIDLINE
 62
5
 10
5.61
 20
4.79
 30
0.0
 11
5.61
 21
4.75
 31
0.0
 12
6
 22
4.79
 32
0.0
 13
6
 23
4.75
 33
0.0
  0
SOLID
  8
0
  6
SOLIDLINE
 62
5
 10
5.64
 20
4.82
 30
0.0
 11
5.64
 21
4.72
 31
0.0
 12
5.97
 22
4.82
 32
0.0
 13
5.97
 23
4.72
 33
0.0
  0
POLYLINE
  8
0
  6
SOLIDLINE
 62
5
 66
  1
 10
0.0
 20
0.0
 30
0.0
 40
0.03
 41
0.03
 70
1
  0
VERTEX
  8
0
 10
5.63
 20
4.79
 30
0.0
 42
1
  0
VERTEX
  8
0
 10
5.65
 20
4.79
 30
0.0
 42
1
  0
SEQEND
  0
POLYLINE
  8
0
  6
SOLIDLINE
 62
5
 66
  1
 10
0.0
 20
0.0
 30
0.0
 40
0.03
 41
0.03
 70
1
  0
VERTEX
  8
0
 10
5.63
 20
4.75
 30
0.0
 42
1
  0
VERTEX
  8
0
 10
5.65
 20
4.75
 30
0.0
 42
1
  0
SEQEND
  0
POLYLINE
  8
0
  6
SOLIDLINE
 62
5
 66
  1
 10
0.0
 20
0.0
 30
0.0
 40
0.03
 41
0.03
 70
1
  0
VERTEX
  8
0
 10
5.96
 20
4.79
 30
0.0
 42
1
  0
VERTEX
  8
0
 10
5.98
 20
4.79
 30
0.0
 42
1
  0
SEQEND
  0
POLYLINE
  8
0
  6
SOLIDLINE
 62
5
 66
  1
 10
0.0
 20
0.0
 30
0.0
 40
0.03
 41
0.03
 70
1
  0
VERTEX
  8
0
 10
5.96
 20
4.75
 30
0.0
 42
1
  0
VERTEX
  8
0
 10
5.98
 20
4.75
 30
0.0
 42
1
  0
SEQEND
  0
ARC
  8
0
  6
SOLIDLINE
 62
249
 10
5.65
 20
4.79
 40
0.03
 50
108.435
 51
180
  0
LINE
  8
0
  6
SOLIDLINE
 62
249
 10
5.64
 20
4.82
 11
5.97
 21
4.82
  0
ARC
  8
0
  6
SOLIDLINE
 62
249
 10
5.97
 20
4.79
 40
0.03
 50
2.92403e-010
 51
90
  0
LINE
  8
0
  6
SOLIDLINE
 62
249
 10
6
 20
4.79
 11
6
 21
4.75
  0
ARC
  8
0
  6
SOLIDLINE
 62
249
 10
5.65
 20
4.76
 40
0.04
 50
194.036
 51
255.964
  0
LINE
  8
0
  6
SOLIDLINE
 62
249
 10
5.97
 20
4.72
 11
5.64
 21
4.72
  0
ARC
  8
0
  6
SOLIDLINE
 62
249
 10
5.97
 20
4.76
 40
0.04
 50
270
 51
341.565
  0
LINE
  8
0
  6
SOLIDLINE
 62
249
 10
5.61
 20
4.75
 11
5.61
 21
4.79
  0
TEXT
  8
0
 62
7
 10
5.9029
 20
4.75355
 30
0.0
 40
0.04704
  1
-6.000V
 50
0
 41
1.098
 72
1
 11
5.8
 21
4.80059
 31
0
 73
3
  0
LINE
  8
0
  6
SOLIDLINE
 62
249
 10
5.5
 20
4.9
 11
5.5
 21
4.4
  0
LINE
  8
0
  6
SOLIDLINE
 62
249
 10
7.1
 20
4.4
 11
7.1
 21
4.9
  0
LINE
  8
0
  6
SOLIDLINE
 62
249
 10
7.1
 20
4.9
 11
6.6
 21
4.9
  0
SOLID
  8
0
  6
SOLIDLINE
 62
5
 10
6.66
 20
4.79
 30
0.0
 11
6.66
 21
4.75
 31
0.0
 12
7.05
 22
4.79
 32
0.0
 13
7.05
 23
4.75
 33
0.0
  0
SOLID
  8
0
  6
SOLIDLINE
 62
5
 10
6.69
 20
4.82
 30
0.0
 11
6.69
 21
4.72
 31
0.0
 12
7.02
 22
4.82
 32
0.0
 13
7.02
 23
4.72
 33
0.0
  0
POLYLINE
  8
0
  6
SOLIDLINE
 62
5
 66
  1
 10
0.0
 20
0.0
 30
0.0
 40
0.03
 41
0.03
 70
1
  0
VERTEX
  8
0
 10
6.68
 20
4.79
 30
0.0
 42
1
  0
VERTEX
  8
0
 10
6.7
 20
4.79
 30
0.0
 42
1
  0
SEQEND
  0
POLYLINE
  8
0
  6
SOLIDLINE
 62
5
 66
  1
 10
0.0
 20
0.0
 30
0.0
 40
0.03
 41
0.03
 70
1
  0
VERTEX
  8
0
 10
6.68
 20
4.75
 30
0.0
 42
1
  0
VERTEX
  8
0
 10
6.7
 20
4.75
 30
0.0
 42
1
  0
SEQEND
  0
POLYLINE
  8
0
  6
SOLIDLINE
 62
5
 66
  1
 10
0.0
 20
0.0
 30
0.0
 40
0.03
 41
0.03
 70
1
  0
VERTEX
  8
0
 10
7.01
 20
4.79
 30
0.0
 42
1
  0
VERTEX
  8
0
 10
7.03
 20
4.79
 30
0.0
 42
1
  0
SEQEND
  0
POLYLINE
  8
0
  6
SOLIDLINE
 62
5
 66
  1
 10
0.0
 20
0.0
 30
0.0
 40
0.03
 41
0.03
 70
1
  0
VERTEX
  8
0
 10
7.01
 20
4.75
 30
0.0
 42
1
  0
VERTEX
  8
0
 10
7.03
 20
4.75
 30
0.0
 42
1
  0
SEQEND
  0
ARC
  8
0
  6
SOLIDLINE
 62
249
 10
6.7
 20
4.79
 40
0.03
 50
108.435
 51
180
  0
LINE
  8
0
  6
SOLIDLINE
 62
249
 10
6.69
 20
4.82
 11
7.02
 21
4.82
  0
ARC
  8
0
  6
SOLIDLINE
 62
249
 10
7.02
 20
4.79
 40
0.03
 50
2.92403e-010
 51
90
  0
LINE
  8
0
  6
SOLIDLINE
 62
249
 10
7.05
 20
4.79
 11
7.05
 21
4.75
  0
ARC
  8
0
  6
SOLIDLINE
 62
249
 10
6.7
 20
4.76
 40
0.04
 50
194.036
 51
255.964
  0
LINE
  8
0
  6
SOLIDLINE
 62
249
 10
7.02
 20
4.72
 11
6.69
 21
4.72
  0
ARC
  8
0
  6
SOLIDLINE
 62
249
 10
7.02
 20
4.76
 40
0.04
 50
270
 51
341.565
  0
LINE
  8
0
  6
SOLIDLINE
 62
249
 10
6.66
 20
4.75
 11
6.66
 21
4.79
  0
TEXT
  8
0
 62
7
 10
6.9529
 20
4.75355
 30
0.0
 40
0.04704
  1
-16.00V
 50
0
 41
1.098
 72
1
 11
6.85
 21
4.80059
 31
0
 73
3
  0
POLYLINE
  8
0
  6
SOLIDLINE
 62
5
 66
  1
 10
0.0
 20
0.0
 30
0.0
 40
0.02
 41
0.02
 70
1
  0
VERTEX
  8
0
 10
5.49
 20
3.7
 30
0.0
 42
1
  0
VERTEX
  8
0
 10
5.51
 20
3.7
 30
0.0
 42
1
  0
SEQEND
  0
SOLID
  8
0
  6
SOLIDLINE
 62
5
 10
6.23
 20
3.69
 30
0.0
 11
6.23
 21
3.65
 31
0.0
 12
6.37
 22
3.69
 32
0.0
 13
6.37
 23
3.65
 33
0.0
  0
SOLID
  8
0
  6
SOLIDLINE
 62
5
 10
6.26
 20
3.72
 30
0.0
 11
6.26
 21
3.62
 31
0.0
 12
6.34
 22
3.72
 32
0.0
 13
6.34
 23
3.62
 33
0.0
  0
POLYLINE
  8
0
  6
SOLIDLINE
 62
5
 66
  1
 10
0.0
 20
0.0
 30
0.0
 40
0.03
 41
0.03
 70
1
  0
VERTEX
  8
0
 10
6.25
 20
3.69
 30
0.0
 42
1
  0
VERTEX
  8
0
 10
6.27
 20
3.69
 30
0.0
 42
1
  0
SEQEND
  0
POLYLINE
  8
0
  6
SOLIDLINE
 62
5
 66
  1
 10
0.0
 20
0.0
 30
0.0
 40
0.03
 41
0.03
 70
1
  0
VERTEX
  8
0
 10
6.25
 20
3.65
 30
0.0
 42
1
  0
VERTEX
  8
0
 10
6.27
 20
3.65
 30
0.0
 42
1
  0
SEQEND
  0
POLYLINE
  8
0
  6
SOLIDLINE
 62
5
 66
  1
 10
0.0
 20
0.0
 30
0.0
 40
0.03
 41
0.03
 70
1
  0
VERTEX
  8
0
 10
6.33
 20
3.69
 30
0.0
 42
1
  0
VERTEX
  8
0
 10
6.35
 20
3.69
 30
0.0
 42
1
  0
SEQEND
  0
POLYLINE
  8
0
  6
SOLIDLINE
 62
5
 66
  1
 10
0.0
 20
0.0
 30
0.0
 40
0.03
 41
0.03
 70
1
  0
VERTEX
  8
0
 10
6.33
 20
3.65
 30
0.0
 42
1
  0
VERTEX
  8
0
 10
6.35
 20
3.65
 30
0.0
 42
1
  0
SEQEND
  0
ARC
  8
0
  6
SOLIDLINE
 62
249
 10
6.27
 20
3.69
 40
0.03
 50
108.435
 51
180
  0
LINE
  8
0
  6
SOLIDLINE
 62
249
 10
6.26
 20
3.72
 11
6.34
 21
3.72
  0
ARC
  8
0
  6
SOLIDLINE
 62
249
 10
6.34
 20
3.69
 40
0.03
 50
2.92403e-010
 51
90
  0
LINE
  8
0
  6
SOLIDLINE
 62
249
 10
6.37
 20
3.69
 11
6.37
 21
3.65
  0
ARC
  8
0
  6
SOLIDLINE
 62
249
 10
6.27
 20
3.66
 40
0.04
 50
194.036
 51
255.964
  0
LINE
  8
0
  6
SOLIDLINE
 62
249
 10
6.34
 20
3.62
 11
6.26
 21
3.62
  0
ARC
  8
0
  6
SOLIDLINE
 62
249
 10
6.34
 20
3.66
 40
0.04
 50
270
 51
341.565
  0
LINE
  8
0
  6
SOLIDLINE
 62
249
 10
6.23
 20
3.65
 11
6.23
 21
3.69
  0
TEXT
  8
0
 62
7
 10
6.3294
 20
3.65355
 30
0.0
 40
0.04704
  1
0V
 50
0
 41
1.098
 72
1
 11
6.3
 21
3.70059
 31
0
 73
3
  0
SOLID
  8
0
  6
SOLIDLINE
 62
5
 10
5.61
 20
4.79
 30
0.0
 11
5.61
 21
4.75
 31
0.0
 12
6
 22
4.79
 32
0.0
 13
6
 23
4.75
 33
0.0
  0
SOLID
  8
0
  6
SOLIDLINE
 62
5
 10
5.64
 20
4.82
 30
0.0
 11
5.64
 21
4.72
 31
0.0
 12
5.97
 22
4.82
 32
0.0
 13
5.97
 23
4.72
 33
0.0
  0
POLYLINE
  8
0
  6
SOLIDLINE
 62
5
 66
  1
 10
0.0
 20
0.0
 30
0.0
 40
0.03
 41
0.03
 70
1
  0
VERTEX
  8
0
 10
5.63
 20
4.79
 30
0.0
 42
1
  0
VERTEX
  8
0
 10
5.65
 20
4.79
 30
0.0
 42
1
  0
SEQEND
  0
POLYLINE
  8
0
  6
SOLIDLINE
 62
5
 66
  1
 10
0.0
 20
0.0
 30
0.0
 40
0.03
 41
0.03
 70
1
  0
VERTEX
  8
0
 10
5.63
 20
4.75
 30
0.0
 42
1
  0
VERTEX
  8
0
 10
5.65
 20
4.75
 30
0.0
 42
1
  0
SEQEND
  0
POLYLINE
  8
0
  6
SOLIDLINE
 62
5
 66
  1
 10
0.0
 20
0.0
 30
0.0
 40
0.03
 41
0.03
 70
1
  0
VERTEX
  8
0
 10
5.96
 20
4.79
 30
0.0
 42
1
  0
VERTEX
  8
0
 10
5.98
 20
4.79
 30
0.0
 42
1
  0
SEQEND
  0
POLYLINE
  8
0
  6
SOLIDLINE
 62
5
 66
  1
 10
0.0
 20
0.0
 30
0.0
 40
0.03
 41
0.03
 70
1
  0
VERTEX
  8
0
 10
5.96
 20
4.75
 30
0.0
 42
1
  0
VERTEX
  8
0
 10
5.98
 20
4.75
 30
0.0
 42
1
  0
SEQEND
  0
ARC
  8
0
  6
SOLIDLINE
 62
249
 10
5.65
 20
4.79
 40
0.03
 50
108.435
 51
180
  0
LINE
  8
0
  6
SOLIDLINE
 62
249
 10
5.64
 20
4.82
 11
5.97
 21
4.82
  0
ARC
  8
0
  6
SOLIDLINE
 62
249
 10
5.97
 20
4.79
 40
0.03
 50
2.92403e-010
 51
90
  0
LINE
  8
0
  6
SOLIDLINE
 62
249
 10
6
 20
4.79
 11
6
 21
4.75
  0
ARC
  8
0
  6
SOLIDLINE
 62
249
 10
5.65
 20
4.76
 40
0.04
 50
194.036
 51
255.964
  0
LINE
  8
0
  6
SOLIDLINE
 62
249
 10
5.97
 20
4.72
 11
5.64
 21
4.72
  0
ARC
  8
0
  6
SOLIDLINE
 62
249
 10
5.97
 20
4.76
 40
0.04
 50
270
 51
341.565
  0
LINE
  8
0
  6
SOLIDLINE
 62
249
 10
5.61
 20
4.75
 11
5.61
 21
4.79
  0
TEXT
  8
0
 62
7
 10
5.9029
 20
4.75355
 30
0.0
 40
0.04704
  1
-6.000V
 50
0
 41
1.098
 72
1
 11
5.8
 21
4.80059
 31
0
 73
3
  0
SOLID
  8
0
  6
SOLIDLINE
 62
5
 10
6.66
 20
4.79
 30
0.0
 11
6.66
 21
4.75
 31
0.0
 12
7.05
 22
4.79
 32
0.0
 13
7.05
 23
4.75
 33
0.0
  0
SOLID
  8
0
  6
SOLIDLINE
 62
5
 10
6.69
 20
4.82
 30
0.0
 11
6.69
 21
4.72
 31
0.0
 12
7.02
 22
4.82
 32
0.0
 13
7.02
 23
4.72
 33
0.0
  0
POLYLINE
  8
0
  6
SOLIDLINE
 62
5
 66
  1
 10
0.0
 20
0.0
 30
0.0
 40
0.03
 41
0.03
 70
1
  0
VERTEX
  8
0
 10
6.68
 20
4.79
 30
0.0
 42
1
  0
VERTEX
  8
0
 10
6.7
 20
4.79
 30
0.0
 42
1
  0
SEQEND
  0
POLYLINE
  8
0
  6
SOLIDLINE
 62
5
 66
  1
 10
0.0
 20
0.0
 30
0.0
 40
0.03
 41
0.03
 70
1
  0
VERTEX
  8
0
 10
6.68
 20
4.75
 30
0.0
 42
1
  0
VERTEX
  8
0
 10
6.7
 20
4.75
 30
0.0
 42
1
  0
SEQEND
  0
POLYLINE
  8
0
  6
SOLIDLINE
 62
5
 66
  1
 10
0.0
 20
0.0
 30
0.0
 40
0.03
 41
0.03
 70
1
  0
VERTEX
  8
0
 10
7.01
 20
4.79
 30
0.0
 42
1
  0
VERTEX
  8
0
 10
7.03
 20
4.79
 30
0.0
 42
1
  0
SEQEND
  0
POLYLINE
  8
0
  6
SOLIDLINE
 62
5
 66
  1
 10
0.0
 20
0.0
 30
0.0
 40
0.03
 41
0.03
 70
1
  0
VERTEX
  8
0
 10
7.01
 20
4.75
 30
0.0
 42
1
  0
VERTEX
  8
0
 10
7.03
 20
4.75
 30
0.0
 42
1
  0
SEQEND
  0
ARC
  8
0
  6
SOLIDLINE
 62
249
 10
6.7
 20
4.79
 40
0.03
 50
108.435
 51
180
  0
LINE
  8
0
  6
SOLIDLINE
 62
249
 10
6.69
 20
4.82
 11
7.02
 21
4.82
  0
ARC
  8
0
  6
SOLIDLINE
 62
249
 10
7.02
 20
4.79
 40
0.03
 50
2.92403e-010
 51
90
  0
LINE
  8
0
  6
SOLIDLINE
 62
249
 10
7.05
 20
4.79
 11
7.05
 21
4.75
  0
ARC
  8
0
  6
SOLIDLINE
 62
249
 10
6.7
 20
4.76
 40
0.04
 50
194.036
 51
255.964
  0
LINE
  8
0
  6
SOLIDLINE
 62
249
 10
7.02
 20
4.72
 11
6.69
 21
4.72
  0
ARC
  8
0
  6
SOLIDLINE
 62
249
 10
7.02
 20
4.76
 40
0.04
 50
270
 51
341.565
  0
LINE
  8
0
  6
SOLIDLINE
 62
249
 10
6.66
 20
4.75
 11
6.66
 21
4.79
  0
TEXT
  8
0
 62
7
 10
6.9529
 20
4.75355
 30
0.0
 40
0.04704
  1
-16.00V
 50
0
 41
1.098
 72
1
 11
6.85
 21
4.80059
 31
0
 73
3
  0
SOLID
  8
0
  6
SOLIDLINE
 62
1
 10
5.83
 20
5.01
 30
0.0
 11
5.83
 21
4.97
 31
0.0
 12
6.27
 22
5.01
 32
0.0
 13
6.27
 23
4.97
 33
0.0
  0
SOLID
  8
0
  6
SOLIDLINE
 62
1
 10
5.86
 20
5.04
 30
0.0
 11
5.86
 21
4.94
 31
0.0
 12
6.24
 22
5.04
 32
0.0
 13
6.24
 23
4.94
 33
0.0
  0
POLYLINE
  8
0
  6
SOLIDLINE
 62
1
 66
  1
 10
0.0
 20
0.0
 30
0.0
 40
0.03
 41
0.03
 70
1
  0
VERTEX
  8
0
 10
5.85
 20
5.01
 30
0.0
 42
1
  0
VERTEX
  8
0
 10
5.87
 20
5.01
 30
0.0
 42
1
  0
SEQEND
  0
POLYLINE
  8
0
  6
SOLIDLINE
 62
1
 66
  1
 10
0.0
 20
0.0
 30
0.0
 40
0.03
 41
0.03
 70
1
  0
VERTEX
  8
0
 10
5.85
 20
4.97
 30
0.0
 42
1
  0
VERTEX
  8
0
 10
5.87
 20
4.97
 30
0.0
 42
1
  0
SEQEND
  0
POLYLINE
  8
0
  6
SOLIDLINE
 62
1
 66
  1
 10
0.0
 20
0.0
 30
0.0
 40
0.03
 41
0.03
 70
1
  0
VERTEX
  8
0
 10
6.23
 20
5.01
 30
0.0
 42
1
  0
VERTEX
  8
0
 10
6.25
 20
5.01
 30
0.0
 42
1
  0
SEQEND
  0
POLYLINE
  8
0
  6
SOLIDLINE
 62
1
 66
  1
 10
0.0
 20
0.0
 30
0.0
 40
0.03
 41
0.03
 70
1
  0
VERTEX
  8
0
 10
6.23
 20
4.97
 30
0.0
 42
1
  0
VERTEX
  8
0
 10
6.25
 20
4.97
 30
0.0
 42
1
  0
SEQEND
  0
ARC
  8
0
  6
SOLIDLINE
 62
249
 10
5.87
 20
5.01
 40
0.03
 50
108.435
 51
180
  0
LINE
  8
0
  6
SOLIDLINE
 62
249
 10
5.86
 20
5.04
 11
6.24
 21
5.04
  0
ARC
  8
0
  6
SOLIDLINE
 62
249
 10
6.24
 20
5.01
 40
0.03
 50
2.92403e-010
 51
90
  0
LINE
  8
0
  6
SOLIDLINE
 62
249
 10
6.27
 20
5.01
 11
6.27
 21
4.97
  0
ARC
  8
0
  6
SOLIDLINE
 62
249
 10
5.87
 20
4.98
 40
0.04
 50
194.036
 51
255.964
  0
LINE
  8
0
  6
SOLIDLINE
 62
249
 10
6.24
 20
4.94
 11
5.86
 21
4.94
  0
ARC
  8
0
  6
SOLIDLINE
 62
249
 10
6.24
 20
4.98
 40
0.04
 50
270
 51
341.565
  0
LINE
  8
0
  6
SOLIDLINE
 62
249
 10
5.83
 20
4.97
 11
5.83
 21
5.01
  0
TEXT
  8
0
 62
7
 10
6.4852
 20
4.94059
 30
0.0
 40
0.04704
  1
500.00mA
 50
0
 41
1.098
 72
2
 11
6.25
 21
4.94059
 31
0
 73
0
  0
SOLID
  8
0
  6
SOLIDLINE
 62
1
 10
7.13
 20
4.51
 30
0.0
 11
7.13
 21
4.47
 31
0.0
 12
7.57
 22
4.51
 32
0.0
 13
7.57
 23
4.47
 33
0.0
  0
SOLID
  8
0
  6
SOLIDLINE
 62
1
 10
7.16
 20
4.54
 30
0.0
 11
7.16
 21
4.44
 31
0.0
 12
7.54
 22
4.54
 32
0.0
 13
7.54
 23
4.44
 33
0.0
  0
POLYLINE
  8
0
  6
SOLIDLINE
 62
1
 66
  1
 10
0.0
 20
0.0
 30
0.0
 40
0.03
 41
0.03
 70
1
  0
VERTEX
  8
0
 10
7.15
 20
4.51
 30
0.0
 42
1
  0
VERTEX
  8
0
 10
7.17
 20
4.51
 30
0.0
 42
1
  0
SEQEND
  0
POLYLINE
  8
0
  6
SOLIDLINE
 62
1
 66
  1
 10
0.0
 20
0.0
 30
0.0
 40
0.03
 41
0.03
 70
1
  0
VERTEX
  8
0
 10
7.15
 20
4.47
 30
0.0
 42
1
  0
VERTEX
  8
0
 10
7.17
 20
4.47
 30
0.0
 42
1
  0
SEQEND
  0
POLYLINE
  8
0
  6
SOLIDLINE
 62
1
 66
  1
 10
0.0
 20
0.0
 30
0.0
 40
0.03
 41
0.03
 70
1
  0
VERTEX
  8
0
 10
7.53
 20
4.51
 30
0.0
 42
1
  0
VERTEX
  8
0
 10
7.55
 20
4.51
 30
0.0
 42
1
  0
SEQEND
  0
POLYLINE
  8
0
  6
SOLIDLINE
 62
1
 66
  1
 10
0.0
 20
0.0
 30
0.0
 40
0.03
 41
0.03
 70
1
  0
VERTEX
  8
0
 10
7.53
 20
4.47
 30
0.0
 42
1
  0
VERTEX
  8
0
 10
7.55
 20
4.47
 30
0.0
 42
1
  0
SEQEND
  0
ARC
  8
0
  6
SOLIDLINE
 62
249
 10
7.17
 20
4.51
 40
0.03
 50
108.435
 51
180
  0
LINE
  8
0
  6
SOLIDLINE
 62
249
 10
7.16
 20
4.54
 11
7.54
 21
4.54
  0
ARC
  8
0
  6
SOLIDLINE
 62
249
 10
7.54
 20
4.51
 40
0.03
 50
2.92403e-010
 51
90
  0
LINE
  8
0
  6
SOLIDLINE
 62
249
 10
7.57
 20
4.51
 11
7.57
 21
4.47
  0
ARC
  8
0
  6
SOLIDLINE
 62
249
 10
7.17
 20
4.48
 40
0.04
 50
194.036
 51
255.964
  0
LINE
  8
0
  6
SOLIDLINE
 62
249
 10
7.54
 20
4.44
 11
7.16
 21
4.44
  0
ARC
  8
0
  6
SOLIDLINE
 62
249
 10
7.54
 20
4.48
 40
0.04
 50
270
 51
341.565
  0
LINE
  8
0
  6
SOLIDLINE
 62
249
 10
7.13
 20
4.47
 11
7.13
 21
4.51
  0
TEXT
  8
0
 62
7
 10
7.15
 20
4.44059
 30
0.0
 40
0.04704
  1
500.00mA
 50
0
 41
1.098
 72
0
 11
7.15
 21
4.44059
 31
0
 73
0
  0
SOLID
  8
0
  6
SOLIDLINE
 62
1
 10
5.53
 20
4.03
 30
0.0
 11
5.53
 21
3.99
 31
0.0
 12
5.97
 22
4.03
 32
0.0
 13
5.97
 23
3.99
 33
0.0
  0
SOLID
  8
0
  6
SOLIDLINE
 62
1
 10
5.56
 20
4.06
 30
0.0
 11
5.56
 21
3.96
 31
0.0
 12
5.94
 22
4.06
 32
0.0
 13
5.94
 23
3.96
 33
0.0
  0
POLYLINE
  8
0
  6
SOLIDLINE
 62
1
 66
  1
 10
0.0
 20
0.0
 30
0.0
 40
0.03
 41
0.03
 70
1
  0
VERTEX
  8
0
 10
5.55
 20
4.03
 30
0.0
 42
1
  0
VERTEX
  8
0
 10
5.57
 20
4.03
 30
0.0
 42
1
  0
SEQEND
  0
POLYLINE
  8
0
  6
SOLIDLINE
 62
1
 66
  1
 10
0.0
 20
0.0
 30
0.0
 40
0.03
 41
0.03
 70
1
  0
VERTEX
  8
0
 10
5.55
 20
3.99
 30
0.0
 42
1
  0
VERTEX
  8
0
 10
5.57
 20
3.99
 30
0.0
 42
1
  0
SEQEND
  0
POLYLINE
  8
0
  6
SOLIDLINE
 62
1
 66
  1
 10
0.0
 20
0.0
 30
0.0
 40
0.03
 41
0.03
 70
1
  0
VERTEX
  8
0
 10
5.93
 20
4.03
 30
0.0
 42
1
  0
VERTEX
  8
0
 10
5.95
 20
4.03
 30
0.0
 42
1
  0
SEQEND
  0
POLYLINE
  8
0
  6
SOLIDLINE
 62
1
 66
  1
 10
0.0
 20
0.0
 30
0.0
 40
0.03
 41
0.03
 70
1
  0
VERTEX
  8
0
 10
5.93
 20
3.99
 30
0.0
 42
1
  0
VERTEX
  8
0
 10
5.95
 20
3.99
 30
0.0
 42
1
  0
SEQEND
  0
ARC
  8
0
  6
SOLIDLINE
 62
249
 10
5.57
 20
4.03
 40
0.03
 50
108.435
 51
180
  0
LINE
  8
0
  6
SOLIDLINE
 62
249
 10
5.56
 20
4.06
 11
5.94
 21
4.06
  0
ARC
  8
0
  6
SOLIDLINE
 62
249
 10
5.94
 20
4.03
 40
0.03
 50
2.92403e-010
 51
90
  0
LINE
  8
0
  6
SOLIDLINE
 62
249
 10
5.97
 20
4.03
 11
5.97
 21
3.99
  0
ARC
  8
0
  6
SOLIDLINE
 62
249
 10
5.57
 20
4
 40
0.04
 50
194.036
 51
255.964
  0
LINE
  8
0
  6
SOLIDLINE
 62
249
 10
5.94
 20
3.96
 11
5.56
 21
3.96
  0
ARC
  8
0
  6
SOLIDLINE
 62
249
 10
5.94
 20
4
 40
0.04
 50
270
 51
341.565
  0
LINE
  8
0
  6
SOLIDLINE
 62
249
 10
5.53
 20
3.99
 11
5.53
 21
4.03
  0
TEXT
  8
0
 62
7
 10
5.55
 20
3.99355
 30
0.0
 40
0.04704
  1
500.00mA
 50
0
 41
1.098
 72
0
 11
5.55
 21
4.04059
 31
0
 73
3
  0
ENDSEC
  0
EOF
