  0
SECTION
  2
HEADER
  9
$ACADVER
 1
AC1009
  9
$INSBASE
 10
0
 20
0
 30
0
  9
$LIMMIN
 10
0
 20
0
  9
$LIMMAX
 10
9.7
 20
7.2
  0
ENDSEC
  0
SECTION
  2
TABLES
  0
TABLE
  2
LTYPE
 70
 25
  0
LTYPE
  2
SOLIDLINE
 70
64
  3
Solid line
 72
65
 73
 0
 40
0.0
  0
LTYPE
  2
DASHEDLINE
 70
64
  3
Dashed line
 72
65
 73
2
 40
0.05
 49
0.035
 49
5g
  0
LTYPE
  2
DOTTEDLINE
 70
64
  3
Dotted line
 72
65
 73
2
 40
-0.015
 49
0.02
 49
0.01
  0
ENDTAB
  0
TABLE
  2
LAYER
 70
1
  0
LAYER
  2
0
  6
SOLIDLINE
 62
7
 70
0
  0
ENDTAB
  0
TABLE
  2
STYLE
 70
1
  0
STYLE
  2
STANDARD
 70
0
 40
0.0
 41
1.0
 50
0.0
 71
0
 42
0.2
  3
TXT
  0
ENDTAB
  0
ENDSEC
  0
SECTION
  2
BLOCKS
  0
ENDSEC
  0
SECTION
  2
ENTITIES
  0
LINE
  8
0
  6
SOLIDLINE
 62
7
 10
5.94
 20
4.82
 11
5.86
 21
4.85
  0
LINE
  8
0
  6
SOLIDLINE
 62
7
 10
5.86
 20
4.73
 11
5.94
 21
4.76
  0
LINE
  8
0
  6
SOLIDLINE
 62
7
 10
5.94
 20
4.76
 11
5.86
 21
4.79
  0
LINE
  8
0
  6
SOLIDLINE
 62
7
 10
5.86
 20
4.79
 11
5.94
 21
4.82
  0
LINE
  8
0
  6
SOLIDLINE
 62
7
 10
5.86
 20
4.85
 11
5.94
 21
4.88
  0
LINE
  8
0
  6
SOLIDLINE
 62
7
 10
5.9
 20
4.71
 11
5.86
 21
4.73
  0
LINE
  8
0
  6
SOLIDLINE
 62
7
 10
5.94
 20
4.88
 11
5.9
 21
4.9
  0
LINE
  8
0
  6
SOLIDLINE
 62
7
 10
5.9
 20
4.7
 11
5.9
 21
4.71
  0
LINE
  8
0
  6
SOLIDLINE
 62
5
 10
5.9
 20
5
 11
5.9
 21
4.9
  0
LINE
  8
0
  6
SOLIDLINE
 62
5
 10
5.9
 20
4.6
 11
5.9
 21
4.7
  0
TEXT
  8
0
 62
249
 10
5.68
 20
4.74059
 30
0.0
 40
0.04704
  1
R4
 50
0
 41
1.098
 72
0
 11
5.68
 21
4.74059
 31
0
 73
0
  0
TEXT
  8
0
 62
249
 10
5.98
 20
4.74059
 30
0.0
 40
0.04704
  1
8
 50
0
 41
1.098
 72
0
 11
5.98
 21
4.74059
 31
0
 73
0
  0
SOLID
  8
0
  6
SOLIDLINE
 62
1
 10
5.93
 20
4.63
 30
0.0
 11
5.93
 21
4.59
 31
0.0
 12
6.37
 22
4.63
 32
0.0
 13
6.37
 23
4.59
 33
0.0
  0
SOLID
  8
0
  6
SOLIDLINE
 62
1
 10
5.96
 20
4.66
 30
0.0
 11
5.96
 21
4.56
 31
0.0
 12
6.34
 22
4.66
 32
0.0
 13
6.34
 23
4.56
 33
0.0
  0
POLYLINE
  8
0
  6
SOLIDLINE
 62
1
 66
  1
 10
0.0
 20
0.0
 30
0.0
 40
0.03
 41
0.03
 70
1
  0
VERTEX
  8
0
 10
5.95
 20
4.63
 30
0.0
 42
1
  0
VERTEX
  8
0
 10
5.97
 20
4.63
 30
0.0
 42
1
  0
SEQEND
  0
POLYLINE
  8
0
  6
SOLIDLINE
 62
1
 66
  1
 10
0.0
 20
0.0
 30
0.0
 40
0.03
 41
0.03
 70
1
  0
VERTEX
  8
0
 10
5.95
 20
4.59
 30
0.0
 42
1
  0
VERTEX
  8
0
 10
5.97
 20
4.59
 30
0.0
 42
1
  0
SEQEND
  0
POLYLINE
  8
0
  6
SOLIDLINE
 62
1
 66
  1
 10
0.0
 20
0.0
 30
0.0
 40
0.03
 41
0.03
 70
1
  0
VERTEX
  8
0
 10
6.33
 20
4.63
 30
0.0
 42
1
  0
VERTEX
  8
0
 10
6.35
 20
4.63
 30
0.0
 42
1
  0
SEQEND
  0
POLYLINE
  8
0
  6
SOLIDLINE
 62
1
 66
  1
 10
0.0
 20
0.0
 30
0.0
 40
0.03
 41
0.03
 70
1
  0
VERTEX
  8
0
 10
6.33
 20
4.59
 30
0.0
 42
1
  0
VERTEX
  8
0
 10
6.35
 20
4.59
 30
0.0
 42
1
  0
SEQEND
  0
ARC
  8
0
  6
SOLIDLINE
 62
249
 10
5.97
 20
4.63
 40
0.03
 50
108.435
 51
180
  0
LINE
  8
0
  6
SOLIDLINE
 62
249
 10
5.96
 20
4.66
 11
6.34
 21
4.66
  0
ARC
  8
0
  6
SOLIDLINE
 62
249
 10
6.34
 20
4.63
 40
0.03
 50
2.92403e-010
 51
90
  0
LINE
  8
0
  6
SOLIDLINE
 62
249
 10
6.37
 20
4.63
 11
6.37
 21
4.59
  0
ARC
  8
0
  6
SOLIDLINE
 62
249
 10
5.97
 20
4.6
 40
0.04
 50
194.036
 51
255.964
  0
LINE
  8
0
  6
SOLIDLINE
 62
249
 10
6.34
 20
4.56
 11
5.96
 21
4.56
  0
ARC
  8
0
  6
SOLIDLINE
 62
249
 10
6.34
 20
4.6
 40
0.04
 50
270
 51
341.565
  0
LINE
  8
0
  6
SOLIDLINE
 62
249
 10
5.93
 20
4.59
 11
5.93
 21
4.63
  0
TEXT
  8
0
 62
7
 10
5.95
 20
4.59355
 30
0.0
 40
0.04704
  1
120.00mA
 50
0
 41
1.098
 72
0
 11
5.95
 21
4.64059
 31
0
 73
3
  0
LINE
  8
0
  6
SOLIDLINE
 62
249
 10
5.32
 20
4.36
 11
5.35
 21
4.44
  0
LINE
  8
0
  6
SOLIDLINE
 62
249
 10
5.23
 20
4.44
 11
5.26
 21
4.36
  0
LINE
  8
0
  6
SOLIDLINE
 62
249
 10
5.26
 20
4.36
 11
5.29
 21
4.44
  0
LINE
  8
0
  6
SOLIDLINE
 62
249
 10
5.29
 20
4.44
 11
5.32
 21
4.36
  0
LINE
  8
0
  6
SOLIDLINE
 62
249
 10
5.35
 20
4.44
 11
5.38
 21
4.36
  0
LINE
  8
0
  6
SOLIDLINE
 62
249
 10
5.21
 20
4.4
 11
5.23
 21
4.44
  0
LINE
  8
0
  6
SOLIDLINE
 62
249
 10
5.38
 20
4.36
 11
5.4
 21
4.4
  0
LINE
  8
0
  6
SOLIDLINE
 62
249
 10
5.2
 20
4.4
 11
5.21
 21
4.4
  0
LINE
  8
0
  6
SOLIDLINE
 62
5
 10
5.5
 20
4.4
 11
5.4
 21
4.4
  0
LINE
  8
0
  6
SOLIDLINE
 62
5
 10
5.1
 20
4.4
 11
5.2
 21
4.4
  0
TEXT
  8
0
 62
249
 10
5.25
 20
4.49059
 30
0.0
 40
0.04704
  1
R3
 50
0
 41
1.098
 72
0
 11
5.25
 21
4.49059
 31
0
 73
0
  0
TEXT
  8
0
 62
249
 10
5.25
 20
4.24059
 30
0.0
 40
0.04704
  1
10
 50
0
 41
1.098
 72
0
 11
5.25
 21
4.24059
 31
0
 73
0
  0
SOLID
  8
0
  6
SOLIDLINE
 62
1
 10
5.43
 20
4.56
 30
0.0
 11
5.43
 21
4.52
 31
0.0
 12
5.87
 22
4.56
 32
0.0
 13
5.87
 23
4.52
 33
0.0
  0
SOLID
  8
0
  6
SOLIDLINE
 62
1
 10
5.46
 20
4.59
 30
0.0
 11
5.46
 21
4.49
 31
0.0
 12
5.84
 22
4.59
 32
0.0
 13
5.84
 23
4.49
 33
0.0
  0
POLYLINE
  8
0
  6
SOLIDLINE
 62
1
 66
  1
 10
0.0
 20
0.0
 30
0.0
 40
0.03
 41
0.03
 70
1
  0
VERTEX
  8
0
 10
5.45
 20
4.56
 30
0.0
 42
1
  0
VERTEX
  8
0
 10
5.47
 20
4.56
 30
0.0
 42
1
  0
SEQEND
  0
POLYLINE
  8
0
  6
SOLIDLINE
 62
1
 66
  1
 10
0.0
 20
0.0
 30
0.0
 40
0.03
 41
0.03
 70
1
  0
VERTEX
  8
0
 10
5.45
 20
4.52
 30
0.0
 42
1
  0
VERTEX
  8
0
 10
5.47
 20
4.52
 30
0.0
 42
1
  0
SEQEND
  0
POLYLINE
  8
0
  6
SOLIDLINE
 62
1
 66
  1
 10
0.0
 20
0.0
 30
0.0
 40
0.03
 41
0.03
 70
1
  0
VERTEX
  8
0
 10
5.83
 20
4.56
 30
0.0
 42
1
  0
VERTEX
  8
0
 10
5.85
 20
4.56
 30
0.0
 42
1
  0
SEQEND
  0
POLYLINE
  8
0
  6
SOLIDLINE
 62
1
 66
  1
 10
0.0
 20
0.0
 30
0.0
 40
0.03
 41
0.03
 70
1
  0
VERTEX
  8
0
 10
5.83
 20
4.52
 30
0.0
 42
1
  0
VERTEX
  8
0
 10
5.85
 20
4.52
 30
0.0
 42
1
  0
SEQEND
  0
ARC
  8
0
  6
SOLIDLINE
 62
249
 10
5.47
 20
4.56
 40
0.03
 50
108.435
 51
180
  0
LINE
  8
0
  6
SOLIDLINE
 62
249
 10
5.46
 20
4.59
 11
5.84
 21
4.59
  0
ARC
  8
0
  6
SOLIDLINE
 62
249
 10
5.84
 20
4.56
 40
0.03
 50
2.92403e-010
 51
90
  0
LINE
  8
0
  6
SOLIDLINE
 62
249
 10
5.87
 20
4.56
 11
5.87
 21
4.52
  0
ARC
  8
0
  6
SOLIDLINE
 62
249
 10
5.47
 20
4.53
 40
0.04
 50
194.036
 51
255.964
  0
LINE
  8
0
  6
SOLIDLINE
 62
249
 10
5.84
 20
4.49
 11
5.46
 21
4.49
  0
ARC
  8
0
  6
SOLIDLINE
 62
249
 10
5.84
 20
4.53
 40
0.04
 50
270
 51
341.565
  0
LINE
  8
0
  6
SOLIDLINE
 62
249
 10
5.43
 20
4.52
 11
5.43
 21
4.56
  0
TEXT
  8
0
 62
7
 10
5.45
 20
4.49059
 30
0.0
 40
0.04704
  1
440.00mA
 50
0
 41
1.098
 72
0
 11
5.45
 21
4.49059
 31
0
 73
0
  0
LINE
  8
0
  6
SOLIDLINE
 62
249
 10
5.94
 20
3.82
 11
5.86
 21
3.85
  0
LINE
  8
0
  6
SOLIDLINE
 62
249
 10
5.86
 20
3.73
 11
5.94
 21
3.76
  0
LINE
  8
0
  6
SOLIDLINE
 62
249
 10
5.94
 20
3.76
 11
5.86
 21
3.79
  0
LINE
  8
0
  6
SOLIDLINE
 62
249
 10
5.86
 20
3.79
 11
5.94
 21
3.82
  0
LINE
  8
0
  6
SOLIDLINE
 62
249
 10
5.86
 20
3.85
 11
5.94
 21
3.88
  0
LINE
  8
0
  6
SOLIDLINE
 62
249
 10
5.9
 20
3.71
 11
5.86
 21
3.73
  0
LINE
  8
0
  6
SOLIDLINE
 62
249
 10
5.94
 20
3.88
 11
5.9
 21
3.9
  0
LINE
  8
0
  6
SOLIDLINE
 62
249
 10
5.9
 20
3.7
 11
5.9
 21
3.71
  0
LINE
  8
0
  6
SOLIDLINE
 62
5
 10
5.9
 20
4
 11
5.9
 21
3.9
  0
LINE
  8
0
  6
SOLIDLINE
 62
5
 10
5.9
 20
3.6
 11
5.9
 21
3.7
  0
TEXT
  8
0
 62
249
 10
5.68
 20
3.74059
 30
0.0
 40
0.04704
  1
R2
 50
0
 41
1.098
 72
0
 11
5.68
 21
3.74059
 31
0
 73
0
  0
TEXT
  8
0
 62
249
 10
5.98
 20
3.74059
 30
0.0
 40
0.04704
  1
6
 50
0
 41
1.098
 72
0
 11
5.98
 21
3.74059
 31
0
 73
0
  0
SOLID
  8
0
  6
SOLIDLINE
 62
1
 10
5.93
 20
3.63
 30
0.0
 11
5.93
 21
3.59
 31
0.0
 12
6.37
 22
3.63
 32
0.0
 13
6.37
 23
3.59
 33
0.0
  0
SOLID
  8
0
  6
SOLIDLINE
 62
1
 10
5.96
 20
3.66
 30
0.0
 11
5.96
 21
3.56
 31
0.0
 12
6.34
 22
3.66
 32
0.0
 13
6.34
 23
3.56
 33
0.0
  0
POLYLINE
  8
0
  6
SOLIDLINE
 62
1
 66
  1
 10
0.0
 20
0.0
 30
0.0
 40
0.03
 41
0.03
 70
1
  0
VERTEX
  8
0
 10
5.95
 20
3.63
 30
0.0
 42
1
  0
VERTEX
  8
0
 10
5.97
 20
3.63
 30
0.0
 42
1
  0
SEQEND
  0
POLYLINE
  8
0
  6
SOLIDLINE
 62
1
 66
  1
 10
0.0
 20
0.0
 30
0.0
 40
0.03
 41
0.03
 70
1
  0
VERTEX
  8
0
 10
5.95
 20
3.59
 30
0.0
 42
1
  0
VERTEX
  8
0
 10
5.97
 20
3.59
 30
0.0
 42
1
  0
SEQEND
  0
POLYLINE
  8
0
  6
SOLIDLINE
 62
1
 66
  1
 10
0.0
 20
0.0
 30
0.0
 40
0.03
 41
0.03
 70
1
  0
VERTEX
  8
0
 10
6.33
 20
3.63
 30
0.0
 42
1
  0
VERTEX
  8
0
 10
6.35
 20
3.63
 30
0.0
 42
1
  0
SEQEND
  0
POLYLINE
  8
0
  6
SOLIDLINE
 62
1
 66
  1
 10
0.0
 20
0.0
 30
0.0
 40
0.03
 41
0.03
 70
1
  0
VERTEX
  8
0
 10
6.33
 20
3.59
 30
0.0
 42
1
  0
VERTEX
  8
0
 10
6.35
 20
3.59
 30
0.0
 42
1
  0
SEQEND
  0
ARC
  8
0
  6
SOLIDLINE
 62
249
 10
5.97
 20
3.63
 40
0.03
 50
108.435
 51
180
  0
LINE
  8
0
  6
SOLIDLINE
 62
249
 10
5.96
 20
3.66
 11
6.34
 21
3.66
  0
ARC
  8
0
  6
SOLIDLINE
 62
249
 10
6.34
 20
3.63
 40
0.03
 50
2.92403e-010
 51
90
  0
LINE
  8
0
  6
SOLIDLINE
 62
249
 10
6.37
 20
3.63
 11
6.37
 21
3.59
  0
ARC
  8
0
  6
SOLIDLINE
 62
249
 10
5.97
 20
3.6
 40
0.04
 50
194.036
 51
255.964
  0
LINE
  8
0
  6
SOLIDLINE
 62
249
 10
6.34
 20
3.56
 11
5.96
 21
3.56
  0
ARC
  8
0
  6
SOLIDLINE
 62
249
 10
6.34
 20
3.6
 40
0.04
 50
270
 51
341.565
  0
LINE
  8
0
  6
SOLIDLINE
 62
249
 10
5.93
 20
3.59
 11
5.93
 21
3.63
  0
TEXT
  8
0
 62
7
 10
5.95
 20
3.59355
 30
0.0
 40
0.04704
  1
560.00mA
 50
0
 41
1.098
 72
0
 11
5.95
 21
3.64059
 31
0
 73
3
  0
CIRCLE
  8
0
  6
SOLIDLINE
 62
5
 10
4.6
 20
3.8
 30
0.0
 40
0.1
  0
LINE
  8
0
  6
SOLIDLINE
 62
5
 10
4.6
 20
3.6
 11
4.6
 21
3.7
  0
TEXT
  8
0
 62
94
 10
4.57575
 20
3.71766
 30
0.0
 40
0.03528
  1
+
 50
0
 41
1.098
 72
1
 11
4.56472
 21
3.71766
 31
0
 73
0
  0
LINE
  8
0
  6
SOLIDLINE
 62
5
 10
4.6
 20
4
 11
4.6
 21
3.9
  0
TEXT
  8
0
 62
94
 10
4.57575
 20
3.83766
 30
0.0
 40
0.03528
  1
-
 50
0
 41
1.098
 72
1
 11
4.56472
 21
3.83766
 31
0
 73
0
  0
TEXT
  8
0
 62
249
 10
4.5294
 20
3.61059
 30
0.0
 40
0.04704
  1
V1
 50
0
 41
1.098
 72
1
 11
4.5
 21
3.61059
 31
0
 73
0
  0
TEXT
  8
0
 62
249
 10
4.7735
 20
3.51059
 30
0.0
 40
0.04704
  1
DC=10
 50
0
 41
1.098
 72
1
 11
4.7
 21
3.51059
 31
0
 73
0
  0
SOLID
  8
0
  6
SOLIDLINE
 62
1
 10
4.63
 20
4.01
 30
0.0
 11
4.63
 21
3.97
 31
0.0
 12
5.07
 22
4.01
 32
0.0
 13
5.07
 23
3.97
 33
0.0
  0
SOLID
  8
0
  6
SOLIDLINE
 62
1
 10
4.66
 20
4.04
 30
0.0
 11
4.66
 21
3.94
 31
0.0
 12
5.04
 22
4.04
 32
0.0
 13
5.04
 23
3.94
 33
0.0
  0
POLYLINE
  8
0
  6
SOLIDLINE
 62
1
 66
  1
 10
0.0
 20
0.0
 30
0.0
 40
0.03
 41
0.03
 70
1
  0
VERTEX
  8
0
 10
4.65
 20
4.01
 30
0.0
 42
1
  0
VERTEX
  8
0
 10
4.67
 20
4.01
 30
0.0
 42
1
  0
SEQEND
  0
POLYLINE
  8
0
  6
SOLIDLINE
 62
1
 66
  1
 10
0.0
 20
0.0
 30
0.0
 40
0.03
 41
0.03
 70
1
  0
VERTEX
  8
0
 10
4.65
 20
3.97
 30
0.0
 42
1
  0
VERTEX
  8
0
 10
4.67
 20
3.97
 30
0.0
 42
1
  0
SEQEND
  0
POLYLINE
  8
0
  6
SOLIDLINE
 62
1
 66
  1
 10
0.0
 20
0.0
 30
0.0
 40
0.03
 41
0.03
 70
1
  0
VERTEX
  8
0
 10
5.03
 20
4.01
 30
0.0
 42
1
  0
VERTEX
  8
0
 10
5.05
 20
4.01
 30
0.0
 42
1
  0
SEQEND
  0
POLYLINE
  8
0
  6
SOLIDLINE
 62
1
 66
  1
 10
0.0
 20
0.0
 30
0.0
 40
0.03
 41
0.03
 70
1
  0
VERTEX
  8
0
 10
5.03
 20
3.97
 30
0.0
 42
1
  0
VERTEX
  8
0
 10
5.05
 20
3.97
 30
0.0
 42
1
  0
SEQEND
  0
ARC
  8
0
  6
SOLIDLINE
 62
249
 10
4.67
 20
4.01
 40
0.03
 50
108.435
 51
180
  0
LINE
  8
0
  6
SOLIDLINE
 62
249
 10
4.66
 20
4.04
 11
5.04
 21
4.04
  0
ARC
  8
0
  6
SOLIDLINE
 62
249
 10
5.04
 20
4.01
 40
0.03
 50
2.92403e-010
 51
90
  0
LINE
  8
0
  6
SOLIDLINE
 62
249
 10
5.07
 20
4.01
 11
5.07
 21
3.97
  0
ARC
  8
0
  6
SOLIDLINE
 62
249
 10
4.67
 20
3.98
 40
0.04
 50
194.036
 51
255.964
  0
LINE
  8
0
  6
SOLIDLINE
 62
249
 10
5.04
 20
3.94
 11
4.66
 21
3.94
  0
ARC
  8
0
  6
SOLIDLINE
 62
249
 10
5.04
 20
3.98
 40
0.04
 50
270
 51
341.565
  0
LINE
  8
0
  6
SOLIDLINE
 62
249
 10
4.63
 20
3.97
 11
4.63
 21
4.01
  0
TEXT
  8
0
 62
7
 10
4.65
 20
3.94059
 30
0.0
 40
0.04704
  1
560.00mA
 50
0
 41
1.098
 72
0
 11
4.65
 21
3.94059
 31
0
 73
0
  0
LINE
  8
0
  6
SOLIDLINE
 62
249
 10
5.22
 20
3.16
 11
5.25
 21
3.24
  0
LINE
  8
0
  6
SOLIDLINE
 62
249
 10
5.13
 20
3.24
 11
5.16
 21
3.16
  0
LINE
  8
0
  6
SOLIDLINE
 62
249
 10
5.16
 20
3.16
 11
5.19
 21
3.24
  0
LINE
  8
0
  6
SOLIDLINE
 62
249
 10
5.19
 20
3.24
 11
5.22
 21
3.16
  0
LINE
  8
0
  6
SOLIDLINE
 62
249
 10
5.25
 20
3.24
 11
5.28
 21
3.16
  0
LINE
  8
0
  6
SOLIDLINE
 62
249
 10
5.11
 20
3.2
 11
5.13
 21
3.24
  0
LINE
  8
0
  6
SOLIDLINE
 62
249
 10
5.28
 20
3.16
 11
5.3
 21
3.2
  0
LINE
  8
0
  6
SOLIDLINE
 62
249
 10
5.1
 20
3.2
 11
5.11
 21
3.2
  0
LINE
  8
0
  6
SOLIDLINE
 62
5
 10
5.4
 20
3.2
 11
5.3
 21
3.2
  0
LINE
  8
0
  6
SOLIDLINE
 62
5
 10
5
 20
3.2
 11
5.1
 21
3.2
  0
TEXT
  8
0
 62
249
 10
5.15
 20
3.29059
 30
0.0
 40
0.04704
  1
R1
 50
0
 41
1.098
 72
0
 11
5.15
 21
3.29059
 31
0
 73
0
  0
TEXT
  8
0
 62
249
 10
5.15
 20
3.04059
 30
0.0
 40
0.04704
  1
4
 50
0
 41
1.098
 72
0
 11
5.15
 21
3.04059
 31
0
 73
0
  0
SOLID
  8
0
  6
SOLIDLINE
 62
1
 10
4.63
 20
3.11
 30
0.0
 11
4.63
 21
3.07
 31
0.0
 12
5.07
 22
3.11
 32
0.0
 13
5.07
 23
3.07
 33
0.0
  0
SOLID
  8
0
  6
SOLIDLINE
 62
1
 10
4.66
 20
3.14
 30
0.0
 11
4.66
 21
3.04
 31
0.0
 12
5.04
 22
3.14
 32
0.0
 13
5.04
 23
3.04
 33
0.0
  0
POLYLINE
  8
0
  6
SOLIDLINE
 62
1
 66
  1
 10
0.0
 20
0.0
 30
0.0
 40
0.03
 41
0.03
 70
1
  0
VERTEX
  8
0
 10
4.65
 20
3.11
 30
0.0
 42
1
  0
VERTEX
  8
0
 10
4.67
 20
3.11
 30
0.0
 42
1
  0
SEQEND
  0
POLYLINE
  8
0
  6
SOLIDLINE
 62
1
 66
  1
 10
0.0
 20
0.0
 30
0.0
 40
0.03
 41
0.03
 70
1
  0
VERTEX
  8
0
 10
4.65
 20
3.07
 30
0.0
 42
1
  0
VERTEX
  8
0
 10
4.67
 20
3.07
 30
0.0
 42
1
  0
SEQEND
  0
POLYLINE
  8
0
  6
SOLIDLINE
 62
1
 66
  1
 10
0.0
 20
0.0
 30
0.0
 40
0.03
 41
0.03
 70
1
  0
VERTEX
  8
0
 10
5.03
 20
3.11
 30
0.0
 42
1
  0
VERTEX
  8
0
 10
5.05
 20
3.11
 30
0.0
 42
1
  0
SEQEND
  0
POLYLINE
  8
0
  6
SOLIDLINE
 62
1
 66
  1
 10
0.0
 20
0.0
 30
0.0
 40
0.03
 41
0.03
 70
1
  0
VERTEX
  8
0
 10
5.03
 20
3.07
 30
0.0
 42
1
  0
VERTEX
  8
0
 10
5.05
 20
3.07
 30
0.0
 42
1
  0
SEQEND
  0
ARC
  8
0
  6
SOLIDLINE
 62
249
 10
4.67
 20
3.11
 40
0.03
 50
108.435
 51
180
  0
LINE
  8
0
  6
SOLIDLINE
 62
249
 10
4.66
 20
3.14
 11
5.04
 21
3.14
  0
ARC
  8
0
  6
SOLIDLINE
 62
249
 10
5.04
 20
3.11
 40
0.03
 50
2.92403e-010
 51
90
  0
LINE
  8
0
  6
SOLIDLINE
 62
249
 10
5.07
 20
3.11
 11
5.07
 21
3.07
  0
ARC
  8
0
  6
SOLIDLINE
 62
249
 10
4.67
 20
3.08
 40
0.04
 50
194.036
 51
255.964
  0
LINE
  8
0
  6
SOLIDLINE
 62
249
 10
5.04
 20
3.04
 11
4.66
 21
3.04
  0
ARC
  8
0
  6
SOLIDLINE
 62
249
 10
5.04
 20
3.08
 40
0.04
 50
270
 51
341.565
  0
LINE
  8
0
  6
SOLIDLINE
 62
249
 10
4.63
 20
3.07
 11
4.63
 21
3.11
  0
TEXT
  8
0
 62
7
 10
5.2852
 20
3.04059
 30
0.0
 40
0.04704
  1
560.00mA
 50
0
 41
1.098
 72
2
 11
5.05
 21
3.04059
 31
0
 73
0
  0
CIRCLE
  8
0
  6
SOLIDLINE
 62
5
 10
5.4
 20
5.2
 30
0.0
 40
0.1
  0
LINE
  8
0
  6
SOLIDLINE
 62
5
 10
5.35
 20
5.2
 11
5.4
 21
5.25
  0
LINE
  8
0
  6
SOLIDLINE
 62
5
 10
5.35
 20
5.2
 11
5.4
 21
5.15
  0
LINE
  8
0
  6
SOLIDLINE
 62
5
 10
5.45
 20
5.2
 11
5.35
 21
5.2
  0
LINE
  8
0
  6
SOLIDLINE
 62
5
 10
5.6
 20
5.2
 11
5.5
 21
5.2
  0
TEXT
  8
0
 62
94
 10
5.45294
 20
5.18898
 30
0.0
 40
0.03528
  1
+
 50
270
 41
1.098
 72
1
 11
5.45294
 21
5.2
 31
0
 73
0
  0
LINE
  8
0
  6
SOLIDLINE
 62
5
 10
5.2
 20
5.2
 11
5.3
 21
5.2
  0
TEXT
  8
0
 62
94
 10
5.29294
 20
5.18898
 30
0.0
 40
0.03528
  1
-
 50
270
 41
1.098
 72
1
 11
5.29294
 21
5.2
 31
0
 73
0
  0
TEXT
  8
0
 62
249
 10
5.4694
 20
5.05059
 30
0.0
 40
0.04704
  1
I1
 50
0
 41
1.098
 72
1
 11
5.44
 21
5.05059
 31
0
 73
0
  0
TEXT
  8
0
 62
249
 10
5.5229
 20
5.30059
 30
0.0
 40
0.04704
  1
DC=120m
 50
0
 41
1.098
 72
1
 11
5.42
 21
5.30059
 31
0
 73
0
  0
SOLID
  8
0
  6
SOLIDLINE
 62
1
 10
5.63
 20
5.41
 30
0.0
 11
5.63
 21
5.37
 31
0.0
 12
6.07
 22
5.41
 32
0.0
 13
6.07
 23
5.37
 33
0.0
  0
SOLID
  8
0
  6
SOLIDLINE
 62
1
 10
5.66
 20
5.44
 30
0.0
 11
5.66
 21
5.34
 31
0.0
 12
6.04
 22
5.44
 32
0.0
 13
6.04
 23
5.34
 33
0.0
  0
POLYLINE
  8
0
  6
SOLIDLINE
 62
1
 66
  1
 10
0.0
 20
0.0
 30
0.0
 40
0.03
 41
0.03
 70
1
  0
VERTEX
  8
0
 10
5.65
 20
5.41
 30
0.0
 42
1
  0
VERTEX
  8
0
 10
5.67
 20
5.41
 30
0.0
 42
1
  0
SEQEND
  0
POLYLINE
  8
0
  6
SOLIDLINE
 62
1
 66
  1
 10
0.0
 20
0.0
 30
0.0
 40
0.03
 41
0.03
 70
1
  0
VERTEX
  8
0
 10
5.65
 20
5.37
 30
0.0
 42
1
  0
VERTEX
  8
0
 10
5.67
 20
5.37
 30
0.0
 42
1
  0
SEQEND
  0
POLYLINE
  8
0
  6
SOLIDLINE
 62
1
 66
  1
 10
0.0
 20
0.0
 30
0.0
 40
0.03
 41
0.03
 70
1
  0
VERTEX
  8
0
 10
6.03
 20
5.41
 30
0.0
 42
1
  0
VERTEX
  8
0
 10
6.05
 20
5.41
 30
0.0
 42
1
  0
SEQEND
  0
POLYLINE
  8
0
  6
SOLIDLINE
 62
1
 66
  1
 10
0.0
 20
0.0
 30
0.0
 40
0.03
 41
0.03
 70
1
  0
VERTEX
  8
0
 10
6.03
 20
5.37
 30
0.0
 42
1
  0
VERTEX
  8
0
 10
6.05
 20
5.37
 30
0.0
 42
1
  0
SEQEND
  0
ARC
  8
0
  6
SOLIDLINE
 62
249
 10
5.67
 20
5.41
 40
0.03
 50
108.435
 51
180
  0
LINE
  8
0
  6
SOLIDLINE
 62
249
 10
5.66
 20
5.44
 11
6.04
 21
5.44
  0
ARC
  8
0
  6
SOLIDLINE
 62
249
 10
6.04
 20
5.41
 40
0.03
 50
2.92403e-010
 51
90
  0
LINE
  8
0
  6
SOLIDLINE
 62
249
 10
6.07
 20
5.41
 11
6.07
 21
5.37
  0
ARC
  8
0
  6
SOLIDLINE
 62
249
 10
5.67
 20
5.38
 40
0.04
 50
194.036
 51
255.964
  0
LINE
  8
0
  6
SOLIDLINE
 62
249
 10
6.04
 20
5.34
 11
5.66
 21
5.34
  0
ARC
  8
0
  6
SOLIDLINE
 62
249
 10
6.04
 20
5.38
 40
0.04
 50
270
 51
341.565
  0
LINE
  8
0
  6
SOLIDLINE
 62
249
 10
5.63
 20
5.37
 11
5.63
 21
5.41
  0
TEXT
  8
0
 62
7
 10
5.65
 20
5.34059
 30
0.0
 40
0.04704
  1
120.00mA
 50
0
 41
1.098
 72
0
 11
5.65
 21
5.34059
 31
0
 73
0
  0
LINE
  8
0
  6
SOLIDLINE
 62
5
 10
5.87
 20
3.08
 11
5.93
 21
3.08
  0
LINE
  8
0
  6
SOLIDLINE
 62
5
 10
5.89
 20
3.06
 11
5.91
 21
3.06
  0
LINE
  8
0
  6
SOLIDLINE
 62
5
 10
5.85
 20
3.1
 11
5.95
 21
3.1
  0
LINE
  8
0
  6
SOLIDLINE
 62
5
 10
5.9
 20
3.2
 11
5.9
 21
3.1
  0
LINE
  8
0
  6
SOLIDLINE
 62
249
 10
4.6
 20
4
 11
4.6
 21
4.4
  0
LINE
  8
0
  6
SOLIDLINE
 62
249
 10
4.6
 20
4.4
 11
5.1
 21
4.4
  0
LINE
  8
0
  6
SOLIDLINE
 62
249
 10
4.6
 20
4.4
 11
4.6
 21
5.2
  0
SOLID
  8
0
  6
SOLIDLINE
 62
5
 10
4.6
 20
4.78
 30
0.0
 11
4.6
 21
4.74
 31
0.0
 12
4.99
 22
4.78
 32
0.0
 13
4.99
 23
4.74
 33
0.0
  0
SOLID
  8
0
  6
SOLIDLINE
 62
5
 10
4.63
 20
4.81
 30
0.0
 11
4.63
 21
4.71
 31
0.0
 12
4.96
 22
4.81
 32
0.0
 13
4.96
 23
4.71
 33
0.0
  0
POLYLINE
  8
0
  6
SOLIDLINE
 62
5
 66
  1
 10
0.0
 20
0.0
 30
0.0
 40
0.03
 41
0.03
 70
1
  0
VERTEX
  8
0
 10
4.62
 20
4.78
 30
0.0
 42
1
  0
VERTEX
  8
0
 10
4.64
 20
4.78
 30
0.0
 42
1
  0
SEQEND
  0
POLYLINE
  8
0
  6
SOLIDLINE
 62
5
 66
  1
 10
0.0
 20
0.0
 30
0.0
 40
0.03
 41
0.03
 70
1
  0
VERTEX
  8
0
 10
4.62
 20
4.74
 30
0.0
 42
1
  0
VERTEX
  8
0
 10
4.64
 20
4.74
 30
0.0
 42
1
  0
SEQEND
  0
POLYLINE
  8
0
  6
SOLIDLINE
 62
5
 66
  1
 10
0.0
 20
0.0
 30
0.0
 40
0.03
 41
0.03
 70
1
  0
VERTEX
  8
0
 10
4.95
 20
4.78
 30
0.0
 42
1
  0
VERTEX
  8
0
 10
4.97
 20
4.78
 30
0.0
 42
1
  0
SEQEND
  0
POLYLINE
  8
0
  6
SOLIDLINE
 62
5
 66
  1
 10
0.0
 20
0.0
 30
0.0
 40
0.03
 41
0.03
 70
1
  0
VERTEX
  8
0
 10
4.95
 20
4.74
 30
0.0
 42
1
  0
VERTEX
  8
0
 10
4.97
 20
4.74
 30
0.0
 42
1
  0
SEQEND
  0
ARC
  8
0
  6
SOLIDLINE
 62
249
 10
4.64
 20
4.78
 40
0.03
 50
108.435
 51
180
  0
LINE
  8
0
  6
SOLIDLINE
 62
249
 10
4.63
 20
4.81
 11
4.96
 21
4.81
  0
ARC
  8
0
  6
SOLIDLINE
 62
249
 10
4.96
 20
4.78
 40
0.03
 50
2.92403e-010
 51
90
  0
LINE
  8
0
  6
SOLIDLINE
 62
249
 10
4.99
 20
4.78
 11
4.99
 21
4.74
  0
ARC
  8
0
  6
SOLIDLINE
 62
249
 10
4.64
 20
4.75
 40
0.04
 50
194.036
 51
255.964
  0
LINE
  8
0
  6
SOLIDLINE
 62
249
 10
4.96
 20
4.71
 11
4.63
 21
4.71
  0
ARC
  8
0
  6
SOLIDLINE
 62
249
 10
4.96
 20
4.75
 40
0.04
 50
270
 51
341.565
  0
LINE
  8
0
  6
SOLIDLINE
 62
249
 10
4.6
 20
4.74
 11
4.6
 21
4.78
  0
TEXT
  8
0
 62
7
 10
4.62
 20
4.74355
 30
0.0
 40
0.04704
  1
-7.760V
 50
0
 41
1.098
 72
0
 11
4.62
 21
4.79059
 31
0
 73
3
  0
LINE
  8
0
  6
SOLIDLINE
 62
249
 10
4.6
 20
5.2
 11
5.2
 21
5.2
  0
LINE
  8
0
  6
SOLIDLINE
 62
249
 10
5.6
 20
5.2
 11
5.9
 21
5.2
  0
SOLID
  8
0
  6
SOLIDLINE
 62
5
 10
5.51
 20
5.14
 30
0.0
 11
5.51
 21
5.1
 31
0.0
 12
5.9
 22
5.14
 32
0.0
 13
5.9
 23
5.1
 33
0.0
  0
SOLID
  8
0
  6
SOLIDLINE
 62
5
 10
5.54
 20
5.17
 30
0.0
 11
5.54
 21
5.07
 31
0.0
 12
5.87
 22
5.17
 32
0.0
 13
5.87
 23
5.07
 33
0.0
  0
POLYLINE
  8
0
  6
SOLIDLINE
 62
5
 66
  1
 10
0.0
 20
0.0
 30
0.0
 40
0.03
 41
0.03
 70
1
  0
VERTEX
  8
0
 10
5.53
 20
5.14
 30
0.0
 42
1
  0
VERTEX
  8
0
 10
5.55
 20
5.14
 30
0.0
 42
1
  0
SEQEND
  0
POLYLINE
  8
0
  6
SOLIDLINE
 62
5
 66
  1
 10
0.0
 20
0.0
 30
0.0
 40
0.03
 41
0.03
 70
1
  0
VERTEX
  8
0
 10
5.53
 20
5.1
 30
0.0
 42
1
  0
VERTEX
  8
0
 10
5.55
 20
5.1
 30
0.0
 42
1
  0
SEQEND
  0
POLYLINE
  8
0
  6
SOLIDLINE
 62
5
 66
  1
 10
0.0
 20
0.0
 30
0.0
 40
0.03
 41
0.03
 70
1
  0
VERTEX
  8
0
 10
5.86
 20
5.14
 30
0.0
 42
1
  0
VERTEX
  8
0
 10
5.88
 20
5.14
 30
0.0
 42
1
  0
SEQEND
  0
POLYLINE
  8
0
  6
SOLIDLINE
 62
5
 66
  1
 10
0.0
 20
0.0
 30
0.0
 40
0.03
 41
0.03
 70
1
  0
VERTEX
  8
0
 10
5.86
 20
5.1
 30
0.0
 42
1
  0
VERTEX
  8
0
 10
5.88
 20
5.1
 30
0.0
 42
1
  0
SEQEND
  0
ARC
  8
0
  6
SOLIDLINE
 62
249
 10
5.55
 20
5.14
 40
0.03
 50
108.435
 51
180
  0
LINE
  8
0
  6
SOLIDLINE
 62
249
 10
5.54
 20
5.17
 11
5.87
 21
5.17
  0
ARC
  8
0
  6
SOLIDLINE
 62
249
 10
5.87
 20
5.14
 40
0.03
 50
2.92403e-010
 51
90
  0
LINE
  8
0
  6
SOLIDLINE
 62
249
 10
5.9
 20
5.14
 11
5.9
 21
5.1
  0
ARC
  8
0
  6
SOLIDLINE
 62
249
 10
5.55
 20
5.11
 40
0.04
 50
194.036
 51
255.964
  0
LINE
  8
0
  6
SOLIDLINE
 62
249
 10
5.87
 20
5.07
 11
5.54
 21
5.07
  0
ARC
  8
0
  6
SOLIDLINE
 62
249
 10
5.87
 20
5.11
 40
0.04
 50
270
 51
341.565
  0
LINE
  8
0
  6
SOLIDLINE
 62
249
 10
5.51
 20
5.1
 11
5.51
 21
5.14
  0
TEXT
  8
0
 62
7
 10
5.8029
 20
5.10355
 30
0.0
 40
0.04704
  1
-4.320V
 50
0
 41
1.098
 72
1
 11
5.7
 21
5.15059
 31
0
 73
3
  0
LINE
  8
0
  6
SOLIDLINE
 62
249
 10
5.9
 20
5.2
 11
5.9
 21
5
  0
LINE
  8
0
  6
SOLIDLINE
 62
249
 10
5.5
 20
4.4
 11
5.9
 21
4.4
  0
LINE
  8
0
  6
SOLIDLINE
 62
249
 10
5.9
 20
4.4
 11
5.9
 21
4
  0
SOLID
  8
0
  6
SOLIDLINE
 62
5
 10
5.95
 20
4.18
 30
0.0
 11
5.95
 21
4.14
 31
0.0
 12
6.34
 22
4.18
 32
0.0
 13
6.34
 23
4.14
 33
0.0
  0
SOLID
  8
0
  6
SOLIDLINE
 62
5
 10
5.98
 20
4.21
 30
0.0
 11
5.98
 21
4.11
 31
0.0
 12
6.31
 22
4.21
 32
0.0
 13
6.31
 23
4.11
 33
0.0
  0
POLYLINE
  8
0
  6
SOLIDLINE
 62
5
 66
  1
 10
0.0
 20
0.0
 30
0.0
 40
0.03
 41
0.03
 70
1
  0
VERTEX
  8
0
 10
5.97
 20
4.18
 30
0.0
 42
1
  0
VERTEX
  8
0
 10
5.99
 20
4.18
 30
0.0
 42
1
  0
SEQEND
  0
POLYLINE
  8
0
  6
SOLIDLINE
 62
5
 66
  1
 10
0.0
 20
0.0
 30
0.0
 40
0.03
 41
0.03
 70
1
  0
VERTEX
  8
0
 10
5.97
 20
4.14
 30
0.0
 42
1
  0
VERTEX
  8
0
 10
5.99
 20
4.14
 30
0.0
 42
1
  0
SEQEND
  0
POLYLINE
  8
0
  6
SOLIDLINE
 62
5
 66
  1
 10
0.0
 20
0.0
 30
0.0
 40
0.03
 41
0.03
 70
1
  0
VERTEX
  8
0
 10
6.3
 20
4.18
 30
0.0
 42
1
  0
VERTEX
  8
0
 10
6.32
 20
4.18
 30
0.0
 42
1
  0
SEQEND
  0
POLYLINE
  8
0
  6
SOLIDLINE
 62
5
 66
  1
 10
0.0
 20
0.0
 30
0.0
 40
0.03
 41
0.03
 70
1
  0
VERTEX
  8
0
 10
6.3
 20
4.14
 30
0.0
 42
1
  0
VERTEX
  8
0
 10
6.32
 20
4.14
 30
0.0
 42
1
  0
SEQEND
  0
ARC
  8
0
  6
SOLIDLINE
 62
249
 10
5.99
 20
4.18
 40
0.03
 50
108.435
 51
180
  0
LINE
  8
0
  6
SOLIDLINE
 62
249
 10
5.98
 20
4.21
 11
6.31
 21
4.21
  0
ARC
  8
0
  6
SOLIDLINE
 62
249
 10
6.31
 20
4.18
 40
0.03
 50
2.92403e-010
 51
90
  0
LINE
  8
0
  6
SOLIDLINE
 62
249
 10
6.34
 20
4.18
 11
6.34
 21
4.14
  0
ARC
  8
0
  6
SOLIDLINE
 62
249
 10
5.99
 20
4.15
 40
0.04
 50
194.036
 51
255.964
  0
LINE
  8
0
  6
SOLIDLINE
 62
249
 10
6.31
 20
4.11
 11
5.98
 21
4.11
  0
ARC
  8
0
  6
SOLIDLINE
 62
249
 10
6.31
 20
4.15
 40
0.04
 50
270
 51
341.565
  0
LINE
  8
0
  6
SOLIDLINE
 62
249
 10
5.95
 20
4.14
 11
5.95
 21
4.18
  0
TEXT
  8
0
 62
7
 10
5.97
 20
4.14355
 30
0.0
 40
0.04704
  1
-3.360V
 50
0
 41
1.098
 72
0
 11
5.97
 21
4.19059
 31
0
 73
3
  0
LINE
  8
0
  6
SOLIDLINE
 62
249
 10
5.9
 20
4.6
 11
5.9
 21
4.4
  0
LINE
  8
0
  6
SOLIDLINE
 62
249
 10
5
 20
3.2
 11
4.6
 21
3.2
  0
LINE
  8
0
  6
SOLIDLINE
 62
249
 10
4.6
 20
3.2
 11
4.6
 21
3.6
  0
SOLID
  8
0
  6
SOLIDLINE
 62
5
 10
4.3
 20
3.38
 30
0.0
 11
4.3
 21
3.34
 31
0.0
 12
4.64
 22
3.38
 32
0.0
 13
4.64
 23
3.34
 33
0.0
  0
SOLID
  8
0
  6
SOLIDLINE
 62
5
 10
4.33
 20
3.41
 30
0.0
 11
4.33
 21
3.31
 31
0.0
 12
4.61
 22
3.41
 32
0.0
 13
4.61
 23
3.31
 33
0.0
  0
POLYLINE
  8
0
  6
SOLIDLINE
 62
5
 66
  1
 10
0.0
 20
0.0
 30
0.0
 40
0.03
 41
0.03
 70
1
  0
VERTEX
  8
0
 10
4.32
 20
3.38
 30
0.0
 42
1
  0
VERTEX
  8
0
 10
4.34
 20
3.38
 30
0.0
 42
1
  0
SEQEND
  0
POLYLINE
  8
0
  6
SOLIDLINE
 62
5
 66
  1
 10
0.0
 20
0.0
 30
0.0
 40
0.03
 41
0.03
 70
1
  0
VERTEX
  8
0
 10
4.32
 20
3.34
 30
0.0
 42
1
  0
VERTEX
  8
0
 10
4.34
 20
3.34
 30
0.0
 42
1
  0
SEQEND
  0
POLYLINE
  8
0
  6
SOLIDLINE
 62
5
 66
  1
 10
0.0
 20
0.0
 30
0.0
 40
0.03
 41
0.03
 70
1
  0
VERTEX
  8
0
 10
4.6
 20
3.38
 30
0.0
 42
1
  0
VERTEX
  8
0
 10
4.62
 20
3.38
 30
0.0
 42
1
  0
SEQEND
  0
POLYLINE
  8
0
  6
SOLIDLINE
 62
5
 66
  1
 10
0.0
 20
0.0
 30
0.0
 40
0.03
 41
0.03
 70
1
  0
VERTEX
  8
0
 10
4.6
 20
3.34
 30
0.0
 42
1
  0
VERTEX
  8
0
 10
4.62
 20
3.34
 30
0.0
 42
1
  0
SEQEND
  0
ARC
  8
0
  6
SOLIDLINE
 62
249
 10
4.34
 20
3.38
 40
0.03
 50
108.435
 51
180
  0
LINE
  8
0
  6
SOLIDLINE
 62
249
 10
4.33
 20
3.41
 11
4.61
 21
3.41
  0
ARC
  8
0
  6
SOLIDLINE
 62
249
 10
4.61
 20
3.38
 40
0.03
 50
2.92403e-010
 51
90
  0
LINE
  8
0
  6
SOLIDLINE
 62
249
 10
4.64
 20
3.38
 11
4.64
 21
3.34
  0
ARC
  8
0
  6
SOLIDLINE
 62
249
 10
4.34
 20
3.35
 40
0.04
 50
194.036
 51
255.964
  0
LINE
  8
0
  6
SOLIDLINE
 62
249
 10
4.61
 20
3.31
 11
4.33
 21
3.31
  0
ARC
  8
0
  6
SOLIDLINE
 62
249
 10
4.61
 20
3.35
 40
0.04
 50
270
 51
341.565
  0
LINE
  8
0
  6
SOLIDLINE
 62
249
 10
4.3
 20
3.34
 11
4.3
 21
3.38
  0
TEXT
  8
0
 62
7
 10
4.32
 20
3.34355
 30
0.0
 40
0.04704
  1
2.240V
 50
0
 41
1.098
 72
0
 11
4.32
 21
3.39059
 31
0
 73
3
  0
LINE
  8
0
  6
SOLIDLINE
 62
249
 10
5.9
 20
3.6
 11
5.9
 21
3.2
  0
LINE
  8
0
  6
SOLIDLINE
 62
249
 10
5.9
 20
3.2
 11
5.4
 21
3.2
  0
SOLID
  8
0
  6
SOLIDLINE
 62
5
 10
5.58
 20
3.14
 30
0.0
 11
5.58
 21
3.1
 31
0.0
 12
5.72
 22
3.14
 32
0.0
 13
5.72
 23
3.1
 33
0.0
  0
SOLID
  8
0
  6
SOLIDLINE
 62
5
 10
5.61
 20
3.17
 30
0.0
 11
5.61
 21
3.07
 31
0.0
 12
5.69
 22
3.17
 32
0.0
 13
5.69
 23
3.07
 33
0.0
  0
POLYLINE
  8
0
  6
SOLIDLINE
 62
5
 66
  1
 10
0.0
 20
0.0
 30
0.0
 40
0.03
 41
0.03
 70
1
  0
VERTEX
  8
0
 10
5.6
 20
3.14
 30
0.0
 42
1
  0
VERTEX
  8
0
 10
5.62
 20
3.14
 30
0.0
 42
1
  0
SEQEND
  0
POLYLINE
  8
0
  6
SOLIDLINE
 62
5
 66
  1
 10
0.0
 20
0.0
 30
0.0
 40
0.03
 41
0.03
 70
1
  0
VERTEX
  8
0
 10
5.6
 20
3.1
 30
0.0
 42
1
  0
VERTEX
  8
0
 10
5.62
 20
3.1
 30
0.0
 42
1
  0
SEQEND
  0
POLYLINE
  8
0
  6
SOLIDLINE
 62
5
 66
  1
 10
0.0
 20
0.0
 30
0.0
 40
0.03
 41
0.03
 70
1
  0
VERTEX
  8
0
 10
5.68
 20
3.14
 30
0.0
 42
1
  0
VERTEX
  8
0
 10
5.7
 20
3.14
 30
0.0
 42
1
  0
SEQEND
  0
POLYLINE
  8
0
  6
SOLIDLINE
 62
5
 66
  1
 10
0.0
 20
0.0
 30
0.0
 40
0.03
 41
0.03
 70
1
  0
VERTEX
  8
0
 10
5.68
 20
3.1
 30
0.0
 42
1
  0
VERTEX
  8
0
 10
5.7
 20
3.1
 30
0.0
 42
1
  0
SEQEND
  0
ARC
  8
0
  6
SOLIDLINE
 62
249
 10
5.62
 20
3.14
 40
0.03
 50
108.435
 51
180
  0
LINE
  8
0
  6
SOLIDLINE
 62
249
 10
5.61
 20
3.17
 11
5.69
 21
3.17
  0
ARC
  8
0
  6
SOLIDLINE
 62
249
 10
5.69
 20
3.14
 40
0.03
 50
2.92403e-010
 51
90
  0
LINE
  8
0
  6
SOLIDLINE
 62
249
 10
5.72
 20
3.14
 11
5.72
 21
3.1
  0
ARC
  8
0
  6
SOLIDLINE
 62
249
 10
5.62
 20
3.11
 40
0.04
 50
194.036
 51
255.964
  0
LINE
  8
0
  6
SOLIDLINE
 62
249
 10
5.69
 20
3.07
 11
5.61
 21
3.07
  0
ARC
  8
0
  6
SOLIDLINE
 62
249
 10
5.69
 20
3.11
 40
0.04
 50
270
 51
341.565
  0
LINE
  8
0
  6
SOLIDLINE
 62
249
 10
5.58
 20
3.1
 11
5.58
 21
3.14
  0
TEXT
  8
0
 62
7
 10
5.6794
 20
3.10355
 30
0.0
 40
0.04704
  1
0V
 50
0
 41
1.098
 72
1
 11
5.65
 21
3.15059
 31
0
 73
3
  0
POLYLINE
  8
0
  6
SOLIDLINE
 62
5
 66
  1
 10
0.0
 20
0.0
 30
0.0
 40
0.02
 41
0.02
 70
1
  0
VERTEX
  8
0
 10
4.59
 20
4.4
 30
0.0
 42
1
  0
VERTEX
  8
0
 10
4.61
 20
4.4
 30
0.0
 42
1
  0
SEQEND
  0
POLYLINE
  8
0
  6
SOLIDLINE
 62
5
 66
  1
 10
0.0
 20
0.0
 30
0.0
 40
0.02
 41
0.02
 70
1
  0
VERTEX
  8
0
 10
5.89
 20
3.2
 30
0.0
 42
1
  0
VERTEX
  8
0
 10
5.91
 20
3.2
 30
0.0
 42
1
  0
SEQEND
  0
POLYLINE
  8
0
  6
SOLIDLINE
 62
5
 66
  1
 10
0.0
 20
0.0
 30
0.0
 40
0.02
 41
0.02
 70
1
  0
VERTEX
  8
0
 10
5.89
 20
4.4
 30
0.0
 42
1
  0
VERTEX
  8
0
 10
5.91
 20
4.4
 30
0.0
 42
1
  0
SEQEND
  0
SOLID
  8
0
  6
SOLIDLINE
 62
5
 10
4.6
 20
4.78
 30
0.0
 11
4.6
 21
4.74
 31
0.0
 12
4.99
 22
4.78
 32
0.0
 13
4.99
 23
4.74
 33
0.0
  0
SOLID
  8
0
  6
SOLIDLINE
 62
5
 10
4.63
 20
4.81
 30
0.0
 11
4.63
 21
4.71
 31
0.0
 12
4.96
 22
4.81
 32
0.0
 13
4.96
 23
4.71
 33
0.0
  0
POLYLINE
  8
0
  6
SOLIDLINE
 62
5
 66
  1
 10
0.0
 20
0.0
 30
0.0
 40
0.03
 41
0.03
 70
1
  0
VERTEX
  8
0
 10
4.62
 20
4.78
 30
0.0
 42
1
  0
VERTEX
  8
0
 10
4.64
 20
4.78
 30
0.0
 42
1
  0
SEQEND
  0
POLYLINE
  8
0
  6
SOLIDLINE
 62
5
 66
  1
 10
0.0
 20
0.0
 30
0.0
 40
0.03
 41
0.03
 70
1
  0
VERTEX
  8
0
 10
4.62
 20
4.74
 30
0.0
 42
1
  0
VERTEX
  8
0
 10
4.64
 20
4.74
 30
0.0
 42
1
  0
SEQEND
  0
POLYLINE
  8
0
  6
SOLIDLINE
 62
5
 66
  1
 10
0.0
 20
0.0
 30
0.0
 40
0.03
 41
0.03
 70
1
  0
VERTEX
  8
0
 10
4.95
 20
4.78
 30
0.0
 42
1
  0
VERTEX
  8
0
 10
4.97
 20
4.78
 30
0.0
 42
1
  0
SEQEND
  0
POLYLINE
  8
0
  6
SOLIDLINE
 62
5
 66
  1
 10
0.0
 20
0.0
 30
0.0
 40
0.03
 41
0.03
 70
1
  0
VERTEX
  8
0
 10
4.95
 20
4.74
 30
0.0
 42
1
  0
VERTEX
  8
0
 10
4.97
 20
4.74
 30
0.0
 42
1
  0
SEQEND
  0
ARC
  8
0
  6
SOLIDLINE
 62
249
 10
4.64
 20
4.78
 40
0.03
 50
108.435
 51
180
  0
LINE
  8
0
  6
SOLIDLINE
 62
249
 10
4.63
 20
4.81
 11
4.96
 21
4.81
  0
ARC
  8
0
  6
SOLIDLINE
 62
249
 10
4.96
 20
4.78
 40
0.03
 50
2.92403e-010
 51
90
  0
LINE
  8
0
  6
SOLIDLINE
 62
249
 10
4.99
 20
4.78
 11
4.99
 21
4.74
  0
ARC
  8
0
  6
SOLIDLINE
 62
249
 10
4.64
 20
4.75
 40
0.04
 50
194.036
 51
255.964
  0
LINE
  8
0
  6
SOLIDLINE
 62
249
 10
4.96
 20
4.71
 11
4.63
 21
4.71
  0
ARC
  8
0
  6
SOLIDLINE
 62
249
 10
4.96
 20
4.75
 40
0.04
 50
270
 51
341.565
  0
LINE
  8
0
  6
SOLIDLINE
 62
249
 10
4.6
 20
4.74
 11
4.6
 21
4.78
  0
TEXT
  8
0
 62
7
 10
4.62
 20
4.74355
 30
0.0
 40
0.04704
  1
-7.760V
 50
0
 41
1.098
 72
0
 11
4.62
 21
4.79059
 31
0
 73
3
  0
SOLID
  8
0
  6
SOLIDLINE
 62
5
 10
5.51
 20
5.14
 30
0.0
 11
5.51
 21
5.1
 31
0.0
 12
5.9
 22
5.14
 32
0.0
 13
5.9
 23
5.1
 33
0.0
  0
SOLID
  8
0
  6
SOLIDLINE
 62
5
 10
5.54
 20
5.17
 30
0.0
 11
5.54
 21
5.07
 31
0.0
 12
5.87
 22
5.17
 32
0.0
 13
5.87
 23
5.07
 33
0.0
  0
POLYLINE
  8
0
  6
SOLIDLINE
 62
5
 66
  1
 10
0.0
 20
0.0
 30
0.0
 40
0.03
 41
0.03
 70
1
  0
VERTEX
  8
0
 10
5.53
 20
5.14
 30
0.0
 42
1
  0
VERTEX
  8
0
 10
5.55
 20
5.14
 30
0.0
 42
1
  0
SEQEND
  0
POLYLINE
  8
0
  6
SOLIDLINE
 62
5
 66
  1
 10
0.0
 20
0.0
 30
0.0
 40
0.03
 41
0.03
 70
1
  0
VERTEX
  8
0
 10
5.53
 20
5.1
 30
0.0
 42
1
  0
VERTEX
  8
0
 10
5.55
 20
5.1
 30
0.0
 42
1
  0
SEQEND
  0
POLYLINE
  8
0
  6
SOLIDLINE
 62
5
 66
  1
 10
0.0
 20
0.0
 30
0.0
 40
0.03
 41
0.03
 70
1
  0
VERTEX
  8
0
 10
5.86
 20
5.14
 30
0.0
 42
1
  0
VERTEX
  8
0
 10
5.88
 20
5.14
 30
0.0
 42
1
  0
SEQEND
  0
POLYLINE
  8
0
  6
SOLIDLINE
 62
5
 66
  1
 10
0.0
 20
0.0
 30
0.0
 40
0.03
 41
0.03
 70
1
  0
VERTEX
  8
0
 10
5.86
 20
5.1
 30
0.0
 42
1
  0
VERTEX
  8
0
 10
5.88
 20
5.1
 30
0.0
 42
1
  0
SEQEND
  0
ARC
  8
0
  6
SOLIDLINE
 62
249
 10
5.55
 20
5.14
 40
0.03
 50
108.435
 51
180
  0
LINE
  8
0
  6
SOLIDLINE
 62
249
 10
5.54
 20
5.17
 11
5.87
 21
5.17
  0
ARC
  8
0
  6
SOLIDLINE
 62
249
 10
5.87
 20
5.14
 40
0.03
 50
2.92403e-010
 51
90
  0
LINE
  8
0
  6
SOLIDLINE
 62
249
 10
5.9
 20
5.14
 11
5.9
 21
5.1
  0
ARC
  8
0
  6
SOLIDLINE
 62
249
 10
5.55
 20
5.11
 40
0.04
 50
194.036
 51
255.964
  0
LINE
  8
0
  6
SOLIDLINE
 62
249
 10
5.87
 20
5.07
 11
5.54
 21
5.07
  0
ARC
  8
0
  6
SOLIDLINE
 62
249
 10
5.87
 20
5.11
 40
0.04
 50
270
 51
341.565
  0
LINE
  8
0
  6
SOLIDLINE
 62
249
 10
5.51
 20
5.1
 11
5.51
 21
5.14
  0
TEXT
  8
0
 62
7
 10
5.8029
 20
5.10355
 30
0.0
 40
0.04704
  1
-4.320V
 50
0
 41
1.098
 72
1
 11
5.7
 21
5.15059
 31
0
 73
3
  0
SOLID
  8
0
  6
SOLIDLINE
 62
5
 10
5.95
 20
4.18
 30
0.0
 11
5.95
 21
4.14
 31
0.0
 12
6.34
 22
4.18
 32
0.0
 13
6.34
 23
4.14
 33
0.0
  0
SOLID
  8
0
  6
SOLIDLINE
 62
5
 10
5.98
 20
4.21
 30
0.0
 11
5.98
 21
4.11
 31
0.0
 12
6.31
 22
4.21
 32
0.0
 13
6.31
 23
4.11
 33
0.0
  0
POLYLINE
  8
0
  6
SOLIDLINE
 62
5
 66
  1
 10
0.0
 20
0.0
 30
0.0
 40
0.03
 41
0.03
 70
1
  0
VERTEX
  8
0
 10
5.97
 20
4.18
 30
0.0
 42
1
  0
VERTEX
  8
0
 10
5.99
 20
4.18
 30
0.0
 42
1
  0
SEQEND
  0
POLYLINE
  8
0
  6
SOLIDLINE
 62
5
 66
  1
 10
0.0
 20
0.0
 30
0.0
 40
0.03
 41
0.03
 70
1
  0
VERTEX
  8
0
 10
5.97
 20
4.14
 30
0.0
 42
1
  0
VERTEX
  8
0
 10
5.99
 20
4.14
 30
0.0
 42
1
  0
SEQEND
  0
POLYLINE
  8
0
  6
SOLIDLINE
 62
5
 66
  1
 10
0.0
 20
0.0
 30
0.0
 40
0.03
 41
0.03
 70
1
  0
VERTEX
  8
0
 10
6.3
 20
4.18
 30
0.0
 42
1
  0
VERTEX
  8
0
 10
6.32
 20
4.18
 30
0.0
 42
1
  0
SEQEND
  0
POLYLINE
  8
0
  6
SOLIDLINE
 62
5
 66
  1
 10
0.0
 20
0.0
 30
0.0
 40
0.03
 41
0.03
 70
1
  0
VERTEX
  8
0
 10
6.3
 20
4.14
 30
0.0
 42
1
  0
VERTEX
  8
0
 10
6.32
 20
4.14
 30
0.0
 42
1
  0
SEQEND
  0
ARC
  8
0
  6
SOLIDLINE
 62
249
 10
5.99
 20
4.18
 40
0.03
 50
108.435
 51
180
  0
LINE
  8
0
  6
SOLIDLINE
 62
249
 10
5.98
 20
4.21
 11
6.31
 21
4.21
  0
ARC
  8
0
  6
SOLIDLINE
 62
249
 10
6.31
 20
4.18
 40
0.03
 50
2.92403e-010
 51
90
  0
LINE
  8
0
  6
SOLIDLINE
 62
249
 10
6.34
 20
4.18
 11
6.34
 21
4.14
  0
ARC
  8
0
  6
SOLIDLINE
 62
249
 10
5.99
 20
4.15
 40
0.04
 50
194.036
 51
255.964
  0
LINE
  8
0
  6
SOLIDLINE
 62
249
 10
6.31
 20
4.11
 11
5.98
 21
4.11
  0
ARC
  8
0
  6
SOLIDLINE
 62
249
 10
6.31
 20
4.15
 40
0.04
 50
270
 51
341.565
  0
LINE
  8
0
  6
SOLIDLINE
 62
249
 10
5.95
 20
4.14
 11
5.95
 21
4.18
  0
TEXT
  8
0
 62
7
 10
5.97
 20
4.14355
 30
0.0
 40
0.04704
  1
-3.360V
 50
0
 41
1.098
 72
0
 11
5.97
 21
4.19059
 31
0
 73
3
  0
SOLID
  8
0
  6
SOLIDLINE
 62
5
 10
4.3
 20
3.38
 30
0.0
 11
4.3
 21
3.34
 31
0.0
 12
4.64
 22
3.38
 32
0.0
 13
4.64
 23
3.34
 33
0.0
  0
SOLID
  8
0
  6
SOLIDLINE
 62
5
 10
4.33
 20
3.41
 30
0.0
 11
4.33
 21
3.31
 31
0.0
 12
4.61
 22
3.41
 32
0.0
 13
4.61
 23
3.31
 33
0.0
  0
POLYLINE
  8
0
  6
SOLIDLINE
 62
5
 66
  1
 10
0.0
 20
0.0
 30
0.0
 40
0.03
 41
0.03
 70
1
  0
VERTEX
  8
0
 10
4.32
 20
3.38
 30
0.0
 42
1
  0
VERTEX
  8
0
 10
4.34
 20
3.38
 30
0.0
 42
1
  0
SEQEND
  0
POLYLINE
  8
0
  6
SOLIDLINE
 62
5
 66
  1
 10
0.0
 20
0.0
 30
0.0
 40
0.03
 41
0.03
 70
1
  0
VERTEX
  8
0
 10
4.32
 20
3.34
 30
0.0
 42
1
  0
VERTEX
  8
0
 10
4.34
 20
3.34
 30
0.0
 42
1
  0
SEQEND
  0
POLYLINE
  8
0
  6
SOLIDLINE
 62
5
 66
  1
 10
0.0
 20
0.0
 30
0.0
 40
0.03
 41
0.03
 70
1
  0
VERTEX
  8
0
 10
4.6
 20
3.38
 30
0.0
 42
1
  0
VERTEX
  8
0
 10
4.62
 20
3.38
 30
0.0
 42
1
  0
SEQEND
  0
POLYLINE
  8
0
  6
SOLIDLINE
 62
5
 66
  1
 10
0.0
 20
0.0
 30
0.0
 40
0.03
 41
0.03
 70
1
  0
VERTEX
  8
0
 10
4.6
 20
3.34
 30
0.0
 42
1
  0
VERTEX
  8
0
 10
4.62
 20
3.34
 30
0.0
 42
1
  0
SEQEND
  0
ARC
  8
0
  6
SOLIDLINE
 62
249
 10
4.34
 20
3.38
 40
0.03
 50
108.435
 51
180
  0
LINE
  8
0
  6
SOLIDLINE
 62
249
 10
4.33
 20
3.41
 11
4.61
 21
3.41
  0
ARC
  8
0
  6
SOLIDLINE
 62
249
 10
4.61
 20
3.38
 40
0.03
 50
2.92403e-010
 51
90
  0
LINE
  8
0
  6
SOLIDLINE
 62
249
 10
4.64
 20
3.38
 11
4.64
 21
3.34
  0
ARC
  8
0
  6
SOLIDLINE
 62
249
 10
4.34
 20
3.35
 40
0.04
 50
194.036
 51
255.964
  0
LINE
  8
0
  6
SOLIDLINE
 62
249
 10
4.61
 20
3.31
 11
4.33
 21
3.31
  0
ARC
  8
0
  6
SOLIDLINE
 62
249
 10
4.61
 20
3.35
 40
0.04
 50
270
 51
341.565
  0
LINE
  8
0
  6
SOLIDLINE
 62
249
 10
4.3
 20
3.34
 11
4.3
 21
3.38
  0
TEXT
  8
0
 62
7
 10
4.32
 20
3.34355
 30
0.0
 40
0.04704
  1
2.240V
 50
0
 41
1.098
 72
0
 11
4.32
 21
3.39059
 31
0
 73
3
  0
SOLID
  8
0
  6
SOLIDLINE
 62
5
 10
5.58
 20
3.14
 30
0.0
 11
5.58
 21
3.1
 31
0.0
 12
5.72
 22
3.14
 32
0.0
 13
5.72
 23
3.1
 33
0.0
  0
SOLID
  8
0
  6
SOLIDLINE
 62
5
 10
5.61
 20
3.17
 30
0.0
 11
5.61
 21
3.07
 31
0.0
 12
5.69
 22
3.17
 32
0.0
 13
5.69
 23
3.07
 33
0.0
  0
POLYLINE
  8
0
  6
SOLIDLINE
 62
5
 66
  1
 10
0.0
 20
0.0
 30
0.0
 40
0.03
 41
0.03
 70
1
  0
VERTEX
  8
0
 10
5.6
 20
3.14
 30
0.0
 42
1
  0
VERTEX
  8
0
 10
5.62
 20
3.14
 30
0.0
 42
1
  0
SEQEND
  0
POLYLINE
  8
0
  6
SOLIDLINE
 62
5
 66
  1
 10
0.0
 20
0.0
 30
0.0
 40
0.03
 41
0.03
 70
1
  0
VERTEX
  8
0
 10
5.6
 20
3.1
 30
0.0
 42
1
  0
VERTEX
  8
0
 10
5.62
 20
3.1
 30
0.0
 42
1
  0
SEQEND
  0
POLYLINE
  8
0
  6
SOLIDLINE
 62
5
 66
  1
 10
0.0
 20
0.0
 30
0.0
 40
0.03
 41
0.03
 70
1
  0
VERTEX
  8
0
 10
5.68
 20
3.14
 30
0.0
 42
1
  0
VERTEX
  8
0
 10
5.7
 20
3.14
 30
0.0
 42
1
  0
SEQEND
  0
POLYLINE
  8
0
  6
SOLIDLINE
 62
5
 66
  1
 10
0.0
 20
0.0
 30
0.0
 40
0.03
 41
0.03
 70
1
  0
VERTEX
  8
0
 10
5.68
 20
3.1
 30
0.0
 42
1
  0
VERTEX
  8
0
 10
5.7
 20
3.1
 30
0.0
 42
1
  0
SEQEND
  0
ARC
  8
0
  6
SOLIDLINE
 62
249
 10
5.62
 20
3.14
 40
0.03
 50
108.435
 51
180
  0
LINE
  8
0
  6
SOLIDLINE
 62
249
 10
5.61
 20
3.17
 11
5.69
 21
3.17
  0
ARC
  8
0
  6
SOLIDLINE
 62
249
 10
5.69
 20
3.14
 40
0.03
 50
2.92403e-010
 51
90
  0
LINE
  8
0
  6
SOLIDLINE
 62
249
 10
5.72
 20
3.14
 11
5.72
 21
3.1
  0
ARC
  8
0
  6
SOLIDLINE
 62
249
 10
5.62
 20
3.11
 40
0.04
 50
194.036
 51
255.964
  0
LINE
  8
0
  6
SOLIDLINE
 62
249
 10
5.69
 20
3.07
 11
5.61
 21
3.07
  0
ARC
  8
0
  6
SOLIDLINE
 62
249
 10
5.69
 20
3.11
 40
0.04
 50
270
 51
341.565
  0
LINE
  8
0
  6
SOLIDLINE
 62
249
 10
5.58
 20
3.1
 11
5.58
 21
3.14
  0
TEXT
  8
0
 62
7
 10
5.6794
 20
3.10355
 30
0.0
 40
0.04704
  1
0V
 50
0
 41
1.098
 72
1
 11
5.65
 21
3.15059
 31
0
 73
3
  0
SOLID
  8
0
  6
SOLIDLINE
 62
1
 10
5.93
 20
4.63
 30
0.0
 11
5.93
 21
4.59
 31
0.0
 12
6.37
 22
4.63
 32
0.0
 13
6.37
 23
4.59
 33
0.0
  0
SOLID
  8
0
  6
SOLIDLINE
 62
1
 10
5.96
 20
4.66
 30
0.0
 11
5.96
 21
4.56
 31
0.0
 12
6.34
 22
4.66
 32
0.0
 13
6.34
 23
4.56
 33
0.0
  0
POLYLINE
  8
0
  6
SOLIDLINE
 62
1
 66
  1
 10
0.0
 20
0.0
 30
0.0
 40
0.03
 41
0.03
 70
1
  0
VERTEX
  8
0
 10
5.95
 20
4.63
 30
0.0
 42
1
  0
VERTEX
  8
0
 10
5.97
 20
4.63
 30
0.0
 42
1
  0
SEQEND
  0
POLYLINE
  8
0
  6
SOLIDLINE
 62
1
 66
  1
 10
0.0
 20
0.0
 30
0.0
 40
0.03
 41
0.03
 70
1
  0
VERTEX
  8
0
 10
5.95
 20
4.59
 30
0.0
 42
1
  0
VERTEX
  8
0
 10
5.97
 20
4.59
 30
0.0
 42
1
  0
SEQEND
  0
POLYLINE
  8
0
  6
SOLIDLINE
 62
1
 66
  1
 10
0.0
 20
0.0
 30
0.0
 40
0.03
 41
0.03
 70
1
  0
VERTEX
  8
0
 10
6.33
 20
4.63
 30
0.0
 42
1
  0
VERTEX
  8
0
 10
6.35
 20
4.63
 30
0.0
 42
1
  0
SEQEND
  0
POLYLINE
  8
0
  6
SOLIDLINE
 62
1
 66
  1
 10
0.0
 20
0.0
 30
0.0
 40
0.03
 41
0.03
 70
1
  0
VERTEX
  8
0
 10
6.33
 20
4.59
 30
0.0
 42
1
  0
VERTEX
  8
0
 10
6.35
 20
4.59
 30
0.0
 42
1
  0
SEQEND
  0
ARC
  8
0
  6
SOLIDLINE
 62
249
 10
5.97
 20
4.63
 40
0.03
 50
108.435
 51
180
  0
LINE
  8
0
  6
SOLIDLINE
 62
249
 10
5.96
 20
4.66
 11
6.34
 21
4.66
  0
ARC
  8
0
  6
SOLIDLINE
 62
249
 10
6.34
 20
4.63
 40
0.03
 50
2.92403e-010
 51
90
  0
LINE
  8
0
  6
SOLIDLINE
 62
249
 10
6.37
 20
4.63
 11
6.37
 21
4.59
  0
ARC
  8
0
  6
SOLIDLINE
 62
249
 10
5.97
 20
4.6
 40
0.04
 50
194.036
 51
255.964
  0
LINE
  8
0
  6
SOLIDLINE
 62
249
 10
6.34
 20
4.56
 11
5.96
 21
4.56
  0
ARC
  8
0
  6
SOLIDLINE
 62
249
 10
6.34
 20
4.6
 40
0.04
 50
270
 51
341.565
  0
LINE
  8
0
  6
SOLIDLINE
 62
249
 10
5.93
 20
4.59
 11
5.93
 21
4.63
  0
TEXT
  8
0
 62
7
 10
5.95
 20
4.59355
 30
0.0
 40
0.04704
  1
120.00mA
 50
0
 41
1.098
 72
0
 11
5.95
 21
4.64059
 31
0
 73
3
  0
SOLID
  8
0
  6
SOLIDLINE
 62
1
 10
5.43
 20
4.56
 30
0.0
 11
5.43
 21
4.52
 31
0.0
 12
5.87
 22
4.56
 32
0.0
 13
5.87
 23
4.52
 33
0.0
  0
SOLID
  8
0
  6
SOLIDLINE
 62
1
 10
5.46
 20
4.59
 30
0.0
 11
5.46
 21
4.49
 31
0.0
 12
5.84
 22
4.59
 32
0.0
 13
5.84
 23
4.49
 33
0.0
  0
POLYLINE
  8
0
  6
SOLIDLINE
 62
1
 66
  1
 10
0.0
 20
0.0
 30
0.0
 40
0.03
 41
0.03
 70
1
  0
VERTEX
  8
0
 10
5.45
 20
4.56
 30
0.0
 42
1
  0
VERTEX
  8
0
 10
5.47
 20
4.56
 30
0.0
 42
1
  0
SEQEND
  0
POLYLINE
  8
0
  6
SOLIDLINE
 62
1
 66
  1
 10
0.0
 20
0.0
 30
0.0
 40
0.03
 41
0.03
 70
1
  0
VERTEX
  8
0
 10
5.45
 20
4.52
 30
0.0
 42
1
  0
VERTEX
  8
0
 10
5.47
 20
4.52
 30
0.0
 42
1
  0
SEQEND
  0
POLYLINE
  8
0
  6
SOLIDLINE
 62
1
 66
  1
 10
0.0
 20
0.0
 30
0.0
 40
0.03
 41
0.03
 70
1
  0
VERTEX
  8
0
 10
5.83
 20
4.56
 30
0.0
 42
1
  0
VERTEX
  8
0
 10
5.85
 20
4.56
 30
0.0
 42
1
  0
SEQEND
  0
POLYLINE
  8
0
  6
SOLIDLINE
 62
1
 66
  1
 10
0.0
 20
0.0
 30
0.0
 40
0.03
 41
0.03
 70
1
  0
VERTEX
  8
0
 10
5.83
 20
4.52
 30
0.0
 42
1
  0
VERTEX
  8
0
 10
5.85
 20
4.52
 30
0.0
 42
1
  0
SEQEND
  0
ARC
  8
0
  6
SOLIDLINE
 62
249
 10
5.47
 20
4.56
 40
0.03
 50
108.435
 51
180
  0
LINE
  8
0
  6
SOLIDLINE
 62
249
 10
5.46
 20
4.59
 11
5.84
 21
4.59
  0
ARC
  8
0
  6
SOLIDLINE
 62
249
 10
5.84
 20
4.56
 40
0.03
 50
2.92403e-010
 51
90
  0
LINE
  8
0
  6
SOLIDLINE
 62
249
 10
5.87
 20
4.56
 11
5.87
 21
4.52
  0
ARC
  8
0
  6
SOLIDLINE
 62
249
 10
5.47
 20
4.53
 40
0.04
 50
194.036
 51
255.964
  0
LINE
  8
0
  6
SOLIDLINE
 62
249
 10
5.84
 20
4.49
 11
5.46
 21
4.49
  0
ARC
  8
0
  6
SOLIDLINE
 62
249
 10
5.84
 20
4.53
 40
0.04
 50
270
 51
341.565
  0
LINE
  8
0
  6
SOLIDLINE
 62
249
 10
5.43
 20
4.52
 11
5.43
 21
4.56
  0
TEXT
  8
0
 62
7
 10
5.45
 20
4.49059
 30
0.0
 40
0.04704
  1
440.00mA
 50
0
 41
1.098
 72
0
 11
5.45
 21
4.49059
 31
0
 73
0
  0
SOLID
  8
0
  6
SOLIDLINE
 62
1
 10
5.93
 20
3.63
 30
0.0
 11
5.93
 21
3.59
 31
0.0
 12
6.37
 22
3.63
 32
0.0
 13
6.37
 23
3.59
 33
0.0
  0
SOLID
  8
0
  6
SOLIDLINE
 62
1
 10
5.96
 20
3.66
 30
0.0
 11
5.96
 21
3.56
 31
0.0
 12
6.34
 22
3.66
 32
0.0
 13
6.34
 23
3.56
 33
0.0
  0
POLYLINE
  8
0
  6
SOLIDLINE
 62
1
 66
  1
 10
0.0
 20
0.0
 30
0.0
 40
0.03
 41
0.03
 70
1
  0
VERTEX
  8
0
 10
5.95
 20
3.63
 30
0.0
 42
1
  0
VERTEX
  8
0
 10
5.97
 20
3.63
 30
0.0
 42
1
  0
SEQEND
  0
POLYLINE
  8
0
  6
SOLIDLINE
 62
1
 66
  1
 10
0.0
 20
0.0
 30
0.0
 40
0.03
 41
0.03
 70
1
  0
VERTEX
  8
0
 10
5.95
 20
3.59
 30
0.0
 42
1
  0
VERTEX
  8
0
 10
5.97
 20
3.59
 30
0.0
 42
1
  0
SEQEND
  0
POLYLINE
  8
0
  6
SOLIDLINE
 62
1
 66
  1
 10
0.0
 20
0.0
 30
0.0
 40
0.03
 41
0.03
 70
1
  0
VERTEX
  8
0
 10
6.33
 20
3.63
 30
0.0
 42
1
  0
VERTEX
  8
0
 10
6.35
 20
3.63
 30
0.0
 42
1
  0
SEQEND
  0
POLYLINE
  8
0
  6
SOLIDLINE
 62
1
 66
  1
 10
0.0
 20
0.0
 30
0.0
 40
0.03
 41
0.03
 70
1
  0
VERTEX
  8
0
 10
6.33
 20
3.59
 30
0.0
 42
1
  0
VERTEX
  8
0
 10
6.35
 20
3.59
 30
0.0
 42
1
  0
SEQEND
  0
ARC
  8
0
  6
SOLIDLINE
 62
249
 10
5.97
 20
3.63
 40
0.03
 50
108.435
 51
180
  0
LINE
  8
0
  6
SOLIDLINE
 62
249
 10
5.96
 20
3.66
 11
6.34
 21
3.66
  0
ARC
  8
0
  6
SOLIDLINE
 62
249
 10
6.34
 20
3.63
 40
0.03
 50
2.92403e-010
 51
90
  0
LINE
  8
0
  6
SOLIDLINE
 62
249
 10
6.37
 20
3.63
 11
6.37
 21
3.59
  0
ARC
  8
0
  6
SOLIDLINE
 62
249
 10
5.97
 20
3.6
 40
0.04
 50
194.036
 51
255.964
  0
LINE
  8
0
  6
SOLIDLINE
 62
249
 10
6.34
 20
3.56
 11
5.96
 21
3.56
  0
ARC
  8
0
  6
SOLIDLINE
 62
249
 10
6.34
 20
3.6
 40
0.04
 50
270
 51
341.565
  0
LINE
  8
0
  6
SOLIDLINE
 62
249
 10
5.93
 20
3.59
 11
5.93
 21
3.63
  0
TEXT
  8
0
 62
7
 10
5.95
 20
3.59355
 30
0.0
 40
0.04704
  1
560.00mA
 50
0
 41
1.098
 72
0
 11
5.95
 21
3.64059
 31
0
 73
3
  0
SOLID
  8
0
  6
SOLIDLINE
 62
1
 10
4.63
 20
4.01
 30
0.0
 11
4.63
 21
3.97
 31
0.0
 12
5.07
 22
4.01
 32
0.0
 13
5.07
 23
3.97
 33
0.0
  0
SOLID
  8
0
  6
SOLIDLINE
 62
1
 10
4.66
 20
4.04
 30
0.0
 11
4.66
 21
3.94
 31
0.0
 12
5.04
 22
4.04
 32
0.0
 13
5.04
 23
3.94
 33
0.0
  0
POLYLINE
  8
0
  6
SOLIDLINE
 62
1
 66
  1
 10
0.0
 20
0.0
 30
0.0
 40
0.03
 41
0.03
 70
1
  0
VERTEX
  8
0
 10
4.65
 20
4.01
 30
0.0
 42
1
  0
VERTEX
  8
0
 10
4.67
 20
4.01
 30
0.0
 42
1
  0
SEQEND
  0
POLYLINE
  8
0
  6
SOLIDLINE
 62
1
 66
  1
 10
0.0
 20
0.0
 30
0.0
 40
0.03
 41
0.03
 70
1
  0
VERTEX
  8
0
 10
4.65
 20
3.97
 30
0.0
 42
1
  0
VERTEX
  8
0
 10
4.67
 20
3.97
 30
0.0
 42
1
  0
SEQEND
  0
POLYLINE
  8
0
  6
SOLIDLINE
 62
1
 66
  1
 10
0.0
 20
0.0
 30
0.0
 40
0.03
 41
0.03
 70
1
  0
VERTEX
  8
0
 10
5.03
 20
4.01
 30
0.0
 42
1
  0
VERTEX
  8
0
 10
5.05
 20
4.01
 30
0.0
 42
1
  0
SEQEND
  0
POLYLINE
  8
0
  6
SOLIDLINE
 62
1
 66
  1
 10
0.0
 20
0.0
 30
0.0
 40
0.03
 41
0.03
 70
1
  0
VERTEX
  8
0
 10
5.03
 20
3.97
 30
0.0
 42
1
  0
VERTEX
  8
0
 10
5.05
 20
3.97
 30
0.0
 42
1
  0
SEQEND
  0
ARC
  8
0
  6
SOLIDLINE
 62
249
 10
4.67
 20
4.01
 40
0.03
 50
108.435
 51
180
  0
LINE
  8
0
  6
SOLIDLINE
 62
249
 10
4.66
 20
4.04
 11
5.04
 21
4.04
  0
ARC
  8
0
  6
SOLIDLINE
 62
249
 10
5.04
 20
4.01
 40
0.03
 50
2.92403e-010
 51
90
  0
LINE
  8
0
  6
SOLIDLINE
 62
249
 10
5.07
 20
4.01
 11
5.07
 21
3.97
  0
ARC
  8
0
  6
SOLIDLINE
 62
249
 10
4.67
 20
3.98
 40
0.04
 50
194.036
 51
255.964
  0
LINE
  8
0
  6
SOLIDLINE
 62
249
 10
5.04
 20
3.94
 11
4.66
 21
3.94
  0
ARC
  8
0
  6
SOLIDLINE
 62
249
 10
5.04
 20
3.98
 40
0.04
 50
270
 51
341.565
  0
LINE
  8
0
  6
SOLIDLINE
 62
249
 10
4.63
 20
3.97
 11
4.63
 21
4.01
  0
TEXT
  8
0
 62
7
 10
4.65
 20
3.94059
 30
0.0
 40
0.04704
  1
560.00mA
 50
0
 41
1.098
 72
0
 11
4.65
 21
3.94059
 31
0
 73
0
  0
SOLID
  8
0
  6
SOLIDLINE
 62
1
 10
4.63
 20
3.11
 30
0.0
 11
4.63
 21
3.07
 31
0.0
 12
5.07
 22
3.11
 32
0.0
 13
5.07
 23
3.07
 33
0.0
  0
SOLID
  8
0
  6
SOLIDLINE
 62
1
 10
4.66
 20
3.14
 30
0.0
 11
4.66
 21
3.04
 31
0.0
 12
5.04
 22
3.14
 32
0.0
 13
5.04
 23
3.04
 33
0.0
  0
POLYLINE
  8
0
  6
SOLIDLINE
 62
1
 66
  1
 10
0.0
 20
0.0
 30
0.0
 40
0.03
 41
0.03
 70
1
  0
VERTEX
  8
0
 10
4.65
 20
3.11
 30
0.0
 42
1
  0
VERTEX
  8
0
 10
4.67
 20
3.11
 30
0.0
 42
1
  0
SEQEND
  0
POLYLINE
  8
0
  6
SOLIDLINE
 62
1
 66
  1
 10
0.0
 20
0.0
 30
0.0
 40
0.03
 41
0.03
 70
1
  0
VERTEX
  8
0
 10
4.65
 20
3.07
 30
0.0
 42
1
  0
VERTEX
  8
0
 10
4.67
 20
3.07
 30
0.0
 42
1
  0
SEQEND
  0
POLYLINE
  8
0
  6
SOLIDLINE
 62
1
 66
  1
 10
0.0
 20
0.0
 30
0.0
 40
0.03
 41
0.03
 70
1
  0
VERTEX
  8
0
 10
5.03
 20
3.11
 30
0.0
 42
1
  0
VERTEX
  8
0
 10
5.05
 20
3.11
 30
0.0
 42
1
  0
SEQEND
  0
POLYLINE
  8
0
  6
SOLIDLINE
 62
1
 66
  1
 10
0.0
 20
0.0
 30
0.0
 40
0.03
 41
0.03
 70
1
  0
VERTEX
  8
0
 10
5.03
 20
3.07
 30
0.0
 42
1
  0
VERTEX
  8
0
 10
5.05
 20
3.07
 30
0.0
 42
1
  0
SEQEND
  0
ARC
  8
0
  6
SOLIDLINE
 62
249
 10
4.67
 20
3.11
 40
0.03
 50
108.435
 51
180
  0
LINE
  8
0
  6
SOLIDLINE
 62
249
 10
4.66
 20
3.14
 11
5.04
 21
3.14
  0
ARC
  8
0
  6
SOLIDLINE
 62
249
 10
5.04
 20
3.11
 40
0.03
 50
2.92403e-010
 51
90
  0
LINE
  8
0
  6
SOLIDLINE
 62
249
 10
5.07
 20
3.11
 11
5.07
 21
3.07
  0
ARC
  8
0
  6
SOLIDLINE
 62
249
 10
4.67
 20
3.08
 40
0.04
 50
194.036
 51
255.964
  0
LINE
  8
0
  6
SOLIDLINE
 62
249
 10
5.04
 20
3.04
 11
4.66
 21
3.04
  0
ARC
  8
0
  6
SOLIDLINE
 62
249
 10
5.04
 20
3.08
 40
0.04
 50
270
 51
341.565
  0
LINE
  8
0
  6
SOLIDLINE
 62
249
 10
4.63
 20
3.07
 11
4.63
 21
3.11
  0
TEXT
  8
0
 62
7
 10
5.2852
 20
3.04059
 30
0.0
 40
0.04704
  1
560.00mA
 50
0
 41
1.098
 72
2
 11
5.05
 21
3.04059
 31
0
 73
0
  0
SOLID
  8
0
  6
SOLIDLINE
 62
1
 10
5.63
 20
5.41
 30
0.0
 11
5.63
 21
5.37
 31
0.0
 12
6.07
 22
5.41
 32
0.0
 13
6.07
 23
5.37
 33
0.0
  0
SOLID
  8
0
  6
SOLIDLINE
 62
1
 10
5.66
 20
5.44
 30
0.0
 11
5.66
 21
5.34
 31
0.0
 12
6.04
 22
5.44
 32
0.0
 13
6.04
 23
5.34
 33
0.0
  0
POLYLINE
  8
0
  6
SOLIDLINE
 62
1
 66
  1
 10
0.0
 20
0.0
 30
0.0
 40
0.03
 41
0.03
 70
1
  0
VERTEX
  8
0
 10
5.65
 20
5.41
 30
0.0
 42
1
  0
VERTEX
  8
0
 10
5.67
 20
5.41
 30
0.0
 42
1
  0
SEQEND
  0
POLYLINE
  8
0
  6
SOLIDLINE
 62
1
 66
  1
 10
0.0
 20
0.0
 30
0.0
 40
0.03
 41
0.03
 70
1
  0
VERTEX
  8
0
 10
5.65
 20
5.37
 30
0.0
 42
1
  0
VERTEX
  8
0
 10
5.67
 20
5.37
 30
0.0
 42
1
  0
SEQEND
  0
POLYLINE
  8
0
  6
SOLIDLINE
 62
1
 66
  1
 10
0.0
 20
0.0
 30
0.0
 40
0.03
 41
0.03
 70
1
  0
VERTEX
  8
0
 10
6.03
 20
5.41
 30
0.0
 42
1
  0
VERTEX
  8
0
 10
6.05
 20
5.41
 30
0.0
 42
1
  0
SEQEND
  0
POLYLINE
  8
0
  6
SOLIDLINE
 62
1
 66
  1
 10
0.0
 20
0.0
 30
0.0
 40
0.03
 41
0.03
 70
1
  0
VERTEX
  8
0
 10
6.03
 20
5.37
 30
0.0
 42
1
  0
VERTEX
  8
0
 10
6.05
 20
5.37
 30
0.0
 42
1
  0
SEQEND
  0
ARC
  8
0
  6
SOLIDLINE
 62
249
 10
5.67
 20
5.41
 40
0.03
 50
108.435
 51
180
  0
LINE
  8
0
  6
SOLIDLINE
 62
249
 10
5.66
 20
5.44
 11
6.04
 21
5.44
  0
ARC
  8
0
  6
SOLIDLINE
 62
249
 10
6.04
 20
5.41
 40
0.03
 50
2.92403e-010
 51
90
  0
LINE
  8
0
  6
SOLIDLINE
 62
249
 10
6.07
 20
5.41
 11
6.07
 21
5.37
  0
ARC
  8
0
  6
SOLIDLINE
 62
249
 10
5.67
 20
5.38
 40
0.04
 50
194.036
 51
255.964
  0
LINE
  8
0
  6
SOLIDLINE
 62
249
 10
6.04
 20
5.34
 11
5.66
 21
5.34
  0
ARC
  8
0
  6
SOLIDLINE
 62
249
 10
6.04
 20
5.38
 40
0.04
 50
270
 51
341.565
  0
LINE
  8
0
  6
SOLIDLINE
 62
249
 10
5.63
 20
5.37
 11
5.63
 21
5.41
  0
TEXT
  8
0
 62
7
 10
5.65
 20
5.34059
 30
0.0
 40
0.04704
  1
120.00mA
 50
0
 41
1.098
 72
0
 11
5.65
 21
5.34059
 31
0
 73
0
  0
ENDSEC
  0
EOF
